G04 #@! TF.FileFunction,Legend,Top*
%FSLAX46Y46*%
G04 Gerber Fmt 4.6, Leading zero omitted, Abs format (unit mm)*
G04 Created by KiCad (PCBNEW 4.0.7) date 12/06/17 14:41:04*
%MOMM*%
%LPD*%
G01*
G04 APERTURE LIST*
%ADD10C,0.100000*%
%ADD11C,0.300000*%
%ADD12C,0.120000*%
%ADD13C,0.150000*%
G04 APERTURE END LIST*
D10*
D11*
X68446190Y-142061429D02*
X68803333Y-142180476D01*
X68922381Y-142299524D01*
X69041429Y-142537619D01*
X69041429Y-142894762D01*
X68922381Y-143132857D01*
X68803333Y-143251905D01*
X68565238Y-143370952D01*
X67612857Y-143370952D01*
X67612857Y-140870952D01*
X68446190Y-140870952D01*
X68684286Y-140990000D01*
X68803333Y-141109048D01*
X68922381Y-141347143D01*
X68922381Y-141585238D01*
X68803333Y-141823333D01*
X68684286Y-141942381D01*
X68446190Y-142061429D01*
X67612857Y-142061429D01*
X71184286Y-143370952D02*
X71184286Y-142061429D01*
X71065238Y-141823333D01*
X70827143Y-141704286D01*
X70350952Y-141704286D01*
X70112857Y-141823333D01*
X71184286Y-143251905D02*
X70946190Y-143370952D01*
X70350952Y-143370952D01*
X70112857Y-143251905D01*
X69993809Y-143013810D01*
X69993809Y-142775714D01*
X70112857Y-142537619D01*
X70350952Y-142418571D01*
X70946190Y-142418571D01*
X71184286Y-142299524D01*
X72017619Y-141704286D02*
X72970000Y-141704286D01*
X72374762Y-140870952D02*
X72374762Y-143013810D01*
X72493810Y-143251905D01*
X72731905Y-143370952D01*
X72970000Y-143370952D01*
X73446190Y-141704286D02*
X74398571Y-141704286D01*
X73803333Y-140870952D02*
X73803333Y-143013810D01*
X73922381Y-143251905D01*
X74160476Y-143370952D01*
X74398571Y-143370952D01*
X76184285Y-143251905D02*
X75946190Y-143370952D01*
X75469999Y-143370952D01*
X75231904Y-143251905D01*
X75112856Y-143013810D01*
X75112856Y-142061429D01*
X75231904Y-141823333D01*
X75469999Y-141704286D01*
X75946190Y-141704286D01*
X76184285Y-141823333D01*
X76303333Y-142061429D01*
X76303333Y-142299524D01*
X75112856Y-142537619D01*
X77374761Y-143370952D02*
X77374761Y-141704286D01*
X77374761Y-142180476D02*
X77493809Y-141942381D01*
X77612856Y-141823333D01*
X77850952Y-141704286D01*
X78089047Y-141704286D01*
X78684285Y-141704286D02*
X79279523Y-143370952D01*
X79874761Y-141704286D02*
X79279523Y-143370952D01*
X79041428Y-143966190D01*
X78922380Y-144085238D01*
X78684285Y-144204286D01*
X82612856Y-142656667D02*
X83803333Y-142656667D01*
X82374761Y-143370952D02*
X83208095Y-140870952D01*
X84041428Y-143370952D01*
X84755713Y-143251905D02*
X84993809Y-143370952D01*
X85469999Y-143370952D01*
X85708094Y-143251905D01*
X85827142Y-143013810D01*
X85827142Y-142894762D01*
X85708094Y-142656667D01*
X85469999Y-142537619D01*
X85112856Y-142537619D01*
X84874761Y-142418571D01*
X84755713Y-142180476D01*
X84755713Y-142061429D01*
X84874761Y-141823333D01*
X85112856Y-141704286D01*
X85469999Y-141704286D01*
X85708094Y-141823333D01*
X86779523Y-143251905D02*
X87017619Y-143370952D01*
X87493809Y-143370952D01*
X87731904Y-143251905D01*
X87850952Y-143013810D01*
X87850952Y-142894762D01*
X87731904Y-142656667D01*
X87493809Y-142537619D01*
X87136666Y-142537619D01*
X86898571Y-142418571D01*
X86779523Y-142180476D01*
X86779523Y-142061429D01*
X86898571Y-141823333D01*
X87136666Y-141704286D01*
X87493809Y-141704286D01*
X87731904Y-141823333D01*
X89874762Y-143251905D02*
X89636667Y-143370952D01*
X89160476Y-143370952D01*
X88922381Y-143251905D01*
X88803333Y-143013810D01*
X88803333Y-142061429D01*
X88922381Y-141823333D01*
X89160476Y-141704286D01*
X89636667Y-141704286D01*
X89874762Y-141823333D01*
X89993810Y-142061429D01*
X89993810Y-142299524D01*
X88803333Y-142537619D01*
X90946190Y-143251905D02*
X91184286Y-143370952D01*
X91660476Y-143370952D01*
X91898571Y-143251905D01*
X92017619Y-143013810D01*
X92017619Y-142894762D01*
X91898571Y-142656667D01*
X91660476Y-142537619D01*
X91303333Y-142537619D01*
X91065238Y-142418571D01*
X90946190Y-142180476D01*
X90946190Y-142061429D01*
X91065238Y-141823333D01*
X91303333Y-141704286D01*
X91660476Y-141704286D01*
X91898571Y-141823333D01*
X92970000Y-143251905D02*
X93208096Y-143370952D01*
X93684286Y-143370952D01*
X93922381Y-143251905D01*
X94041429Y-143013810D01*
X94041429Y-142894762D01*
X93922381Y-142656667D01*
X93684286Y-142537619D01*
X93327143Y-142537619D01*
X93089048Y-142418571D01*
X92970000Y-142180476D01*
X92970000Y-142061429D01*
X93089048Y-141823333D01*
X93327143Y-141704286D01*
X93684286Y-141704286D01*
X93922381Y-141823333D01*
X95112858Y-143370952D02*
X95112858Y-141704286D01*
X95112858Y-141942381D02*
X95231906Y-141823333D01*
X95470001Y-141704286D01*
X95827144Y-141704286D01*
X96065239Y-141823333D01*
X96184287Y-142061429D01*
X96184287Y-143370952D01*
X96184287Y-142061429D02*
X96303334Y-141823333D01*
X96541430Y-141704286D01*
X96898572Y-141704286D01*
X97136668Y-141823333D01*
X97255715Y-142061429D01*
X97255715Y-143370952D01*
X99398572Y-143251905D02*
X99160477Y-143370952D01*
X98684286Y-143370952D01*
X98446191Y-143251905D01*
X98327143Y-143013810D01*
X98327143Y-142061429D01*
X98446191Y-141823333D01*
X98684286Y-141704286D01*
X99160477Y-141704286D01*
X99398572Y-141823333D01*
X99517620Y-142061429D01*
X99517620Y-142299524D01*
X98327143Y-142537619D01*
X100589048Y-141704286D02*
X100589048Y-143370952D01*
X100589048Y-141942381D02*
X100708096Y-141823333D01*
X100946191Y-141704286D01*
X101303334Y-141704286D01*
X101541429Y-141823333D01*
X101660477Y-142061429D01*
X101660477Y-143370952D01*
X102493810Y-141704286D02*
X103446191Y-141704286D01*
X102850953Y-140870952D02*
X102850953Y-143013810D01*
X102970001Y-143251905D01*
X103208096Y-143370952D01*
X103446191Y-143370952D01*
X107255715Y-143370952D02*
X107255715Y-142061429D01*
X107136667Y-141823333D01*
X106898572Y-141704286D01*
X106422381Y-141704286D01*
X106184286Y-141823333D01*
X107255715Y-143251905D02*
X107017619Y-143370952D01*
X106422381Y-143370952D01*
X106184286Y-143251905D01*
X106065238Y-143013810D01*
X106065238Y-142775714D01*
X106184286Y-142537619D01*
X106422381Y-142418571D01*
X107017619Y-142418571D01*
X107255715Y-142299524D01*
X108446191Y-141704286D02*
X108446191Y-143370952D01*
X108446191Y-141942381D02*
X108565239Y-141823333D01*
X108803334Y-141704286D01*
X109160477Y-141704286D01*
X109398572Y-141823333D01*
X109517620Y-142061429D01*
X109517620Y-143370952D01*
X111779525Y-143370952D02*
X111779525Y-140870952D01*
X111779525Y-143251905D02*
X111541429Y-143370952D01*
X111065239Y-143370952D01*
X110827144Y-143251905D01*
X110708096Y-143132857D01*
X110589048Y-142894762D01*
X110589048Y-142180476D01*
X110708096Y-141942381D01*
X110827144Y-141823333D01*
X111065239Y-141704286D01*
X111541429Y-141704286D01*
X111779525Y-141823333D01*
X114517620Y-140870952D02*
X115946192Y-140870952D01*
X115231906Y-143370952D02*
X115231906Y-140870952D01*
X117731906Y-143251905D02*
X117493811Y-143370952D01*
X117017620Y-143370952D01*
X116779525Y-143251905D01*
X116660477Y-143013810D01*
X116660477Y-142061429D01*
X116779525Y-141823333D01*
X117017620Y-141704286D01*
X117493811Y-141704286D01*
X117731906Y-141823333D01*
X117850954Y-142061429D01*
X117850954Y-142299524D01*
X116660477Y-142537619D01*
X118803334Y-143251905D02*
X119041430Y-143370952D01*
X119517620Y-143370952D01*
X119755715Y-143251905D01*
X119874763Y-143013810D01*
X119874763Y-142894762D01*
X119755715Y-142656667D01*
X119517620Y-142537619D01*
X119160477Y-142537619D01*
X118922382Y-142418571D01*
X118803334Y-142180476D01*
X118803334Y-142061429D01*
X118922382Y-141823333D01*
X119160477Y-141704286D01*
X119517620Y-141704286D01*
X119755715Y-141823333D01*
X120589049Y-141704286D02*
X121541430Y-141704286D01*
X120946192Y-140870952D02*
X120946192Y-143013810D01*
X121065240Y-143251905D01*
X121303335Y-143370952D01*
X121541430Y-143370952D01*
X122374763Y-143370952D02*
X122374763Y-141704286D01*
X122374763Y-140870952D02*
X122255715Y-140990000D01*
X122374763Y-141109048D01*
X122493811Y-140990000D01*
X122374763Y-140870952D01*
X122374763Y-141109048D01*
X123565239Y-141704286D02*
X123565239Y-143370952D01*
X123565239Y-141942381D02*
X123684287Y-141823333D01*
X123922382Y-141704286D01*
X124279525Y-141704286D01*
X124517620Y-141823333D01*
X124636668Y-142061429D01*
X124636668Y-143370952D01*
X126898573Y-141704286D02*
X126898573Y-143728095D01*
X126779525Y-143966190D01*
X126660477Y-144085238D01*
X126422382Y-144204286D01*
X126065239Y-144204286D01*
X125827144Y-144085238D01*
X126898573Y-143251905D02*
X126660477Y-143370952D01*
X126184287Y-143370952D01*
X125946192Y-143251905D01*
X125827144Y-143132857D01*
X125708096Y-142894762D01*
X125708096Y-142180476D01*
X125827144Y-141942381D01*
X125946192Y-141823333D01*
X126184287Y-141704286D01*
X126660477Y-141704286D01*
X126898573Y-141823333D01*
X129993811Y-143370952D02*
X129993811Y-140870952D01*
X130589049Y-140870952D01*
X130946192Y-140990000D01*
X131184287Y-141228095D01*
X131303335Y-141466190D01*
X131422383Y-141942381D01*
X131422383Y-142299524D01*
X131303335Y-142775714D01*
X131184287Y-143013810D01*
X130946192Y-143251905D01*
X130589049Y-143370952D01*
X129993811Y-143370952D01*
X133446192Y-143251905D02*
X133208097Y-143370952D01*
X132731906Y-143370952D01*
X132493811Y-143251905D01*
X132374763Y-143013810D01*
X132374763Y-142061429D01*
X132493811Y-141823333D01*
X132731906Y-141704286D01*
X133208097Y-141704286D01*
X133446192Y-141823333D01*
X133565240Y-142061429D01*
X133565240Y-142299524D01*
X132374763Y-142537619D01*
X134398573Y-141704286D02*
X134993811Y-143370952D01*
X135589049Y-141704286D01*
X136541430Y-143370952D02*
X136541430Y-141704286D01*
X136541430Y-140870952D02*
X136422382Y-140990000D01*
X136541430Y-141109048D01*
X136660478Y-140990000D01*
X136541430Y-140870952D01*
X136541430Y-141109048D01*
X138803335Y-143251905D02*
X138565239Y-143370952D01*
X138089049Y-143370952D01*
X137850954Y-143251905D01*
X137731906Y-143132857D01*
X137612858Y-142894762D01*
X137612858Y-142180476D01*
X137731906Y-141942381D01*
X137850954Y-141823333D01*
X138089049Y-141704286D01*
X138565239Y-141704286D01*
X138803335Y-141823333D01*
X140827144Y-143251905D02*
X140589049Y-143370952D01*
X140112858Y-143370952D01*
X139874763Y-143251905D01*
X139755715Y-143013810D01*
X139755715Y-142061429D01*
X139874763Y-141823333D01*
X140112858Y-141704286D01*
X140589049Y-141704286D01*
X140827144Y-141823333D01*
X140946192Y-142061429D01*
X140946192Y-142299524D01*
X139755715Y-142537619D01*
X143565239Y-140870952D02*
X144398573Y-143370952D01*
X145231906Y-140870952D01*
X147374763Y-143370952D02*
X145946191Y-143370952D01*
X146660477Y-143370952D02*
X146660477Y-140870952D01*
X146422382Y-141228095D01*
X146184287Y-141466190D01*
X145946191Y-141585238D01*
X148446191Y-143132857D02*
X148565239Y-143251905D01*
X148446191Y-143370952D01*
X148327143Y-143251905D01*
X148446191Y-143132857D01*
X148446191Y-143370952D01*
X150112858Y-140870952D02*
X150350953Y-140870952D01*
X150589048Y-140990000D01*
X150708096Y-141109048D01*
X150827143Y-141347143D01*
X150946191Y-141823333D01*
X150946191Y-142418571D01*
X150827143Y-142894762D01*
X150708096Y-143132857D01*
X150589048Y-143251905D01*
X150350953Y-143370952D01*
X150112858Y-143370952D01*
X149874762Y-143251905D01*
X149755715Y-143132857D01*
X149636667Y-142894762D01*
X149517619Y-142418571D01*
X149517619Y-141823333D01*
X149636667Y-141347143D01*
X149755715Y-141109048D01*
X149874762Y-140990000D01*
X150112858Y-140870952D01*
X223402857Y-41537143D02*
X223402857Y-43965714D01*
X223545714Y-44251429D01*
X223688571Y-44394286D01*
X223974285Y-44537143D01*
X224545714Y-44537143D01*
X224831428Y-44394286D01*
X224974285Y-44251429D01*
X225117142Y-43965714D01*
X225117142Y-41537143D01*
X226117142Y-41537143D02*
X227117142Y-44537143D01*
X228117142Y-41537143D01*
X228974286Y-43680000D02*
X230402857Y-43680000D01*
X228688571Y-44537143D02*
X229688571Y-41537143D01*
X230688571Y-44537143D01*
X233831429Y-44394286D02*
X234260000Y-44537143D01*
X234974286Y-44537143D01*
X235260000Y-44394286D01*
X235402857Y-44251429D01*
X235545714Y-43965714D01*
X235545714Y-43680000D01*
X235402857Y-43394286D01*
X235260000Y-43251429D01*
X234974286Y-43108571D01*
X234402857Y-42965714D01*
X234117143Y-42822857D01*
X233974286Y-42680000D01*
X233831429Y-42394286D01*
X233831429Y-42108571D01*
X233974286Y-41822857D01*
X234117143Y-41680000D01*
X234402857Y-41537143D01*
X235117143Y-41537143D01*
X235545714Y-41680000D01*
X237260000Y-44537143D02*
X236974286Y-44394286D01*
X236831429Y-44251429D01*
X236688572Y-43965714D01*
X236688572Y-43108571D01*
X236831429Y-42822857D01*
X236974286Y-42680000D01*
X237260000Y-42537143D01*
X237688572Y-42537143D01*
X237974286Y-42680000D01*
X238117143Y-42822857D01*
X238260000Y-43108571D01*
X238260000Y-43965714D01*
X238117143Y-44251429D01*
X237974286Y-44394286D01*
X237688572Y-44537143D01*
X237260000Y-44537143D01*
X239974286Y-44537143D02*
X239688572Y-44394286D01*
X239545715Y-44108571D01*
X239545715Y-41537143D01*
X242402858Y-44537143D02*
X242402858Y-42965714D01*
X242260001Y-42680000D01*
X241974287Y-42537143D01*
X241402858Y-42537143D01*
X241117144Y-42680000D01*
X242402858Y-44394286D02*
X242117144Y-44537143D01*
X241402858Y-44537143D01*
X241117144Y-44394286D01*
X240974287Y-44108571D01*
X240974287Y-43822857D01*
X241117144Y-43537143D01*
X241402858Y-43394286D01*
X242117144Y-43394286D01*
X242402858Y-43251429D01*
X243831430Y-44537143D02*
X243831430Y-42537143D01*
X243831430Y-43108571D02*
X243974287Y-42822857D01*
X244117144Y-42680000D01*
X244402858Y-42537143D01*
X244688573Y-42537143D01*
X249688572Y-44251429D02*
X249545715Y-44394286D01*
X249117144Y-44537143D01*
X248831430Y-44537143D01*
X248402858Y-44394286D01*
X248117144Y-44108571D01*
X247974287Y-43822857D01*
X247831430Y-43251429D01*
X247831430Y-42822857D01*
X247974287Y-42251429D01*
X248117144Y-41965714D01*
X248402858Y-41680000D01*
X248831430Y-41537143D01*
X249117144Y-41537143D01*
X249545715Y-41680000D01*
X249688572Y-41822857D01*
X252260001Y-44537143D02*
X252260001Y-42965714D01*
X252117144Y-42680000D01*
X251831430Y-42537143D01*
X251260001Y-42537143D01*
X250974287Y-42680000D01*
X252260001Y-44394286D02*
X251974287Y-44537143D01*
X251260001Y-44537143D01*
X250974287Y-44394286D01*
X250831430Y-44108571D01*
X250831430Y-43822857D01*
X250974287Y-43537143D01*
X251260001Y-43394286D01*
X251974287Y-43394286D01*
X252260001Y-43251429D01*
X253688573Y-44537143D02*
X253688573Y-42537143D01*
X253688573Y-43108571D02*
X253831430Y-42822857D01*
X253974287Y-42680000D01*
X254260001Y-42537143D01*
X254545716Y-42537143D01*
D12*
X262636000Y-43180000D02*
G75*
G03X262636000Y-43180000I-2286000J0D01*
G01*
X262636000Y-142240000D02*
G75*
G03X262636000Y-142240000I-2286000J0D01*
G01*
X63246000Y-43180000D02*
G75*
G03X63246000Y-43180000I-2286000J0D01*
G01*
X248150000Y-58840000D02*
X247150000Y-58840000D01*
X247150000Y-60540000D02*
X248150000Y-60540000D01*
X244530000Y-79480000D02*
X244530000Y-83080000D01*
X245257205Y-78955816D02*
G75*
G03X244530000Y-79480000I1122795J-2324184D01*
G01*
X247478807Y-78923600D02*
G75*
G02X248980000Y-81280000I-1098807J-2356400D01*
G01*
X247478807Y-83636400D02*
G75*
G03X248980000Y-81280000I-1098807J2356400D01*
G01*
X245257205Y-83604184D02*
G75*
G02X244530000Y-83080000I1122795J2324184D01*
G01*
X241380000Y-74890000D02*
X241380000Y-85130000D01*
X236739000Y-74890000D02*
X236739000Y-85130000D01*
X241380000Y-74890000D02*
X236739000Y-74890000D01*
X241380000Y-85130000D02*
X236739000Y-85130000D01*
X239870000Y-74890000D02*
X239870000Y-85130000D01*
X241380000Y-78160000D02*
X239870000Y-78160000D01*
X241380000Y-81861000D02*
X239870000Y-81861000D01*
X245270117Y-100181117D02*
G75*
G03X245270117Y-100181117I-3060000J0D01*
G01*
X239150117Y-100181117D02*
X236090117Y-100181117D01*
X245270117Y-107801117D02*
G75*
G03X245270117Y-107801117I-3060000J0D01*
G01*
X239150117Y-107801117D02*
X236090117Y-107801117D01*
X232570117Y-115421117D02*
G75*
G03X232570117Y-115421117I-3060000J0D01*
G01*
X226450117Y-115421117D02*
X223390117Y-115421117D01*
X232570117Y-107801117D02*
G75*
G03X232570117Y-107801117I-3060000J0D01*
G01*
X226450117Y-107801117D02*
X223390117Y-107801117D01*
X232570117Y-123041117D02*
G75*
G03X232570117Y-123041117I-3060000J0D01*
G01*
X226450117Y-123041117D02*
X223390117Y-123041117D01*
X232570117Y-130661117D02*
G75*
G03X232570117Y-130661117I-3060000J0D01*
G01*
X226450117Y-130661117D02*
X223390117Y-130661117D01*
X232570117Y-100181117D02*
G75*
G03X232570117Y-100181117I-3060000J0D01*
G01*
X226450117Y-100181117D02*
X223390117Y-100181117D01*
X253310000Y-113560000D02*
X253310000Y-109960000D01*
X252582795Y-114084184D02*
G75*
G03X253310000Y-113560000I-1122795J2324184D01*
G01*
X250361193Y-114116400D02*
G75*
G02X248860000Y-111760000I1098807J2356400D01*
G01*
X250361193Y-109403600D02*
G75*
G03X248860000Y-111760000I1098807J-2356400D01*
G01*
X252582795Y-109435816D02*
G75*
G02X253310000Y-109960000I-1122795J-2324184D01*
G01*
X245270117Y-123041117D02*
G75*
G03X245270117Y-123041117I-3060000J0D01*
G01*
X239150117Y-123041117D02*
X236090117Y-123041117D01*
X245270117Y-130661117D02*
G75*
G03X245270117Y-130661117I-3060000J0D01*
G01*
X239150117Y-130661117D02*
X236090117Y-130661117D01*
X245270117Y-115421117D02*
G75*
G03X245270117Y-115421117I-3060000J0D01*
G01*
X239150117Y-115421117D02*
X236090117Y-115421117D01*
X218107005Y-65689151D02*
X219107005Y-65689151D01*
X219107005Y-63989151D02*
X218107005Y-63989151D01*
X218168546Y-68850000D02*
X218168546Y-70850000D01*
X218168546Y-70850000D02*
X222068546Y-70850000D01*
X218168546Y-68850000D02*
X222068546Y-68850000D01*
X221547429Y-86159151D02*
X221547429Y-84159151D01*
X221547429Y-84159151D02*
X217647429Y-84159151D01*
X221547429Y-86159151D02*
X217647429Y-86159151D01*
X225358546Y-80829034D02*
X226558546Y-80829034D01*
X226558546Y-82589034D02*
X225358546Y-82589034D01*
D13*
X213808546Y-81404034D02*
X213833546Y-81404034D01*
X213808546Y-77254034D02*
X213923546Y-77254034D01*
X222708546Y-77254034D02*
X222593546Y-77254034D01*
X222708546Y-81404034D02*
X222593546Y-81404034D01*
X213808546Y-81404034D02*
X213808546Y-77254034D01*
X222708546Y-81404034D02*
X222708546Y-77254034D01*
X213833546Y-81404034D02*
X213833546Y-82779034D01*
D12*
X220380000Y-59730000D02*
X221580000Y-59730000D01*
X220980000Y-60330000D02*
X220980000Y-59130000D01*
X222080000Y-63730000D02*
X222480000Y-63730000D01*
X222480000Y-63730000D02*
X224380000Y-62130000D01*
X224380000Y-62130000D02*
X224380000Y-59030000D01*
X219880000Y-63730000D02*
X219480000Y-63730000D01*
X219480000Y-63730000D02*
X217580000Y-62130000D01*
X217580000Y-62130000D02*
X217580000Y-59030000D01*
X220980000Y-55630000D02*
X222580000Y-55630000D01*
X220980000Y-55630000D02*
X219380000Y-55630000D01*
X216780000Y-86950000D02*
X216780000Y-88150000D01*
X215020000Y-88150000D02*
X215020000Y-86950000D01*
X224270000Y-84210000D02*
X225470000Y-84210000D01*
X225470000Y-85970000D02*
X224270000Y-85970000D01*
X218600117Y-130661117D02*
G75*
G03X218600117Y-130661117I-3060000J0D01*
G01*
X212480117Y-130661117D02*
X209420117Y-130661117D01*
X205900117Y-123041117D02*
G75*
G03X205900117Y-123041117I-3060000J0D01*
G01*
X199780117Y-123041117D02*
X196720117Y-123041117D01*
X218600117Y-123041117D02*
G75*
G03X218600117Y-123041117I-3060000J0D01*
G01*
X212480117Y-123041117D02*
X209420117Y-123041117D01*
X205900117Y-130661117D02*
G75*
G03X205900117Y-130661117I-3060000J0D01*
G01*
X199780117Y-130661117D02*
X196720117Y-130661117D01*
X241590000Y-73930000D02*
X241590000Y-75930000D01*
X241590000Y-75930000D02*
X245490000Y-75930000D01*
X241590000Y-73930000D02*
X245490000Y-73930000D01*
X252130000Y-58810000D02*
X253330000Y-58810000D01*
X253330000Y-60570000D02*
X252130000Y-60570000D01*
X260390000Y-78820000D02*
X250150000Y-78820000D01*
X260390000Y-74179000D02*
X250150000Y-74179000D01*
X260390000Y-78820000D02*
X260390000Y-74179000D01*
X250150000Y-78820000D02*
X250150000Y-74179000D01*
X260390000Y-77310000D02*
X250150000Y-77310000D01*
X257120000Y-78820000D02*
X257120000Y-77310000D01*
X253419000Y-78820000D02*
X253419000Y-77310000D01*
X259420000Y-59240000D02*
X259420000Y-57440000D01*
X256200000Y-57440000D02*
X256200000Y-60390000D01*
X253520000Y-69430000D02*
X254520000Y-69430000D01*
X254520000Y-67730000D02*
X253520000Y-67730000D01*
X260577114Y-66898790D02*
X250337114Y-66898790D01*
X260577114Y-62257790D02*
X250337114Y-62257790D01*
X260577114Y-66898790D02*
X260577114Y-62257790D01*
X250337114Y-66898790D02*
X250337114Y-62257790D01*
X260577114Y-65388790D02*
X250337114Y-65388790D01*
X257307114Y-66898790D02*
X257307114Y-65388790D01*
X253606114Y-66898790D02*
X253606114Y-65388790D01*
X246767114Y-66098790D02*
X241567114Y-66098790D01*
X241567114Y-62458790D02*
X246767114Y-62458790D01*
X205900117Y-115421117D02*
G75*
G03X205900117Y-115421117I-3060000J0D01*
G01*
X199780117Y-115421117D02*
X196720117Y-115421117D01*
X218600117Y-107801117D02*
G75*
G03X218600117Y-107801117I-3060000J0D01*
G01*
X212480117Y-107801117D02*
X209420117Y-107801117D01*
X205900117Y-107801117D02*
G75*
G03X205900117Y-107801117I-3060000J0D01*
G01*
X199780117Y-107801117D02*
X196720117Y-107801117D01*
X218600117Y-115421117D02*
G75*
G03X218600117Y-115421117I-3060000J0D01*
G01*
X212480117Y-115421117D02*
X209420117Y-115421117D01*
X205900117Y-100181117D02*
G75*
G03X205900117Y-100181117I-3060000J0D01*
G01*
X199780117Y-100181117D02*
X196720117Y-100181117D01*
X218600117Y-100181117D02*
G75*
G03X218600117Y-100181117I-3060000J0D01*
G01*
X212480117Y-100181117D02*
X209420117Y-100181117D01*
X211490000Y-59730000D02*
X212690000Y-59730000D01*
X212090000Y-60330000D02*
X212090000Y-59130000D01*
X213190000Y-63730000D02*
X213590000Y-63730000D01*
X213590000Y-63730000D02*
X215490000Y-62130000D01*
X215490000Y-62130000D02*
X215490000Y-59030000D01*
X210990000Y-63730000D02*
X210590000Y-63730000D01*
X210590000Y-63730000D02*
X208690000Y-62130000D01*
X208690000Y-62130000D02*
X208690000Y-59030000D01*
X212090000Y-55630000D02*
X213690000Y-55630000D01*
X212090000Y-55630000D02*
X210490000Y-55630000D01*
X211238546Y-82589034D02*
X210038546Y-82589034D01*
X210038546Y-80829034D02*
X211238546Y-80829034D01*
X214173845Y-63989151D02*
X213173845Y-63989151D01*
X213173845Y-65689151D02*
X214173845Y-65689151D01*
X216108546Y-69370000D02*
X216108546Y-68170000D01*
X217868546Y-68170000D02*
X217868546Y-69370000D01*
X215230000Y-70850000D02*
X215230000Y-68850000D01*
X215230000Y-68850000D02*
X211330000Y-68850000D01*
X215230000Y-70850000D02*
X211330000Y-70850000D01*
X208388546Y-75629034D02*
X208388546Y-77629034D01*
X208388546Y-77629034D02*
X212288546Y-77629034D01*
X208388546Y-75629034D02*
X212288546Y-75629034D01*
X194390000Y-74890000D02*
X194390000Y-85130000D01*
X189749000Y-74890000D02*
X189749000Y-85130000D01*
X194390000Y-74890000D02*
X189749000Y-74890000D01*
X194390000Y-85130000D02*
X189749000Y-85130000D01*
X192880000Y-74890000D02*
X192880000Y-85130000D01*
X194390000Y-78160000D02*
X192880000Y-78160000D01*
X194390000Y-81861000D02*
X192880000Y-81861000D01*
X187270000Y-81810000D02*
X187270000Y-78210000D01*
X186542795Y-82334184D02*
G75*
G03X187270000Y-81810000I-1122795J2324184D01*
G01*
X184321193Y-82366400D02*
G75*
G02X182820000Y-80010000I1098807J2356400D01*
G01*
X184321193Y-77653600D02*
G75*
G03X182820000Y-80010000I1098807J-2356400D01*
G01*
X186542795Y-77685816D02*
G75*
G02X187270000Y-78210000I-1122795J-2324184D01*
G01*
X150150000Y-73930000D02*
X150150000Y-75930000D01*
X150150000Y-75930000D02*
X154050000Y-75930000D01*
X150150000Y-73930000D02*
X154050000Y-73930000D01*
X98040000Y-41910000D02*
X99310000Y-42670000D01*
X99310000Y-42670000D02*
X99310000Y-41150000D01*
X99310000Y-41150000D02*
X98040000Y-41910000D01*
X108260000Y-47620000D02*
X67000000Y-47620000D01*
X108260000Y-47620000D02*
X108260000Y-38740000D01*
X67000000Y-38740000D02*
X67000000Y-47620000D01*
X67000000Y-38740000D02*
X108260000Y-38740000D01*
X76494100Y-65306282D02*
X77494100Y-65306282D01*
X77494100Y-63606282D02*
X76494100Y-63606282D01*
X76494100Y-62766282D02*
X77494100Y-62766282D01*
X77494100Y-61066282D02*
X76494100Y-61066282D01*
X77494100Y-58526282D02*
X76494100Y-58526282D01*
X76494100Y-60226282D02*
X77494100Y-60226282D01*
X77494100Y-55986282D02*
X76494100Y-55986282D01*
X76494100Y-57686282D02*
X77494100Y-57686282D01*
X156710000Y-58840000D02*
X155710000Y-58840000D01*
X155710000Y-60540000D02*
X156710000Y-60540000D01*
X162080000Y-69430000D02*
X163080000Y-69430000D01*
X163080000Y-67730000D02*
X162080000Y-67730000D01*
X126667005Y-65689151D02*
X127667005Y-65689151D01*
X127667005Y-63989151D02*
X126667005Y-63989151D01*
X122733845Y-63989151D02*
X121733845Y-63989151D01*
X121733845Y-65689151D02*
X122733845Y-65689151D01*
X116948546Y-75629034D02*
X116948546Y-77629034D01*
X116948546Y-77629034D02*
X120848546Y-77629034D01*
X116948546Y-75629034D02*
X120848546Y-75629034D01*
X130107429Y-86159151D02*
X130107429Y-84159151D01*
X130107429Y-84159151D02*
X126207429Y-84159151D01*
X130107429Y-86159151D02*
X126207429Y-86159151D01*
X123790000Y-70850000D02*
X123790000Y-68850000D01*
X123790000Y-68850000D02*
X119890000Y-68850000D01*
X123790000Y-70850000D02*
X119890000Y-70850000D01*
X126728546Y-68850000D02*
X126728546Y-70850000D01*
X126728546Y-70850000D02*
X130628546Y-70850000D01*
X126728546Y-68850000D02*
X130628546Y-68850000D01*
X60970000Y-69260000D02*
X60970000Y-78060000D01*
X64770000Y-78060000D02*
X57070000Y-78060000D01*
X57070000Y-78060000D02*
X57070000Y-69260000D01*
X57070000Y-69260000D02*
X57270000Y-69260000D01*
X70670000Y-76210000D02*
X70670000Y-78060000D01*
X70670000Y-78060000D02*
X69820000Y-78060000D01*
X57170000Y-69260000D02*
X70670000Y-69260000D01*
X70670000Y-69260000D02*
X70670000Y-71110000D01*
X169137114Y-66898790D02*
X158897114Y-66898790D01*
X169137114Y-62257790D02*
X158897114Y-62257790D01*
X169137114Y-66898790D02*
X169137114Y-62257790D01*
X158897114Y-66898790D02*
X158897114Y-62257790D01*
X169137114Y-65388790D02*
X158897114Y-65388790D01*
X165867114Y-66898790D02*
X165867114Y-65388790D01*
X162166114Y-66898790D02*
X162166114Y-65388790D01*
X102950000Y-74890000D02*
X102950000Y-85130000D01*
X98309000Y-74890000D02*
X98309000Y-85130000D01*
X102950000Y-74890000D02*
X98309000Y-74890000D01*
X102950000Y-85130000D02*
X98309000Y-85130000D01*
X101440000Y-74890000D02*
X101440000Y-85130000D01*
X102950000Y-78160000D02*
X101440000Y-78160000D01*
X102950000Y-81861000D02*
X101440000Y-81861000D01*
X149940000Y-74890000D02*
X149940000Y-85130000D01*
X145299000Y-74890000D02*
X145299000Y-85130000D01*
X149940000Y-74890000D02*
X145299000Y-74890000D01*
X149940000Y-85130000D02*
X145299000Y-85130000D01*
X148430000Y-74890000D02*
X148430000Y-85130000D01*
X149940000Y-78160000D02*
X148430000Y-78160000D01*
X149940000Y-81861000D02*
X148430000Y-81861000D01*
X168950000Y-78820000D02*
X158710000Y-78820000D01*
X168950000Y-74179000D02*
X158710000Y-74179000D01*
X168950000Y-78820000D02*
X168950000Y-74179000D01*
X158710000Y-78820000D02*
X158710000Y-74179000D01*
X168950000Y-77310000D02*
X158710000Y-77310000D01*
X165680000Y-78820000D02*
X165680000Y-77310000D01*
X161979000Y-78820000D02*
X161979000Y-77310000D01*
X94580000Y-51680000D02*
X93380000Y-51680000D01*
X93380000Y-49920000D02*
X94580000Y-49920000D01*
X94580000Y-54220000D02*
X93380000Y-54220000D01*
X93380000Y-52460000D02*
X94580000Y-52460000D01*
X155327114Y-66098790D02*
X150127114Y-66098790D01*
X150127114Y-62458790D02*
X155327114Y-62458790D01*
X160690000Y-58810000D02*
X161890000Y-58810000D01*
X161890000Y-60570000D02*
X160690000Y-60570000D01*
X86750000Y-86880000D02*
X86750000Y-85680000D01*
X88510000Y-85680000D02*
X88510000Y-86880000D01*
X125340000Y-86950000D02*
X125340000Y-88150000D01*
X123580000Y-88150000D02*
X123580000Y-86950000D01*
X119798546Y-82589034D02*
X118598546Y-82589034D01*
X118598546Y-80829034D02*
X119798546Y-80829034D01*
X89290000Y-86880000D02*
X89290000Y-85680000D01*
X91050000Y-85680000D02*
X91050000Y-86880000D01*
X132830000Y-84210000D02*
X134030000Y-84210000D01*
X134030000Y-85970000D02*
X132830000Y-85970000D01*
X133918546Y-80829034D02*
X135118546Y-80829034D01*
X135118546Y-82589034D02*
X133918546Y-82589034D01*
X124668546Y-69370000D02*
X124668546Y-68170000D01*
X126428546Y-68170000D02*
X126428546Y-69370000D01*
X114460117Y-130661117D02*
G75*
G03X114460117Y-130661117I-3060000J0D01*
G01*
X108340117Y-130661117D02*
X105280117Y-130661117D01*
X114460117Y-123041117D02*
G75*
G03X114460117Y-123041117I-3060000J0D01*
G01*
X108340117Y-123041117D02*
X105280117Y-123041117D01*
X114460117Y-115421117D02*
G75*
G03X114460117Y-115421117I-3060000J0D01*
G01*
X108340117Y-115421117D02*
X105280117Y-115421117D01*
X114460117Y-107801117D02*
G75*
G03X114460117Y-107801117I-3060000J0D01*
G01*
X108340117Y-107801117D02*
X105280117Y-107801117D01*
X114460117Y-100181117D02*
G75*
G03X114460117Y-100181117I-3060000J0D01*
G01*
X108340117Y-100181117D02*
X105280117Y-100181117D01*
X127160117Y-130661117D02*
G75*
G03X127160117Y-130661117I-3060000J0D01*
G01*
X121040117Y-130661117D02*
X117980117Y-130661117D01*
X127160117Y-123041117D02*
G75*
G03X127160117Y-123041117I-3060000J0D01*
G01*
X121040117Y-123041117D02*
X117980117Y-123041117D01*
X127160117Y-115421117D02*
G75*
G03X127160117Y-115421117I-3060000J0D01*
G01*
X121040117Y-115421117D02*
X117980117Y-115421117D01*
X127160117Y-107801117D02*
G75*
G03X127160117Y-107801117I-3060000J0D01*
G01*
X121040117Y-107801117D02*
X117980117Y-107801117D01*
X127160117Y-100181117D02*
G75*
G03X127160117Y-100181117I-3060000J0D01*
G01*
X121040117Y-100181117D02*
X117980117Y-100181117D01*
X141130117Y-130661117D02*
G75*
G03X141130117Y-130661117I-3060000J0D01*
G01*
X135010117Y-130661117D02*
X131950117Y-130661117D01*
X141130117Y-123041117D02*
G75*
G03X141130117Y-123041117I-3060000J0D01*
G01*
X135010117Y-123041117D02*
X131950117Y-123041117D01*
X141130117Y-115421117D02*
G75*
G03X141130117Y-115421117I-3060000J0D01*
G01*
X135010117Y-115421117D02*
X131950117Y-115421117D01*
X141130117Y-107801117D02*
G75*
G03X141130117Y-107801117I-3060000J0D01*
G01*
X135010117Y-107801117D02*
X131950117Y-107801117D01*
X141130117Y-100181117D02*
G75*
G03X141130117Y-100181117I-3060000J0D01*
G01*
X135010117Y-100181117D02*
X131950117Y-100181117D01*
X153830117Y-130661117D02*
G75*
G03X153830117Y-130661117I-3060000J0D01*
G01*
X147710117Y-130661117D02*
X144650117Y-130661117D01*
X153830117Y-123041117D02*
G75*
G03X153830117Y-123041117I-3060000J0D01*
G01*
X147710117Y-123041117D02*
X144650117Y-123041117D01*
X153830117Y-115421117D02*
G75*
G03X153830117Y-115421117I-3060000J0D01*
G01*
X147710117Y-115421117D02*
X144650117Y-115421117D01*
X153830117Y-107801117D02*
G75*
G03X153830117Y-107801117I-3060000J0D01*
G01*
X147710117Y-107801117D02*
X144650117Y-107801117D01*
X153830117Y-100181117D02*
G75*
G03X153830117Y-100181117I-3060000J0D01*
G01*
X147710117Y-100181117D02*
X144650117Y-100181117D01*
X167980000Y-59240000D02*
X167980000Y-57440000D01*
X164760000Y-57440000D02*
X164760000Y-60390000D01*
D13*
X122368546Y-81404034D02*
X122393546Y-81404034D01*
X122368546Y-77254034D02*
X122483546Y-77254034D01*
X131268546Y-77254034D02*
X131153546Y-77254034D01*
X131268546Y-81404034D02*
X131153546Y-81404034D01*
X122368546Y-81404034D02*
X122368546Y-77254034D01*
X131268546Y-81404034D02*
X131268546Y-77254034D01*
X122393546Y-81404034D02*
X122393546Y-82779034D01*
D12*
X161870000Y-113560000D02*
X161870000Y-109960000D01*
X161142795Y-114084184D02*
G75*
G03X161870000Y-113560000I-1122795J2324184D01*
G01*
X158921193Y-114116400D02*
G75*
G02X157420000Y-111760000I1098807J2356400D01*
G01*
X158921193Y-109403600D02*
G75*
G03X157420000Y-111760000I1098807J-2356400D01*
G01*
X161142795Y-109435816D02*
G75*
G02X161870000Y-109960000I-1122795J-2324184D01*
G01*
X95830000Y-81810000D02*
X95830000Y-78210000D01*
X95102795Y-82334184D02*
G75*
G03X95830000Y-81810000I-1122795J2324184D01*
G01*
X92881193Y-82366400D02*
G75*
G02X91380000Y-80010000I1098807J2356400D01*
G01*
X92881193Y-77653600D02*
G75*
G03X91380000Y-80010000I1098807J-2356400D01*
G01*
X95102795Y-77685816D02*
G75*
G02X95830000Y-78210000I-1122795J-2324184D01*
G01*
X153090000Y-79480000D02*
X153090000Y-83080000D01*
X153817205Y-78955816D02*
G75*
G03X153090000Y-79480000I1122795J-2324184D01*
G01*
X156038807Y-78923600D02*
G75*
G02X157540000Y-81280000I-1098807J-2356400D01*
G01*
X156038807Y-83636400D02*
G75*
G03X157540000Y-81280000I-1098807J2356400D01*
G01*
X153817205Y-83604184D02*
G75*
G02X153090000Y-83080000I1122795J2324184D01*
G01*
D13*
X87318718Y-64924100D02*
X87318718Y-64899100D01*
X83168718Y-64924100D02*
X83168718Y-64819100D01*
X83168718Y-54774100D02*
X83168718Y-54879100D01*
X87318718Y-54774100D02*
X87318718Y-54879100D01*
X87318718Y-64924100D02*
X83168718Y-64924100D01*
X87318718Y-54774100D02*
X83168718Y-54774100D01*
X87318718Y-64899100D02*
X88693718Y-64899100D01*
D12*
X120050000Y-59730000D02*
X121250000Y-59730000D01*
X120650000Y-60330000D02*
X120650000Y-59130000D01*
X121750000Y-63730000D02*
X122150000Y-63730000D01*
X122150000Y-63730000D02*
X124050000Y-62130000D01*
X124050000Y-62130000D02*
X124050000Y-59030000D01*
X119550000Y-63730000D02*
X119150000Y-63730000D01*
X119150000Y-63730000D02*
X117250000Y-62130000D01*
X117250000Y-62130000D02*
X117250000Y-59030000D01*
X120650000Y-55630000D02*
X122250000Y-55630000D01*
X120650000Y-55630000D02*
X119050000Y-55630000D01*
X128940000Y-59730000D02*
X130140000Y-59730000D01*
X129540000Y-60330000D02*
X129540000Y-59130000D01*
X130640000Y-63730000D02*
X131040000Y-63730000D01*
X131040000Y-63730000D02*
X132940000Y-62130000D01*
X132940000Y-62130000D02*
X132940000Y-59030000D01*
X128440000Y-63730000D02*
X128040000Y-63730000D01*
X128040000Y-63730000D02*
X126140000Y-62130000D01*
X126140000Y-62130000D02*
X126140000Y-59030000D01*
X129540000Y-55630000D02*
X131140000Y-55630000D01*
X129540000Y-55630000D02*
X127940000Y-55630000D01*
X84210000Y-86880000D02*
X84210000Y-85680000D01*
X85970000Y-85680000D02*
X85970000Y-86880000D01*
X81670000Y-86880000D02*
X81670000Y-85680000D01*
X83430000Y-85680000D02*
X83430000Y-86880000D01*
X79130000Y-86880000D02*
X79130000Y-85680000D01*
X80890000Y-85680000D02*
X80890000Y-86880000D01*
X76590000Y-86880000D02*
X76590000Y-85680000D01*
X78350000Y-85680000D02*
X78350000Y-86880000D01*
X178190000Y-86980000D02*
X178190000Y-85780000D01*
X179950000Y-85780000D02*
X179950000Y-86980000D01*
X180730000Y-86960000D02*
X180730000Y-85760000D01*
X182490000Y-85760000D02*
X182490000Y-86960000D01*
D13*
X58181000Y-111558999D02*
X100449000Y-111559000D01*
X100449000Y-111559000D02*
X100449000Y-91641001D01*
X100449000Y-91641001D02*
X58181000Y-91641000D01*
X58181000Y-91641000D02*
X58181000Y-98280334D01*
X58181000Y-98280334D02*
X58631000Y-98280334D01*
X58631000Y-98280334D02*
X58631000Y-104919666D01*
X58631000Y-104919666D02*
X58181000Y-104919666D01*
X58181000Y-104919666D02*
X58181000Y-111558999D01*
D12*
X64516000Y-53340000D02*
G75*
G03X64516000Y-53340000I-2286000J0D01*
G01*
X63246000Y-142240000D02*
G75*
G03X63246000Y-142240000I-2286000J0D01*
G01*
D13*
X246983334Y-58297143D02*
X246935715Y-58344762D01*
X246792858Y-58392381D01*
X246697620Y-58392381D01*
X246554762Y-58344762D01*
X246459524Y-58249524D01*
X246411905Y-58154286D01*
X246364286Y-57963810D01*
X246364286Y-57820952D01*
X246411905Y-57630476D01*
X246459524Y-57535238D01*
X246554762Y-57440000D01*
X246697620Y-57392381D01*
X246792858Y-57392381D01*
X246935715Y-57440000D01*
X246983334Y-57487619D01*
X247745239Y-57868571D02*
X247888096Y-57916190D01*
X247935715Y-57963810D01*
X247983334Y-58059048D01*
X247983334Y-58201905D01*
X247935715Y-58297143D01*
X247888096Y-58344762D01*
X247792858Y-58392381D01*
X247411905Y-58392381D01*
X247411905Y-57392381D01*
X247745239Y-57392381D01*
X247840477Y-57440000D01*
X247888096Y-57487619D01*
X247935715Y-57582857D01*
X247935715Y-57678095D01*
X247888096Y-57773333D01*
X247840477Y-57820952D01*
X247745239Y-57868571D01*
X247411905Y-57868571D01*
X248935715Y-58392381D02*
X248364286Y-58392381D01*
X248650000Y-58392381D02*
X248650000Y-57392381D01*
X248554762Y-57535238D01*
X248459524Y-57630476D01*
X248364286Y-57678095D01*
X249392381Y-82541905D02*
X250201905Y-82541905D01*
X250297143Y-82494286D01*
X250344762Y-82446667D01*
X250392381Y-82351429D01*
X250392381Y-82160952D01*
X250344762Y-82065714D01*
X250297143Y-82018095D01*
X250201905Y-81970476D01*
X249392381Y-81970476D01*
X249868571Y-81160952D02*
X249916190Y-81018095D01*
X249963810Y-80970476D01*
X250059048Y-80922857D01*
X250201905Y-80922857D01*
X250297143Y-80970476D01*
X250344762Y-81018095D01*
X250392381Y-81113333D01*
X250392381Y-81494286D01*
X249392381Y-81494286D01*
X249392381Y-81160952D01*
X249440000Y-81065714D01*
X249487619Y-81018095D01*
X249582857Y-80970476D01*
X249678095Y-80970476D01*
X249773333Y-81018095D01*
X249820952Y-81065714D01*
X249868571Y-81160952D01*
X249868571Y-81494286D01*
X249392381Y-80018095D02*
X249392381Y-80494286D01*
X249868571Y-80541905D01*
X249820952Y-80494286D01*
X249773333Y-80399048D01*
X249773333Y-80160952D01*
X249820952Y-80065714D01*
X249868571Y-80018095D01*
X249963810Y-79970476D01*
X250201905Y-79970476D01*
X250297143Y-80018095D01*
X250344762Y-80065714D01*
X250392381Y-80160952D01*
X250392381Y-80399048D01*
X250344762Y-80494286D01*
X250297143Y-80541905D01*
X242927619Y-80605238D02*
X242880000Y-80700476D01*
X242784762Y-80795714D01*
X242641905Y-80938571D01*
X242594286Y-81033810D01*
X242594286Y-81129048D01*
X242832381Y-81081429D02*
X242784762Y-81176667D01*
X242689524Y-81271905D01*
X242499048Y-81319524D01*
X242165714Y-81319524D01*
X241975238Y-81271905D01*
X241880000Y-81176667D01*
X241832381Y-81081429D01*
X241832381Y-80890952D01*
X241880000Y-80795714D01*
X241975238Y-80700476D01*
X242165714Y-80652857D01*
X242499048Y-80652857D01*
X242689524Y-80700476D01*
X242784762Y-80795714D01*
X242832381Y-80890952D01*
X242832381Y-81081429D01*
X242308571Y-79890952D02*
X242356190Y-79748095D01*
X242403810Y-79700476D01*
X242499048Y-79652857D01*
X242641905Y-79652857D01*
X242737143Y-79700476D01*
X242784762Y-79748095D01*
X242832381Y-79843333D01*
X242832381Y-80224286D01*
X241832381Y-80224286D01*
X241832381Y-79890952D01*
X241880000Y-79795714D01*
X241927619Y-79748095D01*
X242022857Y-79700476D01*
X242118095Y-79700476D01*
X242213333Y-79748095D01*
X242260952Y-79795714D01*
X242308571Y-79890952D01*
X242308571Y-80224286D01*
X241832381Y-79319524D02*
X241832381Y-78700476D01*
X242213333Y-79033810D01*
X242213333Y-78890952D01*
X242260952Y-78795714D01*
X242308571Y-78748095D01*
X242403810Y-78700476D01*
X242641905Y-78700476D01*
X242737143Y-78748095D01*
X242784762Y-78795714D01*
X242832381Y-78890952D01*
X242832381Y-79176667D01*
X242784762Y-79271905D01*
X242737143Y-79319524D01*
X236781070Y-104693498D02*
X236447736Y-104217307D01*
X236209641Y-104693498D02*
X236209641Y-103693498D01*
X236590594Y-103693498D01*
X236685832Y-103741117D01*
X236733451Y-103788736D01*
X236781070Y-103883974D01*
X236781070Y-104026831D01*
X236733451Y-104122069D01*
X236685832Y-104169688D01*
X236590594Y-104217307D01*
X236209641Y-104217307D01*
X237162022Y-104645879D02*
X237304879Y-104693498D01*
X237542975Y-104693498D01*
X237638213Y-104645879D01*
X237685832Y-104598260D01*
X237733451Y-104503022D01*
X237733451Y-104407784D01*
X237685832Y-104312546D01*
X237638213Y-104264927D01*
X237542975Y-104217307D01*
X237352498Y-104169688D01*
X237257260Y-104122069D01*
X237209641Y-104074450D01*
X237162022Y-103979212D01*
X237162022Y-103883974D01*
X237209641Y-103788736D01*
X237257260Y-103741117D01*
X237352498Y-103693498D01*
X237590594Y-103693498D01*
X237733451Y-103741117D01*
X238495356Y-104169688D02*
X238638213Y-104217307D01*
X238685832Y-104264927D01*
X238733451Y-104360165D01*
X238733451Y-104503022D01*
X238685832Y-104598260D01*
X238638213Y-104645879D01*
X238542975Y-104693498D01*
X238162022Y-104693498D01*
X238162022Y-103693498D01*
X238495356Y-103693498D01*
X238590594Y-103741117D01*
X238638213Y-103788736D01*
X238685832Y-103883974D01*
X238685832Y-103979212D01*
X238638213Y-104074450D01*
X238590594Y-104122069D01*
X238495356Y-104169688D01*
X238162022Y-104169688D01*
X239114403Y-103788736D02*
X239162022Y-103741117D01*
X239257260Y-103693498D01*
X239495356Y-103693498D01*
X239590594Y-103741117D01*
X239638213Y-103788736D01*
X239685832Y-103883974D01*
X239685832Y-103979212D01*
X239638213Y-104122069D01*
X239066784Y-104693498D01*
X239685832Y-104693498D01*
X240304879Y-103693498D02*
X240400118Y-103693498D01*
X240495356Y-103741117D01*
X240542975Y-103788736D01*
X240590594Y-103883974D01*
X240638213Y-104074450D01*
X240638213Y-104312546D01*
X240590594Y-104503022D01*
X240542975Y-104598260D01*
X240495356Y-104645879D01*
X240400118Y-104693498D01*
X240304879Y-104693498D01*
X240209641Y-104645879D01*
X240162022Y-104598260D01*
X240114403Y-104503022D01*
X240066784Y-104312546D01*
X240066784Y-104074450D01*
X240114403Y-103883974D01*
X240162022Y-103788736D01*
X240209641Y-103741117D01*
X240304879Y-103693498D01*
X236781070Y-112313498D02*
X236447736Y-111837307D01*
X236209641Y-112313498D02*
X236209641Y-111313498D01*
X236590594Y-111313498D01*
X236685832Y-111361117D01*
X236733451Y-111408736D01*
X236781070Y-111503974D01*
X236781070Y-111646831D01*
X236733451Y-111742069D01*
X236685832Y-111789688D01*
X236590594Y-111837307D01*
X236209641Y-111837307D01*
X237162022Y-112265879D02*
X237304879Y-112313498D01*
X237542975Y-112313498D01*
X237638213Y-112265879D01*
X237685832Y-112218260D01*
X237733451Y-112123022D01*
X237733451Y-112027784D01*
X237685832Y-111932546D01*
X237638213Y-111884927D01*
X237542975Y-111837307D01*
X237352498Y-111789688D01*
X237257260Y-111742069D01*
X237209641Y-111694450D01*
X237162022Y-111599212D01*
X237162022Y-111503974D01*
X237209641Y-111408736D01*
X237257260Y-111361117D01*
X237352498Y-111313498D01*
X237590594Y-111313498D01*
X237733451Y-111361117D01*
X238495356Y-111789688D02*
X238638213Y-111837307D01*
X238685832Y-111884927D01*
X238733451Y-111980165D01*
X238733451Y-112123022D01*
X238685832Y-112218260D01*
X238638213Y-112265879D01*
X238542975Y-112313498D01*
X238162022Y-112313498D01*
X238162022Y-111313498D01*
X238495356Y-111313498D01*
X238590594Y-111361117D01*
X238638213Y-111408736D01*
X238685832Y-111503974D01*
X238685832Y-111599212D01*
X238638213Y-111694450D01*
X238590594Y-111742069D01*
X238495356Y-111789688D01*
X238162022Y-111789688D01*
X239685832Y-112313498D02*
X239114403Y-112313498D01*
X239400117Y-112313498D02*
X239400117Y-111313498D01*
X239304879Y-111456355D01*
X239209641Y-111551593D01*
X239114403Y-111599212D01*
X240162022Y-112313498D02*
X240352498Y-112313498D01*
X240447737Y-112265879D01*
X240495356Y-112218260D01*
X240590594Y-112075403D01*
X240638213Y-111884927D01*
X240638213Y-111503974D01*
X240590594Y-111408736D01*
X240542975Y-111361117D01*
X240447737Y-111313498D01*
X240257260Y-111313498D01*
X240162022Y-111361117D01*
X240114403Y-111408736D01*
X240066784Y-111503974D01*
X240066784Y-111742069D01*
X240114403Y-111837307D01*
X240162022Y-111884927D01*
X240257260Y-111932546D01*
X240447737Y-111932546D01*
X240542975Y-111884927D01*
X240590594Y-111837307D01*
X240638213Y-111742069D01*
X224081070Y-119933498D02*
X223747736Y-119457307D01*
X223509641Y-119933498D02*
X223509641Y-118933498D01*
X223890594Y-118933498D01*
X223985832Y-118981117D01*
X224033451Y-119028736D01*
X224081070Y-119123974D01*
X224081070Y-119266831D01*
X224033451Y-119362069D01*
X223985832Y-119409688D01*
X223890594Y-119457307D01*
X223509641Y-119457307D01*
X224462022Y-119885879D02*
X224604879Y-119933498D01*
X224842975Y-119933498D01*
X224938213Y-119885879D01*
X224985832Y-119838260D01*
X225033451Y-119743022D01*
X225033451Y-119647784D01*
X224985832Y-119552546D01*
X224938213Y-119504927D01*
X224842975Y-119457307D01*
X224652498Y-119409688D01*
X224557260Y-119362069D01*
X224509641Y-119314450D01*
X224462022Y-119219212D01*
X224462022Y-119123974D01*
X224509641Y-119028736D01*
X224557260Y-118981117D01*
X224652498Y-118933498D01*
X224890594Y-118933498D01*
X225033451Y-118981117D01*
X225795356Y-119409688D02*
X225938213Y-119457307D01*
X225985832Y-119504927D01*
X226033451Y-119600165D01*
X226033451Y-119743022D01*
X225985832Y-119838260D01*
X225938213Y-119885879D01*
X225842975Y-119933498D01*
X225462022Y-119933498D01*
X225462022Y-118933498D01*
X225795356Y-118933498D01*
X225890594Y-118981117D01*
X225938213Y-119028736D01*
X225985832Y-119123974D01*
X225985832Y-119219212D01*
X225938213Y-119314450D01*
X225890594Y-119362069D01*
X225795356Y-119409688D01*
X225462022Y-119409688D01*
X226985832Y-119933498D02*
X226414403Y-119933498D01*
X226700117Y-119933498D02*
X226700117Y-118933498D01*
X226604879Y-119076355D01*
X226509641Y-119171593D01*
X226414403Y-119219212D01*
X227319165Y-118933498D02*
X227938213Y-118933498D01*
X227604879Y-119314450D01*
X227747737Y-119314450D01*
X227842975Y-119362069D01*
X227890594Y-119409688D01*
X227938213Y-119504927D01*
X227938213Y-119743022D01*
X227890594Y-119838260D01*
X227842975Y-119885879D01*
X227747737Y-119933498D01*
X227462022Y-119933498D01*
X227366784Y-119885879D01*
X227319165Y-119838260D01*
X224081070Y-112313498D02*
X223747736Y-111837307D01*
X223509641Y-112313498D02*
X223509641Y-111313498D01*
X223890594Y-111313498D01*
X223985832Y-111361117D01*
X224033451Y-111408736D01*
X224081070Y-111503974D01*
X224081070Y-111646831D01*
X224033451Y-111742069D01*
X223985832Y-111789688D01*
X223890594Y-111837307D01*
X223509641Y-111837307D01*
X224462022Y-112265879D02*
X224604879Y-112313498D01*
X224842975Y-112313498D01*
X224938213Y-112265879D01*
X224985832Y-112218260D01*
X225033451Y-112123022D01*
X225033451Y-112027784D01*
X224985832Y-111932546D01*
X224938213Y-111884927D01*
X224842975Y-111837307D01*
X224652498Y-111789688D01*
X224557260Y-111742069D01*
X224509641Y-111694450D01*
X224462022Y-111599212D01*
X224462022Y-111503974D01*
X224509641Y-111408736D01*
X224557260Y-111361117D01*
X224652498Y-111313498D01*
X224890594Y-111313498D01*
X225033451Y-111361117D01*
X225795356Y-111789688D02*
X225938213Y-111837307D01*
X225985832Y-111884927D01*
X226033451Y-111980165D01*
X226033451Y-112123022D01*
X225985832Y-112218260D01*
X225938213Y-112265879D01*
X225842975Y-112313498D01*
X225462022Y-112313498D01*
X225462022Y-111313498D01*
X225795356Y-111313498D01*
X225890594Y-111361117D01*
X225938213Y-111408736D01*
X225985832Y-111503974D01*
X225985832Y-111599212D01*
X225938213Y-111694450D01*
X225890594Y-111742069D01*
X225795356Y-111789688D01*
X225462022Y-111789688D01*
X226985832Y-112313498D02*
X226414403Y-112313498D01*
X226700117Y-112313498D02*
X226700117Y-111313498D01*
X226604879Y-111456355D01*
X226509641Y-111551593D01*
X226414403Y-111599212D01*
X227842975Y-111646831D02*
X227842975Y-112313498D01*
X227604879Y-111265879D02*
X227366784Y-111980165D01*
X227985832Y-111980165D01*
X224081070Y-127553498D02*
X223747736Y-127077307D01*
X223509641Y-127553498D02*
X223509641Y-126553498D01*
X223890594Y-126553498D01*
X223985832Y-126601117D01*
X224033451Y-126648736D01*
X224081070Y-126743974D01*
X224081070Y-126886831D01*
X224033451Y-126982069D01*
X223985832Y-127029688D01*
X223890594Y-127077307D01*
X223509641Y-127077307D01*
X224462022Y-127505879D02*
X224604879Y-127553498D01*
X224842975Y-127553498D01*
X224938213Y-127505879D01*
X224985832Y-127458260D01*
X225033451Y-127363022D01*
X225033451Y-127267784D01*
X224985832Y-127172546D01*
X224938213Y-127124927D01*
X224842975Y-127077307D01*
X224652498Y-127029688D01*
X224557260Y-126982069D01*
X224509641Y-126934450D01*
X224462022Y-126839212D01*
X224462022Y-126743974D01*
X224509641Y-126648736D01*
X224557260Y-126601117D01*
X224652498Y-126553498D01*
X224890594Y-126553498D01*
X225033451Y-126601117D01*
X225795356Y-127029688D02*
X225938213Y-127077307D01*
X225985832Y-127124927D01*
X226033451Y-127220165D01*
X226033451Y-127363022D01*
X225985832Y-127458260D01*
X225938213Y-127505879D01*
X225842975Y-127553498D01*
X225462022Y-127553498D01*
X225462022Y-126553498D01*
X225795356Y-126553498D01*
X225890594Y-126601117D01*
X225938213Y-126648736D01*
X225985832Y-126743974D01*
X225985832Y-126839212D01*
X225938213Y-126934450D01*
X225890594Y-126982069D01*
X225795356Y-127029688D01*
X225462022Y-127029688D01*
X226985832Y-127553498D02*
X226414403Y-127553498D01*
X226700117Y-127553498D02*
X226700117Y-126553498D01*
X226604879Y-126696355D01*
X226509641Y-126791593D01*
X226414403Y-126839212D01*
X227366784Y-126648736D02*
X227414403Y-126601117D01*
X227509641Y-126553498D01*
X227747737Y-126553498D01*
X227842975Y-126601117D01*
X227890594Y-126648736D01*
X227938213Y-126743974D01*
X227938213Y-126839212D01*
X227890594Y-126982069D01*
X227319165Y-127553498D01*
X227938213Y-127553498D01*
X224081070Y-135173498D02*
X223747736Y-134697307D01*
X223509641Y-135173498D02*
X223509641Y-134173498D01*
X223890594Y-134173498D01*
X223985832Y-134221117D01*
X224033451Y-134268736D01*
X224081070Y-134363974D01*
X224081070Y-134506831D01*
X224033451Y-134602069D01*
X223985832Y-134649688D01*
X223890594Y-134697307D01*
X223509641Y-134697307D01*
X224462022Y-135125879D02*
X224604879Y-135173498D01*
X224842975Y-135173498D01*
X224938213Y-135125879D01*
X224985832Y-135078260D01*
X225033451Y-134983022D01*
X225033451Y-134887784D01*
X224985832Y-134792546D01*
X224938213Y-134744927D01*
X224842975Y-134697307D01*
X224652498Y-134649688D01*
X224557260Y-134602069D01*
X224509641Y-134554450D01*
X224462022Y-134459212D01*
X224462022Y-134363974D01*
X224509641Y-134268736D01*
X224557260Y-134221117D01*
X224652498Y-134173498D01*
X224890594Y-134173498D01*
X225033451Y-134221117D01*
X225795356Y-134649688D02*
X225938213Y-134697307D01*
X225985832Y-134744927D01*
X226033451Y-134840165D01*
X226033451Y-134983022D01*
X225985832Y-135078260D01*
X225938213Y-135125879D01*
X225842975Y-135173498D01*
X225462022Y-135173498D01*
X225462022Y-134173498D01*
X225795356Y-134173498D01*
X225890594Y-134221117D01*
X225938213Y-134268736D01*
X225985832Y-134363974D01*
X225985832Y-134459212D01*
X225938213Y-134554450D01*
X225890594Y-134602069D01*
X225795356Y-134649688D01*
X225462022Y-134649688D01*
X226985832Y-135173498D02*
X226414403Y-135173498D01*
X226700117Y-135173498D02*
X226700117Y-134173498D01*
X226604879Y-134316355D01*
X226509641Y-134411593D01*
X226414403Y-134459212D01*
X227938213Y-135173498D02*
X227366784Y-135173498D01*
X227652498Y-135173498D02*
X227652498Y-134173498D01*
X227557260Y-134316355D01*
X227462022Y-134411593D01*
X227366784Y-134459212D01*
X224081070Y-104693498D02*
X223747736Y-104217307D01*
X223509641Y-104693498D02*
X223509641Y-103693498D01*
X223890594Y-103693498D01*
X223985832Y-103741117D01*
X224033451Y-103788736D01*
X224081070Y-103883974D01*
X224081070Y-104026831D01*
X224033451Y-104122069D01*
X223985832Y-104169688D01*
X223890594Y-104217307D01*
X223509641Y-104217307D01*
X224462022Y-104645879D02*
X224604879Y-104693498D01*
X224842975Y-104693498D01*
X224938213Y-104645879D01*
X224985832Y-104598260D01*
X225033451Y-104503022D01*
X225033451Y-104407784D01*
X224985832Y-104312546D01*
X224938213Y-104264927D01*
X224842975Y-104217307D01*
X224652498Y-104169688D01*
X224557260Y-104122069D01*
X224509641Y-104074450D01*
X224462022Y-103979212D01*
X224462022Y-103883974D01*
X224509641Y-103788736D01*
X224557260Y-103741117D01*
X224652498Y-103693498D01*
X224890594Y-103693498D01*
X225033451Y-103741117D01*
X225795356Y-104169688D02*
X225938213Y-104217307D01*
X225985832Y-104264927D01*
X226033451Y-104360165D01*
X226033451Y-104503022D01*
X225985832Y-104598260D01*
X225938213Y-104645879D01*
X225842975Y-104693498D01*
X225462022Y-104693498D01*
X225462022Y-103693498D01*
X225795356Y-103693498D01*
X225890594Y-103741117D01*
X225938213Y-103788736D01*
X225985832Y-103883974D01*
X225985832Y-103979212D01*
X225938213Y-104074450D01*
X225890594Y-104122069D01*
X225795356Y-104169688D01*
X225462022Y-104169688D01*
X226985832Y-104693498D02*
X226414403Y-104693498D01*
X226700117Y-104693498D02*
X226700117Y-103693498D01*
X226604879Y-103836355D01*
X226509641Y-103931593D01*
X226414403Y-103979212D01*
X227890594Y-103693498D02*
X227414403Y-103693498D01*
X227366784Y-104169688D01*
X227414403Y-104122069D01*
X227509641Y-104074450D01*
X227747737Y-104074450D01*
X227842975Y-104122069D01*
X227890594Y-104169688D01*
X227938213Y-104264927D01*
X227938213Y-104503022D01*
X227890594Y-104598260D01*
X227842975Y-104645879D01*
X227747737Y-104693498D01*
X227509641Y-104693498D01*
X227414403Y-104645879D01*
X227366784Y-104598260D01*
X247352381Y-113021905D02*
X248161905Y-113021905D01*
X248257143Y-112974286D01*
X248304762Y-112926667D01*
X248352381Y-112831429D01*
X248352381Y-112640952D01*
X248304762Y-112545714D01*
X248257143Y-112498095D01*
X248161905Y-112450476D01*
X247352381Y-112450476D01*
X247828571Y-111640952D02*
X247876190Y-111498095D01*
X247923810Y-111450476D01*
X248019048Y-111402857D01*
X248161905Y-111402857D01*
X248257143Y-111450476D01*
X248304762Y-111498095D01*
X248352381Y-111593333D01*
X248352381Y-111974286D01*
X247352381Y-111974286D01*
X247352381Y-111640952D01*
X247400000Y-111545714D01*
X247447619Y-111498095D01*
X247542857Y-111450476D01*
X247638095Y-111450476D01*
X247733333Y-111498095D01*
X247780952Y-111545714D01*
X247828571Y-111640952D01*
X247828571Y-111974286D01*
X247352381Y-111069524D02*
X247352381Y-110450476D01*
X247733333Y-110783810D01*
X247733333Y-110640952D01*
X247780952Y-110545714D01*
X247828571Y-110498095D01*
X247923810Y-110450476D01*
X248161905Y-110450476D01*
X248257143Y-110498095D01*
X248304762Y-110545714D01*
X248352381Y-110640952D01*
X248352381Y-110926667D01*
X248304762Y-111021905D01*
X248257143Y-111069524D01*
X236781070Y-127553498D02*
X236447736Y-127077307D01*
X236209641Y-127553498D02*
X236209641Y-126553498D01*
X236590594Y-126553498D01*
X236685832Y-126601117D01*
X236733451Y-126648736D01*
X236781070Y-126743974D01*
X236781070Y-126886831D01*
X236733451Y-126982069D01*
X236685832Y-127029688D01*
X236590594Y-127077307D01*
X236209641Y-127077307D01*
X237162022Y-127505879D02*
X237304879Y-127553498D01*
X237542975Y-127553498D01*
X237638213Y-127505879D01*
X237685832Y-127458260D01*
X237733451Y-127363022D01*
X237733451Y-127267784D01*
X237685832Y-127172546D01*
X237638213Y-127124927D01*
X237542975Y-127077307D01*
X237352498Y-127029688D01*
X237257260Y-126982069D01*
X237209641Y-126934450D01*
X237162022Y-126839212D01*
X237162022Y-126743974D01*
X237209641Y-126648736D01*
X237257260Y-126601117D01*
X237352498Y-126553498D01*
X237590594Y-126553498D01*
X237733451Y-126601117D01*
X238495356Y-127029688D02*
X238638213Y-127077307D01*
X238685832Y-127124927D01*
X238733451Y-127220165D01*
X238733451Y-127363022D01*
X238685832Y-127458260D01*
X238638213Y-127505879D01*
X238542975Y-127553498D01*
X238162022Y-127553498D01*
X238162022Y-126553498D01*
X238495356Y-126553498D01*
X238590594Y-126601117D01*
X238638213Y-126648736D01*
X238685832Y-126743974D01*
X238685832Y-126839212D01*
X238638213Y-126934450D01*
X238590594Y-126982069D01*
X238495356Y-127029688D01*
X238162022Y-127029688D01*
X239685832Y-127553498D02*
X239114403Y-127553498D01*
X239400117Y-127553498D02*
X239400117Y-126553498D01*
X239304879Y-126696355D01*
X239209641Y-126791593D01*
X239114403Y-126839212D01*
X240019165Y-126553498D02*
X240685832Y-126553498D01*
X240257260Y-127553498D01*
X236781070Y-135173498D02*
X236447736Y-134697307D01*
X236209641Y-135173498D02*
X236209641Y-134173498D01*
X236590594Y-134173498D01*
X236685832Y-134221117D01*
X236733451Y-134268736D01*
X236781070Y-134363974D01*
X236781070Y-134506831D01*
X236733451Y-134602069D01*
X236685832Y-134649688D01*
X236590594Y-134697307D01*
X236209641Y-134697307D01*
X237162022Y-135125879D02*
X237304879Y-135173498D01*
X237542975Y-135173498D01*
X237638213Y-135125879D01*
X237685832Y-135078260D01*
X237733451Y-134983022D01*
X237733451Y-134887784D01*
X237685832Y-134792546D01*
X237638213Y-134744927D01*
X237542975Y-134697307D01*
X237352498Y-134649688D01*
X237257260Y-134602069D01*
X237209641Y-134554450D01*
X237162022Y-134459212D01*
X237162022Y-134363974D01*
X237209641Y-134268736D01*
X237257260Y-134221117D01*
X237352498Y-134173498D01*
X237590594Y-134173498D01*
X237733451Y-134221117D01*
X238495356Y-134649688D02*
X238638213Y-134697307D01*
X238685832Y-134744927D01*
X238733451Y-134840165D01*
X238733451Y-134983022D01*
X238685832Y-135078260D01*
X238638213Y-135125879D01*
X238542975Y-135173498D01*
X238162022Y-135173498D01*
X238162022Y-134173498D01*
X238495356Y-134173498D01*
X238590594Y-134221117D01*
X238638213Y-134268736D01*
X238685832Y-134363974D01*
X238685832Y-134459212D01*
X238638213Y-134554450D01*
X238590594Y-134602069D01*
X238495356Y-134649688D01*
X238162022Y-134649688D01*
X239685832Y-135173498D02*
X239114403Y-135173498D01*
X239400117Y-135173498D02*
X239400117Y-134173498D01*
X239304879Y-134316355D01*
X239209641Y-134411593D01*
X239114403Y-134459212D01*
X240542975Y-134173498D02*
X240352498Y-134173498D01*
X240257260Y-134221117D01*
X240209641Y-134268736D01*
X240114403Y-134411593D01*
X240066784Y-134602069D01*
X240066784Y-134983022D01*
X240114403Y-135078260D01*
X240162022Y-135125879D01*
X240257260Y-135173498D01*
X240447737Y-135173498D01*
X240542975Y-135125879D01*
X240590594Y-135078260D01*
X240638213Y-134983022D01*
X240638213Y-134744927D01*
X240590594Y-134649688D01*
X240542975Y-134602069D01*
X240447737Y-134554450D01*
X240257260Y-134554450D01*
X240162022Y-134602069D01*
X240114403Y-134649688D01*
X240066784Y-134744927D01*
X236781070Y-119933498D02*
X236447736Y-119457307D01*
X236209641Y-119933498D02*
X236209641Y-118933498D01*
X236590594Y-118933498D01*
X236685832Y-118981117D01*
X236733451Y-119028736D01*
X236781070Y-119123974D01*
X236781070Y-119266831D01*
X236733451Y-119362069D01*
X236685832Y-119409688D01*
X236590594Y-119457307D01*
X236209641Y-119457307D01*
X237162022Y-119885879D02*
X237304879Y-119933498D01*
X237542975Y-119933498D01*
X237638213Y-119885879D01*
X237685832Y-119838260D01*
X237733451Y-119743022D01*
X237733451Y-119647784D01*
X237685832Y-119552546D01*
X237638213Y-119504927D01*
X237542975Y-119457307D01*
X237352498Y-119409688D01*
X237257260Y-119362069D01*
X237209641Y-119314450D01*
X237162022Y-119219212D01*
X237162022Y-119123974D01*
X237209641Y-119028736D01*
X237257260Y-118981117D01*
X237352498Y-118933498D01*
X237590594Y-118933498D01*
X237733451Y-118981117D01*
X238495356Y-119409688D02*
X238638213Y-119457307D01*
X238685832Y-119504927D01*
X238733451Y-119600165D01*
X238733451Y-119743022D01*
X238685832Y-119838260D01*
X238638213Y-119885879D01*
X238542975Y-119933498D01*
X238162022Y-119933498D01*
X238162022Y-118933498D01*
X238495356Y-118933498D01*
X238590594Y-118981117D01*
X238638213Y-119028736D01*
X238685832Y-119123974D01*
X238685832Y-119219212D01*
X238638213Y-119314450D01*
X238590594Y-119362069D01*
X238495356Y-119409688D01*
X238162022Y-119409688D01*
X239685832Y-119933498D02*
X239114403Y-119933498D01*
X239400117Y-119933498D02*
X239400117Y-118933498D01*
X239304879Y-119076355D01*
X239209641Y-119171593D01*
X239114403Y-119219212D01*
X240257260Y-119362069D02*
X240162022Y-119314450D01*
X240114403Y-119266831D01*
X240066784Y-119171593D01*
X240066784Y-119123974D01*
X240114403Y-119028736D01*
X240162022Y-118981117D01*
X240257260Y-118933498D01*
X240447737Y-118933498D01*
X240542975Y-118981117D01*
X240590594Y-119028736D01*
X240638213Y-119123974D01*
X240638213Y-119171593D01*
X240590594Y-119266831D01*
X240542975Y-119314450D01*
X240447737Y-119362069D01*
X240257260Y-119362069D01*
X240162022Y-119409688D01*
X240114403Y-119457307D01*
X240066784Y-119552546D01*
X240066784Y-119743022D01*
X240114403Y-119838260D01*
X240162022Y-119885879D01*
X240257260Y-119933498D01*
X240447737Y-119933498D01*
X240542975Y-119885879D01*
X240590594Y-119838260D01*
X240638213Y-119743022D01*
X240638213Y-119552546D01*
X240590594Y-119457307D01*
X240542975Y-119409688D01*
X240447737Y-119362069D01*
X256468571Y-113355238D02*
X256516190Y-113212381D01*
X256563810Y-113164762D01*
X256659048Y-113117143D01*
X256801905Y-113117143D01*
X256897143Y-113164762D01*
X256944762Y-113212381D01*
X256992381Y-113307619D01*
X256992381Y-113688572D01*
X255992381Y-113688572D01*
X255992381Y-113355238D01*
X256040000Y-113260000D01*
X256087619Y-113212381D01*
X256182857Y-113164762D01*
X256278095Y-113164762D01*
X256373333Y-113212381D01*
X256420952Y-113260000D01*
X256468571Y-113355238D01*
X256468571Y-113688572D01*
X256706667Y-112736191D02*
X256706667Y-112260000D01*
X256992381Y-112831429D02*
X255992381Y-112498096D01*
X256992381Y-112164762D01*
X255992381Y-111974286D02*
X255992381Y-111402857D01*
X256992381Y-111688572D02*
X255992381Y-111688572D01*
X255992381Y-111212381D02*
X255992381Y-110640952D01*
X256992381Y-110926667D02*
X255992381Y-110926667D01*
X256087619Y-110355238D02*
X256040000Y-110307619D01*
X255992381Y-110212381D01*
X255992381Y-109974285D01*
X256040000Y-109879047D01*
X256087619Y-109831428D01*
X256182857Y-109783809D01*
X256278095Y-109783809D01*
X256420952Y-109831428D01*
X256992381Y-110402857D01*
X256992381Y-109783809D01*
X221583334Y-65127143D02*
X221535715Y-65174762D01*
X221392858Y-65222381D01*
X221297620Y-65222381D01*
X221154762Y-65174762D01*
X221059524Y-65079524D01*
X221011905Y-64984286D01*
X220964286Y-64793810D01*
X220964286Y-64650952D01*
X221011905Y-64460476D01*
X221059524Y-64365238D01*
X221154762Y-64270000D01*
X221297620Y-64222381D01*
X221392858Y-64222381D01*
X221535715Y-64270000D01*
X221583334Y-64317619D01*
X222345239Y-64698571D02*
X222488096Y-64746190D01*
X222535715Y-64793810D01*
X222583334Y-64889048D01*
X222583334Y-65031905D01*
X222535715Y-65127143D01*
X222488096Y-65174762D01*
X222392858Y-65222381D01*
X222011905Y-65222381D01*
X222011905Y-64222381D01*
X222345239Y-64222381D01*
X222440477Y-64270000D01*
X222488096Y-64317619D01*
X222535715Y-64412857D01*
X222535715Y-64508095D01*
X222488096Y-64603333D01*
X222440477Y-64650952D01*
X222345239Y-64698571D01*
X222011905Y-64698571D01*
X222916667Y-64222381D02*
X223535715Y-64222381D01*
X223202381Y-64603333D01*
X223345239Y-64603333D01*
X223440477Y-64650952D01*
X223488096Y-64698571D01*
X223535715Y-64793810D01*
X223535715Y-65031905D01*
X223488096Y-65127143D01*
X223440477Y-65174762D01*
X223345239Y-65222381D01*
X223059524Y-65222381D01*
X222964286Y-65174762D01*
X222916667Y-65127143D01*
X219180451Y-68302381D02*
X219180451Y-67302381D01*
X219418546Y-67302381D01*
X219561404Y-67350000D01*
X219656642Y-67445238D01*
X219704261Y-67540476D01*
X219751880Y-67730952D01*
X219751880Y-67873810D01*
X219704261Y-68064286D01*
X219656642Y-68159524D01*
X219561404Y-68254762D01*
X219418546Y-68302381D01*
X219180451Y-68302381D01*
X220513785Y-67778571D02*
X220656642Y-67826190D01*
X220704261Y-67873810D01*
X220751880Y-67969048D01*
X220751880Y-68111905D01*
X220704261Y-68207143D01*
X220656642Y-68254762D01*
X220561404Y-68302381D01*
X220180451Y-68302381D01*
X220180451Y-67302381D01*
X220513785Y-67302381D01*
X220609023Y-67350000D01*
X220656642Y-67397619D01*
X220704261Y-67492857D01*
X220704261Y-67588095D01*
X220656642Y-67683333D01*
X220609023Y-67730952D01*
X220513785Y-67778571D01*
X220180451Y-67778571D01*
X221656642Y-67302381D02*
X221180451Y-67302381D01*
X221132832Y-67778571D01*
X221180451Y-67730952D01*
X221275689Y-67683333D01*
X221513785Y-67683333D01*
X221609023Y-67730952D01*
X221656642Y-67778571D01*
X221704261Y-67873810D01*
X221704261Y-68111905D01*
X221656642Y-68207143D01*
X221609023Y-68254762D01*
X221513785Y-68302381D01*
X221275689Y-68302381D01*
X221180451Y-68254762D01*
X221132832Y-68207143D01*
X218059334Y-88082381D02*
X218059334Y-87082381D01*
X218297429Y-87082381D01*
X218440287Y-87130000D01*
X218535525Y-87225238D01*
X218583144Y-87320476D01*
X218630763Y-87510952D01*
X218630763Y-87653810D01*
X218583144Y-87844286D01*
X218535525Y-87939524D01*
X218440287Y-88034762D01*
X218297429Y-88082381D01*
X218059334Y-88082381D01*
X219392668Y-87558571D02*
X219535525Y-87606190D01*
X219583144Y-87653810D01*
X219630763Y-87749048D01*
X219630763Y-87891905D01*
X219583144Y-87987143D01*
X219535525Y-88034762D01*
X219440287Y-88082381D01*
X219059334Y-88082381D01*
X219059334Y-87082381D01*
X219392668Y-87082381D01*
X219487906Y-87130000D01*
X219535525Y-87177619D01*
X219583144Y-87272857D01*
X219583144Y-87368095D01*
X219535525Y-87463333D01*
X219487906Y-87510952D01*
X219392668Y-87558571D01*
X219059334Y-87558571D01*
X220011715Y-87177619D02*
X220059334Y-87130000D01*
X220154572Y-87082381D01*
X220392668Y-87082381D01*
X220487906Y-87130000D01*
X220535525Y-87177619D01*
X220583144Y-87272857D01*
X220583144Y-87368095D01*
X220535525Y-87510952D01*
X219964096Y-88082381D01*
X220583144Y-88082381D01*
X227933334Y-80462381D02*
X227600000Y-79986190D01*
X227361905Y-80462381D02*
X227361905Y-79462381D01*
X227742858Y-79462381D01*
X227838096Y-79510000D01*
X227885715Y-79557619D01*
X227933334Y-79652857D01*
X227933334Y-79795714D01*
X227885715Y-79890952D01*
X227838096Y-79938571D01*
X227742858Y-79986190D01*
X227361905Y-79986190D01*
X228695239Y-79938571D02*
X228838096Y-79986190D01*
X228885715Y-80033810D01*
X228933334Y-80129048D01*
X228933334Y-80271905D01*
X228885715Y-80367143D01*
X228838096Y-80414762D01*
X228742858Y-80462381D01*
X228361905Y-80462381D01*
X228361905Y-79462381D01*
X228695239Y-79462381D01*
X228790477Y-79510000D01*
X228838096Y-79557619D01*
X228885715Y-79652857D01*
X228885715Y-79748095D01*
X228838096Y-79843333D01*
X228790477Y-79890952D01*
X228695239Y-79938571D01*
X228361905Y-79938571D01*
X229504762Y-79890952D02*
X229409524Y-79843333D01*
X229361905Y-79795714D01*
X229314286Y-79700476D01*
X229314286Y-79652857D01*
X229361905Y-79557619D01*
X229409524Y-79510000D01*
X229504762Y-79462381D01*
X229695239Y-79462381D01*
X229790477Y-79510000D01*
X229838096Y-79557619D01*
X229885715Y-79652857D01*
X229885715Y-79700476D01*
X229838096Y-79795714D01*
X229790477Y-79843333D01*
X229695239Y-79890952D01*
X229504762Y-79890952D01*
X229409524Y-79938571D01*
X229361905Y-79986190D01*
X229314286Y-80081429D01*
X229314286Y-80271905D01*
X229361905Y-80367143D01*
X229409524Y-80414762D01*
X229504762Y-80462381D01*
X229695239Y-80462381D01*
X229790477Y-80414762D01*
X229838096Y-80367143D01*
X229885715Y-80271905D01*
X229885715Y-80081429D01*
X229838096Y-79986190D01*
X229790477Y-79938571D01*
X229695239Y-79890952D01*
X216996641Y-79891415D02*
X216996641Y-80700939D01*
X217044260Y-80796177D01*
X217091879Y-80843796D01*
X217187117Y-80891415D01*
X217377594Y-80891415D01*
X217472832Y-80843796D01*
X217520451Y-80796177D01*
X217568070Y-80700939D01*
X217568070Y-79891415D01*
X218377594Y-80367605D02*
X218520451Y-80415224D01*
X218568070Y-80462844D01*
X218615689Y-80558082D01*
X218615689Y-80700939D01*
X218568070Y-80796177D01*
X218520451Y-80843796D01*
X218425213Y-80891415D01*
X218044260Y-80891415D01*
X218044260Y-79891415D01*
X218377594Y-79891415D01*
X218472832Y-79939034D01*
X218520451Y-79986653D01*
X218568070Y-80081891D01*
X218568070Y-80177129D01*
X218520451Y-80272367D01*
X218472832Y-80319986D01*
X218377594Y-80367605D01*
X218044260Y-80367605D01*
X218996641Y-79986653D02*
X219044260Y-79939034D01*
X219139498Y-79891415D01*
X219377594Y-79891415D01*
X219472832Y-79939034D01*
X219520451Y-79986653D01*
X219568070Y-80081891D01*
X219568070Y-80177129D01*
X219520451Y-80319986D01*
X218949022Y-80891415D01*
X219568070Y-80891415D01*
X220313334Y-53792381D02*
X219980000Y-53316190D01*
X219741905Y-53792381D02*
X219741905Y-52792381D01*
X220122858Y-52792381D01*
X220218096Y-52840000D01*
X220265715Y-52887619D01*
X220313334Y-52982857D01*
X220313334Y-53125714D01*
X220265715Y-53220952D01*
X220218096Y-53268571D01*
X220122858Y-53316190D01*
X219741905Y-53316190D01*
X221075239Y-53268571D02*
X221218096Y-53316190D01*
X221265715Y-53363810D01*
X221313334Y-53459048D01*
X221313334Y-53601905D01*
X221265715Y-53697143D01*
X221218096Y-53744762D01*
X221122858Y-53792381D01*
X220741905Y-53792381D01*
X220741905Y-52792381D01*
X221075239Y-52792381D01*
X221170477Y-52840000D01*
X221218096Y-52887619D01*
X221265715Y-52982857D01*
X221265715Y-53078095D01*
X221218096Y-53173333D01*
X221170477Y-53220952D01*
X221075239Y-53268571D01*
X220741905Y-53268571D01*
X221789524Y-53792381D02*
X221980000Y-53792381D01*
X222075239Y-53744762D01*
X222122858Y-53697143D01*
X222218096Y-53554286D01*
X222265715Y-53363810D01*
X222265715Y-52982857D01*
X222218096Y-52887619D01*
X222170477Y-52840000D01*
X222075239Y-52792381D01*
X221884762Y-52792381D01*
X221789524Y-52840000D01*
X221741905Y-52887619D01*
X221694286Y-52982857D01*
X221694286Y-53220952D01*
X221741905Y-53316190D01*
X221789524Y-53363810D01*
X221884762Y-53411429D01*
X222075239Y-53411429D01*
X222170477Y-53363810D01*
X222218096Y-53316190D01*
X222265715Y-53220952D01*
X213812381Y-88296666D02*
X213336190Y-88630000D01*
X213812381Y-88868095D02*
X212812381Y-88868095D01*
X212812381Y-88487142D01*
X212860000Y-88391904D01*
X212907619Y-88344285D01*
X213002857Y-88296666D01*
X213145714Y-88296666D01*
X213240952Y-88344285D01*
X213288571Y-88391904D01*
X213336190Y-88487142D01*
X213336190Y-88868095D01*
X213288571Y-87534761D02*
X213336190Y-87391904D01*
X213383810Y-87344285D01*
X213479048Y-87296666D01*
X213621905Y-87296666D01*
X213717143Y-87344285D01*
X213764762Y-87391904D01*
X213812381Y-87487142D01*
X213812381Y-87868095D01*
X212812381Y-87868095D01*
X212812381Y-87534761D01*
X212860000Y-87439523D01*
X212907619Y-87391904D01*
X213002857Y-87344285D01*
X213098095Y-87344285D01*
X213193333Y-87391904D01*
X213240952Y-87439523D01*
X213288571Y-87534761D01*
X213288571Y-87868095D01*
X213145714Y-86439523D02*
X213812381Y-86439523D01*
X212764762Y-86677619D02*
X213479048Y-86915714D01*
X213479048Y-86296666D01*
X224203334Y-85542381D02*
X223870000Y-85066190D01*
X223631905Y-85542381D02*
X223631905Y-84542381D01*
X224012858Y-84542381D01*
X224108096Y-84590000D01*
X224155715Y-84637619D01*
X224203334Y-84732857D01*
X224203334Y-84875714D01*
X224155715Y-84970952D01*
X224108096Y-85018571D01*
X224012858Y-85066190D01*
X223631905Y-85066190D01*
X224965239Y-85018571D02*
X225108096Y-85066190D01*
X225155715Y-85113810D01*
X225203334Y-85209048D01*
X225203334Y-85351905D01*
X225155715Y-85447143D01*
X225108096Y-85494762D01*
X225012858Y-85542381D01*
X224631905Y-85542381D01*
X224631905Y-84542381D01*
X224965239Y-84542381D01*
X225060477Y-84590000D01*
X225108096Y-84637619D01*
X225155715Y-84732857D01*
X225155715Y-84828095D01*
X225108096Y-84923333D01*
X225060477Y-84970952D01*
X224965239Y-85018571D01*
X224631905Y-85018571D01*
X225536667Y-84542381D02*
X226203334Y-84542381D01*
X225774762Y-85542381D01*
X210587260Y-135173498D02*
X210253926Y-134697307D01*
X210015831Y-135173498D02*
X210015831Y-134173498D01*
X210396784Y-134173498D01*
X210492022Y-134221117D01*
X210539641Y-134268736D01*
X210587260Y-134363974D01*
X210587260Y-134506831D01*
X210539641Y-134602069D01*
X210492022Y-134649688D01*
X210396784Y-134697307D01*
X210015831Y-134697307D01*
X210968212Y-135125879D02*
X211111069Y-135173498D01*
X211349165Y-135173498D01*
X211444403Y-135125879D01*
X211492022Y-135078260D01*
X211539641Y-134983022D01*
X211539641Y-134887784D01*
X211492022Y-134792546D01*
X211444403Y-134744927D01*
X211349165Y-134697307D01*
X211158688Y-134649688D01*
X211063450Y-134602069D01*
X211015831Y-134554450D01*
X210968212Y-134459212D01*
X210968212Y-134363974D01*
X211015831Y-134268736D01*
X211063450Y-134221117D01*
X211158688Y-134173498D01*
X211396784Y-134173498D01*
X211539641Y-134221117D01*
X212301546Y-134649688D02*
X212444403Y-134697307D01*
X212492022Y-134744927D01*
X212539641Y-134840165D01*
X212539641Y-134983022D01*
X212492022Y-135078260D01*
X212444403Y-135125879D01*
X212349165Y-135173498D01*
X211968212Y-135173498D01*
X211968212Y-134173498D01*
X212301546Y-134173498D01*
X212396784Y-134221117D01*
X212444403Y-134268736D01*
X212492022Y-134363974D01*
X212492022Y-134459212D01*
X212444403Y-134554450D01*
X212396784Y-134602069D01*
X212301546Y-134649688D01*
X211968212Y-134649688D01*
X213396784Y-134173498D02*
X213206307Y-134173498D01*
X213111069Y-134221117D01*
X213063450Y-134268736D01*
X212968212Y-134411593D01*
X212920593Y-134602069D01*
X212920593Y-134983022D01*
X212968212Y-135078260D01*
X213015831Y-135125879D01*
X213111069Y-135173498D01*
X213301546Y-135173498D01*
X213396784Y-135125879D01*
X213444403Y-135078260D01*
X213492022Y-134983022D01*
X213492022Y-134744927D01*
X213444403Y-134649688D01*
X213396784Y-134602069D01*
X213301546Y-134554450D01*
X213111069Y-134554450D01*
X213015831Y-134602069D01*
X212968212Y-134649688D01*
X212920593Y-134744927D01*
X197887260Y-127553498D02*
X197553926Y-127077307D01*
X197315831Y-127553498D02*
X197315831Y-126553498D01*
X197696784Y-126553498D01*
X197792022Y-126601117D01*
X197839641Y-126648736D01*
X197887260Y-126743974D01*
X197887260Y-126886831D01*
X197839641Y-126982069D01*
X197792022Y-127029688D01*
X197696784Y-127077307D01*
X197315831Y-127077307D01*
X198268212Y-127505879D02*
X198411069Y-127553498D01*
X198649165Y-127553498D01*
X198744403Y-127505879D01*
X198792022Y-127458260D01*
X198839641Y-127363022D01*
X198839641Y-127267784D01*
X198792022Y-127172546D01*
X198744403Y-127124927D01*
X198649165Y-127077307D01*
X198458688Y-127029688D01*
X198363450Y-126982069D01*
X198315831Y-126934450D01*
X198268212Y-126839212D01*
X198268212Y-126743974D01*
X198315831Y-126648736D01*
X198363450Y-126601117D01*
X198458688Y-126553498D01*
X198696784Y-126553498D01*
X198839641Y-126601117D01*
X199601546Y-127029688D02*
X199744403Y-127077307D01*
X199792022Y-127124927D01*
X199839641Y-127220165D01*
X199839641Y-127363022D01*
X199792022Y-127458260D01*
X199744403Y-127505879D01*
X199649165Y-127553498D01*
X199268212Y-127553498D01*
X199268212Y-126553498D01*
X199601546Y-126553498D01*
X199696784Y-126601117D01*
X199744403Y-126648736D01*
X199792022Y-126743974D01*
X199792022Y-126839212D01*
X199744403Y-126934450D01*
X199696784Y-126982069D01*
X199601546Y-127029688D01*
X199268212Y-127029688D01*
X200220593Y-126648736D02*
X200268212Y-126601117D01*
X200363450Y-126553498D01*
X200601546Y-126553498D01*
X200696784Y-126601117D01*
X200744403Y-126648736D01*
X200792022Y-126743974D01*
X200792022Y-126839212D01*
X200744403Y-126982069D01*
X200172974Y-127553498D01*
X200792022Y-127553498D01*
X210587260Y-127553498D02*
X210253926Y-127077307D01*
X210015831Y-127553498D02*
X210015831Y-126553498D01*
X210396784Y-126553498D01*
X210492022Y-126601117D01*
X210539641Y-126648736D01*
X210587260Y-126743974D01*
X210587260Y-126886831D01*
X210539641Y-126982069D01*
X210492022Y-127029688D01*
X210396784Y-127077307D01*
X210015831Y-127077307D01*
X210968212Y-127505879D02*
X211111069Y-127553498D01*
X211349165Y-127553498D01*
X211444403Y-127505879D01*
X211492022Y-127458260D01*
X211539641Y-127363022D01*
X211539641Y-127267784D01*
X211492022Y-127172546D01*
X211444403Y-127124927D01*
X211349165Y-127077307D01*
X211158688Y-127029688D01*
X211063450Y-126982069D01*
X211015831Y-126934450D01*
X210968212Y-126839212D01*
X210968212Y-126743974D01*
X211015831Y-126648736D01*
X211063450Y-126601117D01*
X211158688Y-126553498D01*
X211396784Y-126553498D01*
X211539641Y-126601117D01*
X212301546Y-127029688D02*
X212444403Y-127077307D01*
X212492022Y-127124927D01*
X212539641Y-127220165D01*
X212539641Y-127363022D01*
X212492022Y-127458260D01*
X212444403Y-127505879D01*
X212349165Y-127553498D01*
X211968212Y-127553498D01*
X211968212Y-126553498D01*
X212301546Y-126553498D01*
X212396784Y-126601117D01*
X212444403Y-126648736D01*
X212492022Y-126743974D01*
X212492022Y-126839212D01*
X212444403Y-126934450D01*
X212396784Y-126982069D01*
X212301546Y-127029688D01*
X211968212Y-127029688D01*
X212872974Y-126553498D02*
X213539641Y-126553498D01*
X213111069Y-127553498D01*
X197887260Y-135173498D02*
X197553926Y-134697307D01*
X197315831Y-135173498D02*
X197315831Y-134173498D01*
X197696784Y-134173498D01*
X197792022Y-134221117D01*
X197839641Y-134268736D01*
X197887260Y-134363974D01*
X197887260Y-134506831D01*
X197839641Y-134602069D01*
X197792022Y-134649688D01*
X197696784Y-134697307D01*
X197315831Y-134697307D01*
X198268212Y-135125879D02*
X198411069Y-135173498D01*
X198649165Y-135173498D01*
X198744403Y-135125879D01*
X198792022Y-135078260D01*
X198839641Y-134983022D01*
X198839641Y-134887784D01*
X198792022Y-134792546D01*
X198744403Y-134744927D01*
X198649165Y-134697307D01*
X198458688Y-134649688D01*
X198363450Y-134602069D01*
X198315831Y-134554450D01*
X198268212Y-134459212D01*
X198268212Y-134363974D01*
X198315831Y-134268736D01*
X198363450Y-134221117D01*
X198458688Y-134173498D01*
X198696784Y-134173498D01*
X198839641Y-134221117D01*
X199601546Y-134649688D02*
X199744403Y-134697307D01*
X199792022Y-134744927D01*
X199839641Y-134840165D01*
X199839641Y-134983022D01*
X199792022Y-135078260D01*
X199744403Y-135125879D01*
X199649165Y-135173498D01*
X199268212Y-135173498D01*
X199268212Y-134173498D01*
X199601546Y-134173498D01*
X199696784Y-134221117D01*
X199744403Y-134268736D01*
X199792022Y-134363974D01*
X199792022Y-134459212D01*
X199744403Y-134554450D01*
X199696784Y-134602069D01*
X199601546Y-134649688D01*
X199268212Y-134649688D01*
X200792022Y-135173498D02*
X200220593Y-135173498D01*
X200506307Y-135173498D02*
X200506307Y-134173498D01*
X200411069Y-134316355D01*
X200315831Y-134411593D01*
X200220593Y-134459212D01*
X242601905Y-73382381D02*
X242601905Y-72382381D01*
X242840000Y-72382381D01*
X242982858Y-72430000D01*
X243078096Y-72525238D01*
X243125715Y-72620476D01*
X243173334Y-72810952D01*
X243173334Y-72953810D01*
X243125715Y-73144286D01*
X243078096Y-73239524D01*
X242982858Y-73334762D01*
X242840000Y-73382381D01*
X242601905Y-73382381D01*
X243935239Y-72858571D02*
X244078096Y-72906190D01*
X244125715Y-72953810D01*
X244173334Y-73049048D01*
X244173334Y-73191905D01*
X244125715Y-73287143D01*
X244078096Y-73334762D01*
X243982858Y-73382381D01*
X243601905Y-73382381D01*
X243601905Y-72382381D01*
X243935239Y-72382381D01*
X244030477Y-72430000D01*
X244078096Y-72477619D01*
X244125715Y-72572857D01*
X244125715Y-72668095D01*
X244078096Y-72763333D01*
X244030477Y-72810952D01*
X243935239Y-72858571D01*
X243601905Y-72858571D01*
X245030477Y-72715714D02*
X245030477Y-73382381D01*
X244792381Y-72334762D02*
X244554286Y-73049048D01*
X245173334Y-73049048D01*
X252063334Y-56332381D02*
X251730000Y-55856190D01*
X251491905Y-56332381D02*
X251491905Y-55332381D01*
X251872858Y-55332381D01*
X251968096Y-55380000D01*
X252015715Y-55427619D01*
X252063334Y-55522857D01*
X252063334Y-55665714D01*
X252015715Y-55760952D01*
X251968096Y-55808571D01*
X251872858Y-55856190D01*
X251491905Y-55856190D01*
X252825239Y-55808571D02*
X252968096Y-55856190D01*
X253015715Y-55903810D01*
X253063334Y-55999048D01*
X253063334Y-56141905D01*
X253015715Y-56237143D01*
X252968096Y-56284762D01*
X252872858Y-56332381D01*
X252491905Y-56332381D01*
X252491905Y-55332381D01*
X252825239Y-55332381D01*
X252920477Y-55380000D01*
X252968096Y-55427619D01*
X253015715Y-55522857D01*
X253015715Y-55618095D01*
X252968096Y-55713333D01*
X252920477Y-55760952D01*
X252825239Y-55808571D01*
X252491905Y-55808571D01*
X253444286Y-55427619D02*
X253491905Y-55380000D01*
X253587143Y-55332381D01*
X253825239Y-55332381D01*
X253920477Y-55380000D01*
X253968096Y-55427619D01*
X254015715Y-55522857D01*
X254015715Y-55618095D01*
X253968096Y-55760952D01*
X253396667Y-56332381D01*
X254015715Y-56332381D01*
X254674762Y-80367619D02*
X254579524Y-80320000D01*
X254484286Y-80224762D01*
X254341429Y-80081905D01*
X254246190Y-80034286D01*
X254150952Y-80034286D01*
X254198571Y-80272381D02*
X254103333Y-80224762D01*
X254008095Y-80129524D01*
X253960476Y-79939048D01*
X253960476Y-79605714D01*
X254008095Y-79415238D01*
X254103333Y-79320000D01*
X254198571Y-79272381D01*
X254389048Y-79272381D01*
X254484286Y-79320000D01*
X254579524Y-79415238D01*
X254627143Y-79605714D01*
X254627143Y-79939048D01*
X254579524Y-80129524D01*
X254484286Y-80224762D01*
X254389048Y-80272381D01*
X254198571Y-80272381D01*
X255389048Y-79748571D02*
X255531905Y-79796190D01*
X255579524Y-79843810D01*
X255627143Y-79939048D01*
X255627143Y-80081905D01*
X255579524Y-80177143D01*
X255531905Y-80224762D01*
X255436667Y-80272381D01*
X255055714Y-80272381D01*
X255055714Y-79272381D01*
X255389048Y-79272381D01*
X255484286Y-79320000D01*
X255531905Y-79367619D01*
X255579524Y-79462857D01*
X255579524Y-79558095D01*
X255531905Y-79653333D01*
X255484286Y-79700952D01*
X255389048Y-79748571D01*
X255055714Y-79748571D01*
X256484286Y-79605714D02*
X256484286Y-80272381D01*
X256246190Y-79224762D02*
X256008095Y-79939048D01*
X256627143Y-79939048D01*
X260358095Y-57872381D02*
X260358095Y-58681905D01*
X260405714Y-58777143D01*
X260453333Y-58824762D01*
X260548571Y-58872381D01*
X260739048Y-58872381D01*
X260834286Y-58824762D01*
X260881905Y-58777143D01*
X260929524Y-58681905D01*
X260929524Y-57872381D01*
X261739048Y-58348571D02*
X261881905Y-58396190D01*
X261929524Y-58443810D01*
X261977143Y-58539048D01*
X261977143Y-58681905D01*
X261929524Y-58777143D01*
X261881905Y-58824762D01*
X261786667Y-58872381D01*
X261405714Y-58872381D01*
X261405714Y-57872381D01*
X261739048Y-57872381D01*
X261834286Y-57920000D01*
X261881905Y-57967619D01*
X261929524Y-58062857D01*
X261929524Y-58158095D01*
X261881905Y-58253333D01*
X261834286Y-58300952D01*
X261739048Y-58348571D01*
X261405714Y-58348571D01*
X262929524Y-58872381D02*
X262358095Y-58872381D01*
X262643809Y-58872381D02*
X262643809Y-57872381D01*
X262548571Y-58015238D01*
X262453333Y-58110476D01*
X262358095Y-58158095D01*
X249543334Y-68937143D02*
X249495715Y-68984762D01*
X249352858Y-69032381D01*
X249257620Y-69032381D01*
X249114762Y-68984762D01*
X249019524Y-68889524D01*
X248971905Y-68794286D01*
X248924286Y-68603810D01*
X248924286Y-68460952D01*
X248971905Y-68270476D01*
X249019524Y-68175238D01*
X249114762Y-68080000D01*
X249257620Y-68032381D01*
X249352858Y-68032381D01*
X249495715Y-68080000D01*
X249543334Y-68127619D01*
X250305239Y-68508571D02*
X250448096Y-68556190D01*
X250495715Y-68603810D01*
X250543334Y-68699048D01*
X250543334Y-68841905D01*
X250495715Y-68937143D01*
X250448096Y-68984762D01*
X250352858Y-69032381D01*
X249971905Y-69032381D01*
X249971905Y-68032381D01*
X250305239Y-68032381D01*
X250400477Y-68080000D01*
X250448096Y-68127619D01*
X250495715Y-68222857D01*
X250495715Y-68318095D01*
X250448096Y-68413333D01*
X250400477Y-68460952D01*
X250305239Y-68508571D01*
X249971905Y-68508571D01*
X250924286Y-68127619D02*
X250971905Y-68080000D01*
X251067143Y-68032381D01*
X251305239Y-68032381D01*
X251400477Y-68080000D01*
X251448096Y-68127619D01*
X251495715Y-68222857D01*
X251495715Y-68318095D01*
X251448096Y-68460952D01*
X250876667Y-69032381D01*
X251495715Y-69032381D01*
X262294762Y-64047619D02*
X262199524Y-64000000D01*
X262104286Y-63904762D01*
X261961429Y-63761905D01*
X261866190Y-63714286D01*
X261770952Y-63714286D01*
X261818571Y-63952381D02*
X261723333Y-63904762D01*
X261628095Y-63809524D01*
X261580476Y-63619048D01*
X261580476Y-63285714D01*
X261628095Y-63095238D01*
X261723333Y-63000000D01*
X261818571Y-62952381D01*
X262009048Y-62952381D01*
X262104286Y-63000000D01*
X262199524Y-63095238D01*
X262247143Y-63285714D01*
X262247143Y-63619048D01*
X262199524Y-63809524D01*
X262104286Y-63904762D01*
X262009048Y-63952381D01*
X261818571Y-63952381D01*
X263009048Y-63428571D02*
X263151905Y-63476190D01*
X263199524Y-63523810D01*
X263247143Y-63619048D01*
X263247143Y-63761905D01*
X263199524Y-63857143D01*
X263151905Y-63904762D01*
X263056667Y-63952381D01*
X262675714Y-63952381D01*
X262675714Y-62952381D01*
X263009048Y-62952381D01*
X263104286Y-63000000D01*
X263151905Y-63047619D01*
X263199524Y-63142857D01*
X263199524Y-63238095D01*
X263151905Y-63333333D01*
X263104286Y-63380952D01*
X263009048Y-63428571D01*
X262675714Y-63428571D01*
X264199524Y-63952381D02*
X263628095Y-63952381D01*
X263913809Y-63952381D02*
X263913809Y-62952381D01*
X263818571Y-63095238D01*
X263723333Y-63190476D01*
X263628095Y-63238095D01*
X243500448Y-69032381D02*
X243167114Y-68556190D01*
X242929019Y-69032381D02*
X242929019Y-68032381D01*
X243309972Y-68032381D01*
X243405210Y-68080000D01*
X243452829Y-68127619D01*
X243500448Y-68222857D01*
X243500448Y-68365714D01*
X243452829Y-68460952D01*
X243405210Y-68508571D01*
X243309972Y-68556190D01*
X242929019Y-68556190D01*
X244262353Y-68508571D02*
X244405210Y-68556190D01*
X244452829Y-68603810D01*
X244500448Y-68699048D01*
X244500448Y-68841905D01*
X244452829Y-68937143D01*
X244405210Y-68984762D01*
X244309972Y-69032381D01*
X243929019Y-69032381D01*
X243929019Y-68032381D01*
X244262353Y-68032381D01*
X244357591Y-68080000D01*
X244405210Y-68127619D01*
X244452829Y-68222857D01*
X244452829Y-68318095D01*
X244405210Y-68413333D01*
X244357591Y-68460952D01*
X244262353Y-68508571D01*
X243929019Y-68508571D01*
X245452829Y-69032381D02*
X244881400Y-69032381D01*
X245167114Y-69032381D02*
X245167114Y-68032381D01*
X245071876Y-68175238D01*
X244976638Y-68270476D01*
X244881400Y-68318095D01*
X197887260Y-119933498D02*
X197553926Y-119457307D01*
X197315831Y-119933498D02*
X197315831Y-118933498D01*
X197696784Y-118933498D01*
X197792022Y-118981117D01*
X197839641Y-119028736D01*
X197887260Y-119123974D01*
X197887260Y-119266831D01*
X197839641Y-119362069D01*
X197792022Y-119409688D01*
X197696784Y-119457307D01*
X197315831Y-119457307D01*
X198268212Y-119885879D02*
X198411069Y-119933498D01*
X198649165Y-119933498D01*
X198744403Y-119885879D01*
X198792022Y-119838260D01*
X198839641Y-119743022D01*
X198839641Y-119647784D01*
X198792022Y-119552546D01*
X198744403Y-119504927D01*
X198649165Y-119457307D01*
X198458688Y-119409688D01*
X198363450Y-119362069D01*
X198315831Y-119314450D01*
X198268212Y-119219212D01*
X198268212Y-119123974D01*
X198315831Y-119028736D01*
X198363450Y-118981117D01*
X198458688Y-118933498D01*
X198696784Y-118933498D01*
X198839641Y-118981117D01*
X199601546Y-119409688D02*
X199744403Y-119457307D01*
X199792022Y-119504927D01*
X199839641Y-119600165D01*
X199839641Y-119743022D01*
X199792022Y-119838260D01*
X199744403Y-119885879D01*
X199649165Y-119933498D01*
X199268212Y-119933498D01*
X199268212Y-118933498D01*
X199601546Y-118933498D01*
X199696784Y-118981117D01*
X199744403Y-119028736D01*
X199792022Y-119123974D01*
X199792022Y-119219212D01*
X199744403Y-119314450D01*
X199696784Y-119362069D01*
X199601546Y-119409688D01*
X199268212Y-119409688D01*
X200172974Y-118933498D02*
X200792022Y-118933498D01*
X200458688Y-119314450D01*
X200601546Y-119314450D01*
X200696784Y-119362069D01*
X200744403Y-119409688D01*
X200792022Y-119504927D01*
X200792022Y-119743022D01*
X200744403Y-119838260D01*
X200696784Y-119885879D01*
X200601546Y-119933498D01*
X200315831Y-119933498D01*
X200220593Y-119885879D01*
X200172974Y-119838260D01*
X210587260Y-112313498D02*
X210253926Y-111837307D01*
X210015831Y-112313498D02*
X210015831Y-111313498D01*
X210396784Y-111313498D01*
X210492022Y-111361117D01*
X210539641Y-111408736D01*
X210587260Y-111503974D01*
X210587260Y-111646831D01*
X210539641Y-111742069D01*
X210492022Y-111789688D01*
X210396784Y-111837307D01*
X210015831Y-111837307D01*
X210968212Y-112265879D02*
X211111069Y-112313498D01*
X211349165Y-112313498D01*
X211444403Y-112265879D01*
X211492022Y-112218260D01*
X211539641Y-112123022D01*
X211539641Y-112027784D01*
X211492022Y-111932546D01*
X211444403Y-111884927D01*
X211349165Y-111837307D01*
X211158688Y-111789688D01*
X211063450Y-111742069D01*
X211015831Y-111694450D01*
X210968212Y-111599212D01*
X210968212Y-111503974D01*
X211015831Y-111408736D01*
X211063450Y-111361117D01*
X211158688Y-111313498D01*
X211396784Y-111313498D01*
X211539641Y-111361117D01*
X212301546Y-111789688D02*
X212444403Y-111837307D01*
X212492022Y-111884927D01*
X212539641Y-111980165D01*
X212539641Y-112123022D01*
X212492022Y-112218260D01*
X212444403Y-112265879D01*
X212349165Y-112313498D01*
X211968212Y-112313498D01*
X211968212Y-111313498D01*
X212301546Y-111313498D01*
X212396784Y-111361117D01*
X212444403Y-111408736D01*
X212492022Y-111503974D01*
X212492022Y-111599212D01*
X212444403Y-111694450D01*
X212396784Y-111742069D01*
X212301546Y-111789688D01*
X211968212Y-111789688D01*
X213015831Y-112313498D02*
X213206307Y-112313498D01*
X213301546Y-112265879D01*
X213349165Y-112218260D01*
X213444403Y-112075403D01*
X213492022Y-111884927D01*
X213492022Y-111503974D01*
X213444403Y-111408736D01*
X213396784Y-111361117D01*
X213301546Y-111313498D01*
X213111069Y-111313498D01*
X213015831Y-111361117D01*
X212968212Y-111408736D01*
X212920593Y-111503974D01*
X212920593Y-111742069D01*
X212968212Y-111837307D01*
X213015831Y-111884927D01*
X213111069Y-111932546D01*
X213301546Y-111932546D01*
X213396784Y-111884927D01*
X213444403Y-111837307D01*
X213492022Y-111742069D01*
X197887260Y-112313498D02*
X197553926Y-111837307D01*
X197315831Y-112313498D02*
X197315831Y-111313498D01*
X197696784Y-111313498D01*
X197792022Y-111361117D01*
X197839641Y-111408736D01*
X197887260Y-111503974D01*
X197887260Y-111646831D01*
X197839641Y-111742069D01*
X197792022Y-111789688D01*
X197696784Y-111837307D01*
X197315831Y-111837307D01*
X198268212Y-112265879D02*
X198411069Y-112313498D01*
X198649165Y-112313498D01*
X198744403Y-112265879D01*
X198792022Y-112218260D01*
X198839641Y-112123022D01*
X198839641Y-112027784D01*
X198792022Y-111932546D01*
X198744403Y-111884927D01*
X198649165Y-111837307D01*
X198458688Y-111789688D01*
X198363450Y-111742069D01*
X198315831Y-111694450D01*
X198268212Y-111599212D01*
X198268212Y-111503974D01*
X198315831Y-111408736D01*
X198363450Y-111361117D01*
X198458688Y-111313498D01*
X198696784Y-111313498D01*
X198839641Y-111361117D01*
X199601546Y-111789688D02*
X199744403Y-111837307D01*
X199792022Y-111884927D01*
X199839641Y-111980165D01*
X199839641Y-112123022D01*
X199792022Y-112218260D01*
X199744403Y-112265879D01*
X199649165Y-112313498D01*
X199268212Y-112313498D01*
X199268212Y-111313498D01*
X199601546Y-111313498D01*
X199696784Y-111361117D01*
X199744403Y-111408736D01*
X199792022Y-111503974D01*
X199792022Y-111599212D01*
X199744403Y-111694450D01*
X199696784Y-111742069D01*
X199601546Y-111789688D01*
X199268212Y-111789688D01*
X200696784Y-111646831D02*
X200696784Y-112313498D01*
X200458688Y-111265879D02*
X200220593Y-111980165D01*
X200839641Y-111980165D01*
X210587260Y-119933498D02*
X210253926Y-119457307D01*
X210015831Y-119933498D02*
X210015831Y-118933498D01*
X210396784Y-118933498D01*
X210492022Y-118981117D01*
X210539641Y-119028736D01*
X210587260Y-119123974D01*
X210587260Y-119266831D01*
X210539641Y-119362069D01*
X210492022Y-119409688D01*
X210396784Y-119457307D01*
X210015831Y-119457307D01*
X210968212Y-119885879D02*
X211111069Y-119933498D01*
X211349165Y-119933498D01*
X211444403Y-119885879D01*
X211492022Y-119838260D01*
X211539641Y-119743022D01*
X211539641Y-119647784D01*
X211492022Y-119552546D01*
X211444403Y-119504927D01*
X211349165Y-119457307D01*
X211158688Y-119409688D01*
X211063450Y-119362069D01*
X211015831Y-119314450D01*
X210968212Y-119219212D01*
X210968212Y-119123974D01*
X211015831Y-119028736D01*
X211063450Y-118981117D01*
X211158688Y-118933498D01*
X211396784Y-118933498D01*
X211539641Y-118981117D01*
X212301546Y-119409688D02*
X212444403Y-119457307D01*
X212492022Y-119504927D01*
X212539641Y-119600165D01*
X212539641Y-119743022D01*
X212492022Y-119838260D01*
X212444403Y-119885879D01*
X212349165Y-119933498D01*
X211968212Y-119933498D01*
X211968212Y-118933498D01*
X212301546Y-118933498D01*
X212396784Y-118981117D01*
X212444403Y-119028736D01*
X212492022Y-119123974D01*
X212492022Y-119219212D01*
X212444403Y-119314450D01*
X212396784Y-119362069D01*
X212301546Y-119409688D01*
X211968212Y-119409688D01*
X213111069Y-119362069D02*
X213015831Y-119314450D01*
X212968212Y-119266831D01*
X212920593Y-119171593D01*
X212920593Y-119123974D01*
X212968212Y-119028736D01*
X213015831Y-118981117D01*
X213111069Y-118933498D01*
X213301546Y-118933498D01*
X213396784Y-118981117D01*
X213444403Y-119028736D01*
X213492022Y-119123974D01*
X213492022Y-119171593D01*
X213444403Y-119266831D01*
X213396784Y-119314450D01*
X213301546Y-119362069D01*
X213111069Y-119362069D01*
X213015831Y-119409688D01*
X212968212Y-119457307D01*
X212920593Y-119552546D01*
X212920593Y-119743022D01*
X212968212Y-119838260D01*
X213015831Y-119885879D01*
X213111069Y-119933498D01*
X213301546Y-119933498D01*
X213396784Y-119885879D01*
X213444403Y-119838260D01*
X213492022Y-119743022D01*
X213492022Y-119552546D01*
X213444403Y-119457307D01*
X213396784Y-119409688D01*
X213301546Y-119362069D01*
X197887260Y-104693498D02*
X197553926Y-104217307D01*
X197315831Y-104693498D02*
X197315831Y-103693498D01*
X197696784Y-103693498D01*
X197792022Y-103741117D01*
X197839641Y-103788736D01*
X197887260Y-103883974D01*
X197887260Y-104026831D01*
X197839641Y-104122069D01*
X197792022Y-104169688D01*
X197696784Y-104217307D01*
X197315831Y-104217307D01*
X198268212Y-104645879D02*
X198411069Y-104693498D01*
X198649165Y-104693498D01*
X198744403Y-104645879D01*
X198792022Y-104598260D01*
X198839641Y-104503022D01*
X198839641Y-104407784D01*
X198792022Y-104312546D01*
X198744403Y-104264927D01*
X198649165Y-104217307D01*
X198458688Y-104169688D01*
X198363450Y-104122069D01*
X198315831Y-104074450D01*
X198268212Y-103979212D01*
X198268212Y-103883974D01*
X198315831Y-103788736D01*
X198363450Y-103741117D01*
X198458688Y-103693498D01*
X198696784Y-103693498D01*
X198839641Y-103741117D01*
X199601546Y-104169688D02*
X199744403Y-104217307D01*
X199792022Y-104264927D01*
X199839641Y-104360165D01*
X199839641Y-104503022D01*
X199792022Y-104598260D01*
X199744403Y-104645879D01*
X199649165Y-104693498D01*
X199268212Y-104693498D01*
X199268212Y-103693498D01*
X199601546Y-103693498D01*
X199696784Y-103741117D01*
X199744403Y-103788736D01*
X199792022Y-103883974D01*
X199792022Y-103979212D01*
X199744403Y-104074450D01*
X199696784Y-104122069D01*
X199601546Y-104169688D01*
X199268212Y-104169688D01*
X200744403Y-103693498D02*
X200268212Y-103693498D01*
X200220593Y-104169688D01*
X200268212Y-104122069D01*
X200363450Y-104074450D01*
X200601546Y-104074450D01*
X200696784Y-104122069D01*
X200744403Y-104169688D01*
X200792022Y-104264927D01*
X200792022Y-104503022D01*
X200744403Y-104598260D01*
X200696784Y-104645879D01*
X200601546Y-104693498D01*
X200363450Y-104693498D01*
X200268212Y-104645879D01*
X200220593Y-104598260D01*
X210111070Y-104693498D02*
X209777736Y-104217307D01*
X209539641Y-104693498D02*
X209539641Y-103693498D01*
X209920594Y-103693498D01*
X210015832Y-103741117D01*
X210063451Y-103788736D01*
X210111070Y-103883974D01*
X210111070Y-104026831D01*
X210063451Y-104122069D01*
X210015832Y-104169688D01*
X209920594Y-104217307D01*
X209539641Y-104217307D01*
X210492022Y-104645879D02*
X210634879Y-104693498D01*
X210872975Y-104693498D01*
X210968213Y-104645879D01*
X211015832Y-104598260D01*
X211063451Y-104503022D01*
X211063451Y-104407784D01*
X211015832Y-104312546D01*
X210968213Y-104264927D01*
X210872975Y-104217307D01*
X210682498Y-104169688D01*
X210587260Y-104122069D01*
X210539641Y-104074450D01*
X210492022Y-103979212D01*
X210492022Y-103883974D01*
X210539641Y-103788736D01*
X210587260Y-103741117D01*
X210682498Y-103693498D01*
X210920594Y-103693498D01*
X211063451Y-103741117D01*
X211825356Y-104169688D02*
X211968213Y-104217307D01*
X212015832Y-104264927D01*
X212063451Y-104360165D01*
X212063451Y-104503022D01*
X212015832Y-104598260D01*
X211968213Y-104645879D01*
X211872975Y-104693498D01*
X211492022Y-104693498D01*
X211492022Y-103693498D01*
X211825356Y-103693498D01*
X211920594Y-103741117D01*
X211968213Y-103788736D01*
X212015832Y-103883974D01*
X212015832Y-103979212D01*
X211968213Y-104074450D01*
X211920594Y-104122069D01*
X211825356Y-104169688D01*
X211492022Y-104169688D01*
X213015832Y-104693498D02*
X212444403Y-104693498D01*
X212730117Y-104693498D02*
X212730117Y-103693498D01*
X212634879Y-103836355D01*
X212539641Y-103931593D01*
X212444403Y-103979212D01*
X213634879Y-103693498D02*
X213730118Y-103693498D01*
X213825356Y-103741117D01*
X213872975Y-103788736D01*
X213920594Y-103883974D01*
X213968213Y-104074450D01*
X213968213Y-104312546D01*
X213920594Y-104503022D01*
X213872975Y-104598260D01*
X213825356Y-104645879D01*
X213730118Y-104693498D01*
X213634879Y-104693498D01*
X213539641Y-104645879D01*
X213492022Y-104598260D01*
X213444403Y-104503022D01*
X213396784Y-104312546D01*
X213396784Y-104074450D01*
X213444403Y-103883974D01*
X213492022Y-103788736D01*
X213539641Y-103741117D01*
X213634879Y-103693498D01*
X210947143Y-53792381D02*
X210613809Y-53316190D01*
X210375714Y-53792381D02*
X210375714Y-52792381D01*
X210756667Y-52792381D01*
X210851905Y-52840000D01*
X210899524Y-52887619D01*
X210947143Y-52982857D01*
X210947143Y-53125714D01*
X210899524Y-53220952D01*
X210851905Y-53268571D01*
X210756667Y-53316190D01*
X210375714Y-53316190D01*
X211709048Y-53268571D02*
X211851905Y-53316190D01*
X211899524Y-53363810D01*
X211947143Y-53459048D01*
X211947143Y-53601905D01*
X211899524Y-53697143D01*
X211851905Y-53744762D01*
X211756667Y-53792381D01*
X211375714Y-53792381D01*
X211375714Y-52792381D01*
X211709048Y-52792381D01*
X211804286Y-52840000D01*
X211851905Y-52887619D01*
X211899524Y-52982857D01*
X211899524Y-53078095D01*
X211851905Y-53173333D01*
X211804286Y-53220952D01*
X211709048Y-53268571D01*
X211375714Y-53268571D01*
X212899524Y-53792381D02*
X212328095Y-53792381D01*
X212613809Y-53792381D02*
X212613809Y-52792381D01*
X212518571Y-52935238D01*
X212423333Y-53030476D01*
X212328095Y-53078095D01*
X213518571Y-52792381D02*
X213613810Y-52792381D01*
X213709048Y-52840000D01*
X213756667Y-52887619D01*
X213804286Y-52982857D01*
X213851905Y-53173333D01*
X213851905Y-53411429D01*
X213804286Y-53601905D01*
X213756667Y-53697143D01*
X213709048Y-53744762D01*
X213613810Y-53792381D01*
X213518571Y-53792381D01*
X213423333Y-53744762D01*
X213375714Y-53697143D01*
X213328095Y-53601905D01*
X213280476Y-53411429D01*
X213280476Y-53173333D01*
X213328095Y-52982857D01*
X213375714Y-52887619D01*
X213423333Y-52840000D01*
X213518571Y-52792381D01*
X209971880Y-80461415D02*
X209638546Y-79985224D01*
X209400451Y-80461415D02*
X209400451Y-79461415D01*
X209781404Y-79461415D01*
X209876642Y-79509034D01*
X209924261Y-79556653D01*
X209971880Y-79651891D01*
X209971880Y-79794748D01*
X209924261Y-79889986D01*
X209876642Y-79937605D01*
X209781404Y-79985224D01*
X209400451Y-79985224D01*
X210733785Y-79937605D02*
X210876642Y-79985224D01*
X210924261Y-80032844D01*
X210971880Y-80128082D01*
X210971880Y-80270939D01*
X210924261Y-80366177D01*
X210876642Y-80413796D01*
X210781404Y-80461415D01*
X210400451Y-80461415D01*
X210400451Y-79461415D01*
X210733785Y-79461415D01*
X210829023Y-79509034D01*
X210876642Y-79556653D01*
X210924261Y-79651891D01*
X210924261Y-79747129D01*
X210876642Y-79842367D01*
X210829023Y-79889986D01*
X210733785Y-79937605D01*
X210400451Y-79937605D01*
X211876642Y-79461415D02*
X211400451Y-79461415D01*
X211352832Y-79937605D01*
X211400451Y-79889986D01*
X211495689Y-79842367D01*
X211733785Y-79842367D01*
X211829023Y-79889986D01*
X211876642Y-79937605D01*
X211924261Y-80032844D01*
X211924261Y-80270939D01*
X211876642Y-80366177D01*
X211829023Y-80413796D01*
X211733785Y-80461415D01*
X211495689Y-80461415D01*
X211400451Y-80413796D01*
X211352832Y-80366177D01*
X208883334Y-65127143D02*
X208835715Y-65174762D01*
X208692858Y-65222381D01*
X208597620Y-65222381D01*
X208454762Y-65174762D01*
X208359524Y-65079524D01*
X208311905Y-64984286D01*
X208264286Y-64793810D01*
X208264286Y-64650952D01*
X208311905Y-64460476D01*
X208359524Y-64365238D01*
X208454762Y-64270000D01*
X208597620Y-64222381D01*
X208692858Y-64222381D01*
X208835715Y-64270000D01*
X208883334Y-64317619D01*
X209645239Y-64698571D02*
X209788096Y-64746190D01*
X209835715Y-64793810D01*
X209883334Y-64889048D01*
X209883334Y-65031905D01*
X209835715Y-65127143D01*
X209788096Y-65174762D01*
X209692858Y-65222381D01*
X209311905Y-65222381D01*
X209311905Y-64222381D01*
X209645239Y-64222381D01*
X209740477Y-64270000D01*
X209788096Y-64317619D01*
X209835715Y-64412857D01*
X209835715Y-64508095D01*
X209788096Y-64603333D01*
X209740477Y-64650952D01*
X209645239Y-64698571D01*
X209311905Y-64698571D01*
X210740477Y-64555714D02*
X210740477Y-65222381D01*
X210502381Y-64174762D02*
X210264286Y-64889048D01*
X210883334Y-64889048D01*
X217622381Y-74802857D02*
X217146190Y-75136191D01*
X217622381Y-75374286D02*
X216622381Y-75374286D01*
X216622381Y-74993333D01*
X216670000Y-74898095D01*
X216717619Y-74850476D01*
X216812857Y-74802857D01*
X216955714Y-74802857D01*
X217050952Y-74850476D01*
X217098571Y-74898095D01*
X217146190Y-74993333D01*
X217146190Y-75374286D01*
X217098571Y-74040952D02*
X217146190Y-73898095D01*
X217193810Y-73850476D01*
X217289048Y-73802857D01*
X217431905Y-73802857D01*
X217527143Y-73850476D01*
X217574762Y-73898095D01*
X217622381Y-73993333D01*
X217622381Y-74374286D01*
X216622381Y-74374286D01*
X216622381Y-74040952D01*
X216670000Y-73945714D01*
X216717619Y-73898095D01*
X216812857Y-73850476D01*
X216908095Y-73850476D01*
X217003333Y-73898095D01*
X217050952Y-73945714D01*
X217098571Y-74040952D01*
X217098571Y-74374286D01*
X217622381Y-72850476D02*
X217622381Y-73421905D01*
X217622381Y-73136191D02*
X216622381Y-73136191D01*
X216765238Y-73231429D01*
X216860476Y-73326667D01*
X216908095Y-73421905D01*
X217622381Y-71898095D02*
X217622381Y-72469524D01*
X217622381Y-72183810D02*
X216622381Y-72183810D01*
X216765238Y-72279048D01*
X216860476Y-72374286D01*
X216908095Y-72469524D01*
X211741905Y-72302381D02*
X211741905Y-71302381D01*
X211980000Y-71302381D01*
X212122858Y-71350000D01*
X212218096Y-71445238D01*
X212265715Y-71540476D01*
X212313334Y-71730952D01*
X212313334Y-71873810D01*
X212265715Y-72064286D01*
X212218096Y-72159524D01*
X212122858Y-72254762D01*
X211980000Y-72302381D01*
X211741905Y-72302381D01*
X213075239Y-71778571D02*
X213218096Y-71826190D01*
X213265715Y-71873810D01*
X213313334Y-71969048D01*
X213313334Y-72111905D01*
X213265715Y-72207143D01*
X213218096Y-72254762D01*
X213122858Y-72302381D01*
X212741905Y-72302381D01*
X212741905Y-71302381D01*
X213075239Y-71302381D01*
X213170477Y-71350000D01*
X213218096Y-71397619D01*
X213265715Y-71492857D01*
X213265715Y-71588095D01*
X213218096Y-71683333D01*
X213170477Y-71730952D01*
X213075239Y-71778571D01*
X212741905Y-71778571D01*
X213646667Y-71302381D02*
X214265715Y-71302381D01*
X213932381Y-71683333D01*
X214075239Y-71683333D01*
X214170477Y-71730952D01*
X214218096Y-71778571D01*
X214265715Y-71873810D01*
X214265715Y-72111905D01*
X214218096Y-72207143D01*
X214170477Y-72254762D01*
X214075239Y-72302381D01*
X213789524Y-72302381D01*
X213694286Y-72254762D01*
X213646667Y-72207143D01*
X209400451Y-75081415D02*
X209400451Y-74081415D01*
X209638546Y-74081415D01*
X209781404Y-74129034D01*
X209876642Y-74224272D01*
X209924261Y-74319510D01*
X209971880Y-74509986D01*
X209971880Y-74652844D01*
X209924261Y-74843320D01*
X209876642Y-74938558D01*
X209781404Y-75033796D01*
X209638546Y-75081415D01*
X209400451Y-75081415D01*
X210733785Y-74557605D02*
X210876642Y-74605224D01*
X210924261Y-74652844D01*
X210971880Y-74748082D01*
X210971880Y-74890939D01*
X210924261Y-74986177D01*
X210876642Y-75033796D01*
X210781404Y-75081415D01*
X210400451Y-75081415D01*
X210400451Y-74081415D01*
X210733785Y-74081415D01*
X210829023Y-74129034D01*
X210876642Y-74176653D01*
X210924261Y-74271891D01*
X210924261Y-74367129D01*
X210876642Y-74462367D01*
X210829023Y-74509986D01*
X210733785Y-74557605D01*
X210400451Y-74557605D01*
X211924261Y-75081415D02*
X211352832Y-75081415D01*
X211638546Y-75081415D02*
X211638546Y-74081415D01*
X211543308Y-74224272D01*
X211448070Y-74319510D01*
X211352832Y-74367129D01*
X195937619Y-80605238D02*
X195890000Y-80700476D01*
X195794762Y-80795714D01*
X195651905Y-80938571D01*
X195604286Y-81033810D01*
X195604286Y-81129048D01*
X195842381Y-81081429D02*
X195794762Y-81176667D01*
X195699524Y-81271905D01*
X195509048Y-81319524D01*
X195175714Y-81319524D01*
X194985238Y-81271905D01*
X194890000Y-81176667D01*
X194842381Y-81081429D01*
X194842381Y-80890952D01*
X194890000Y-80795714D01*
X194985238Y-80700476D01*
X195175714Y-80652857D01*
X195509048Y-80652857D01*
X195699524Y-80700476D01*
X195794762Y-80795714D01*
X195842381Y-80890952D01*
X195842381Y-81081429D01*
X195318571Y-79890952D02*
X195366190Y-79748095D01*
X195413810Y-79700476D01*
X195509048Y-79652857D01*
X195651905Y-79652857D01*
X195747143Y-79700476D01*
X195794762Y-79748095D01*
X195842381Y-79843333D01*
X195842381Y-80224286D01*
X194842381Y-80224286D01*
X194842381Y-79890952D01*
X194890000Y-79795714D01*
X194937619Y-79748095D01*
X195032857Y-79700476D01*
X195128095Y-79700476D01*
X195223333Y-79748095D01*
X195270952Y-79795714D01*
X195318571Y-79890952D01*
X195318571Y-80224286D01*
X194937619Y-79271905D02*
X194890000Y-79224286D01*
X194842381Y-79129048D01*
X194842381Y-78890952D01*
X194890000Y-78795714D01*
X194937619Y-78748095D01*
X195032857Y-78700476D01*
X195128095Y-78700476D01*
X195270952Y-78748095D01*
X195842381Y-79319524D01*
X195842381Y-78700476D01*
X181312381Y-81271905D02*
X182121905Y-81271905D01*
X182217143Y-81224286D01*
X182264762Y-81176667D01*
X182312381Y-81081429D01*
X182312381Y-80890952D01*
X182264762Y-80795714D01*
X182217143Y-80748095D01*
X182121905Y-80700476D01*
X181312381Y-80700476D01*
X181788571Y-79890952D02*
X181836190Y-79748095D01*
X181883810Y-79700476D01*
X181979048Y-79652857D01*
X182121905Y-79652857D01*
X182217143Y-79700476D01*
X182264762Y-79748095D01*
X182312381Y-79843333D01*
X182312381Y-80224286D01*
X181312381Y-80224286D01*
X181312381Y-79890952D01*
X181360000Y-79795714D01*
X181407619Y-79748095D01*
X181502857Y-79700476D01*
X181598095Y-79700476D01*
X181693333Y-79748095D01*
X181740952Y-79795714D01*
X181788571Y-79890952D01*
X181788571Y-80224286D01*
X181645714Y-78795714D02*
X182312381Y-78795714D01*
X181264762Y-79033810D02*
X181979048Y-79271905D01*
X181979048Y-78652857D01*
X151233333Y-73382381D02*
X151233333Y-72382381D01*
X151471428Y-72382381D01*
X151614286Y-72430000D01*
X151709524Y-72525238D01*
X151757143Y-72620476D01*
X151804762Y-72810952D01*
X151804762Y-72953810D01*
X151757143Y-73144286D01*
X151709524Y-73239524D01*
X151614286Y-73334762D01*
X151471428Y-73382381D01*
X151233333Y-73382381D01*
X152185714Y-73096667D02*
X152661905Y-73096667D01*
X152090476Y-73382381D02*
X152423809Y-72382381D01*
X152757143Y-73382381D01*
X153519048Y-72715714D02*
X153519048Y-73382381D01*
X153280952Y-72334762D02*
X153042857Y-73049048D01*
X153661905Y-73049048D01*
X87296667Y-38822381D02*
X87296667Y-39536667D01*
X87249047Y-39679524D01*
X87153809Y-39774762D01*
X87010952Y-39822381D01*
X86915714Y-39822381D01*
X87725238Y-38917619D02*
X87772857Y-38870000D01*
X87868095Y-38822381D01*
X88106191Y-38822381D01*
X88201429Y-38870000D01*
X88249048Y-38917619D01*
X88296667Y-39012857D01*
X88296667Y-39108095D01*
X88249048Y-39250952D01*
X87677619Y-39822381D01*
X88296667Y-39822381D01*
X67143334Y-64813425D02*
X67095715Y-64861044D01*
X66952858Y-64908663D01*
X66857620Y-64908663D01*
X66714762Y-64861044D01*
X66619524Y-64765806D01*
X66571905Y-64670568D01*
X66524286Y-64480092D01*
X66524286Y-64337234D01*
X66571905Y-64146758D01*
X66619524Y-64051520D01*
X66714762Y-63956282D01*
X66857620Y-63908663D01*
X66952858Y-63908663D01*
X67095715Y-63956282D01*
X67143334Y-64003901D01*
X68095715Y-64908663D02*
X67524286Y-64908663D01*
X67810000Y-64908663D02*
X67810000Y-63908663D01*
X67714762Y-64051520D01*
X67619524Y-64146758D01*
X67524286Y-64194377D01*
X67143334Y-62273425D02*
X67095715Y-62321044D01*
X66952858Y-62368663D01*
X66857620Y-62368663D01*
X66714762Y-62321044D01*
X66619524Y-62225806D01*
X66571905Y-62130568D01*
X66524286Y-61940092D01*
X66524286Y-61797234D01*
X66571905Y-61606758D01*
X66619524Y-61511520D01*
X66714762Y-61416282D01*
X66857620Y-61368663D01*
X66952858Y-61368663D01*
X67095715Y-61416282D01*
X67143334Y-61463901D01*
X67524286Y-61463901D02*
X67571905Y-61416282D01*
X67667143Y-61368663D01*
X67905239Y-61368663D01*
X68000477Y-61416282D01*
X68048096Y-61463901D01*
X68095715Y-61559139D01*
X68095715Y-61654377D01*
X68048096Y-61797234D01*
X67476667Y-62368663D01*
X68095715Y-62368663D01*
X67143334Y-59733425D02*
X67095715Y-59781044D01*
X66952858Y-59828663D01*
X66857620Y-59828663D01*
X66714762Y-59781044D01*
X66619524Y-59685806D01*
X66571905Y-59590568D01*
X66524286Y-59400092D01*
X66524286Y-59257234D01*
X66571905Y-59066758D01*
X66619524Y-58971520D01*
X66714762Y-58876282D01*
X66857620Y-58828663D01*
X66952858Y-58828663D01*
X67095715Y-58876282D01*
X67143334Y-58923901D01*
X67476667Y-58828663D02*
X68095715Y-58828663D01*
X67762381Y-59209615D01*
X67905239Y-59209615D01*
X68000477Y-59257234D01*
X68048096Y-59304853D01*
X68095715Y-59400092D01*
X68095715Y-59638187D01*
X68048096Y-59733425D01*
X68000477Y-59781044D01*
X67905239Y-59828663D01*
X67619524Y-59828663D01*
X67524286Y-59781044D01*
X67476667Y-59733425D01*
X67143334Y-57193425D02*
X67095715Y-57241044D01*
X66952858Y-57288663D01*
X66857620Y-57288663D01*
X66714762Y-57241044D01*
X66619524Y-57145806D01*
X66571905Y-57050568D01*
X66524286Y-56860092D01*
X66524286Y-56717234D01*
X66571905Y-56526758D01*
X66619524Y-56431520D01*
X66714762Y-56336282D01*
X66857620Y-56288663D01*
X66952858Y-56288663D01*
X67095715Y-56336282D01*
X67143334Y-56383901D01*
X68000477Y-56621996D02*
X68000477Y-57288663D01*
X67762381Y-56241044D02*
X67524286Y-56955330D01*
X68143334Y-56955330D01*
X155614762Y-58297143D02*
X155567143Y-58344762D01*
X155424286Y-58392381D01*
X155329048Y-58392381D01*
X155186190Y-58344762D01*
X155090952Y-58249524D01*
X155043333Y-58154286D01*
X154995714Y-57963810D01*
X154995714Y-57820952D01*
X155043333Y-57630476D01*
X155090952Y-57535238D01*
X155186190Y-57440000D01*
X155329048Y-57392381D01*
X155424286Y-57392381D01*
X155567143Y-57440000D01*
X155614762Y-57487619D01*
X155995714Y-58106667D02*
X156471905Y-58106667D01*
X155900476Y-58392381D02*
X156233809Y-57392381D01*
X156567143Y-58392381D01*
X157424286Y-58392381D02*
X156852857Y-58392381D01*
X157138571Y-58392381D02*
X157138571Y-57392381D01*
X157043333Y-57535238D01*
X156948095Y-57630476D01*
X156852857Y-57678095D01*
X158174762Y-68937143D02*
X158127143Y-68984762D01*
X157984286Y-69032381D01*
X157889048Y-69032381D01*
X157746190Y-68984762D01*
X157650952Y-68889524D01*
X157603333Y-68794286D01*
X157555714Y-68603810D01*
X157555714Y-68460952D01*
X157603333Y-68270476D01*
X157650952Y-68175238D01*
X157746190Y-68080000D01*
X157889048Y-68032381D01*
X157984286Y-68032381D01*
X158127143Y-68080000D01*
X158174762Y-68127619D01*
X158555714Y-68746667D02*
X159031905Y-68746667D01*
X158460476Y-69032381D02*
X158793809Y-68032381D01*
X159127143Y-69032381D01*
X159412857Y-68127619D02*
X159460476Y-68080000D01*
X159555714Y-68032381D01*
X159793810Y-68032381D01*
X159889048Y-68080000D01*
X159936667Y-68127619D01*
X159984286Y-68222857D01*
X159984286Y-68318095D01*
X159936667Y-68460952D01*
X159365238Y-69032381D01*
X159984286Y-69032381D01*
X130214762Y-65127143D02*
X130167143Y-65174762D01*
X130024286Y-65222381D01*
X129929048Y-65222381D01*
X129786190Y-65174762D01*
X129690952Y-65079524D01*
X129643333Y-64984286D01*
X129595714Y-64793810D01*
X129595714Y-64650952D01*
X129643333Y-64460476D01*
X129690952Y-64365238D01*
X129786190Y-64270000D01*
X129929048Y-64222381D01*
X130024286Y-64222381D01*
X130167143Y-64270000D01*
X130214762Y-64317619D01*
X130595714Y-64936667D02*
X131071905Y-64936667D01*
X130500476Y-65222381D02*
X130833809Y-64222381D01*
X131167143Y-65222381D01*
X131405238Y-64222381D02*
X132024286Y-64222381D01*
X131690952Y-64603333D01*
X131833810Y-64603333D01*
X131929048Y-64650952D01*
X131976667Y-64698571D01*
X132024286Y-64793810D01*
X132024286Y-65031905D01*
X131976667Y-65127143D01*
X131929048Y-65174762D01*
X131833810Y-65222381D01*
X131548095Y-65222381D01*
X131452857Y-65174762D01*
X131405238Y-65127143D01*
X117514762Y-65127143D02*
X117467143Y-65174762D01*
X117324286Y-65222381D01*
X117229048Y-65222381D01*
X117086190Y-65174762D01*
X116990952Y-65079524D01*
X116943333Y-64984286D01*
X116895714Y-64793810D01*
X116895714Y-64650952D01*
X116943333Y-64460476D01*
X116990952Y-64365238D01*
X117086190Y-64270000D01*
X117229048Y-64222381D01*
X117324286Y-64222381D01*
X117467143Y-64270000D01*
X117514762Y-64317619D01*
X117895714Y-64936667D02*
X118371905Y-64936667D01*
X117800476Y-65222381D02*
X118133809Y-64222381D01*
X118467143Y-65222381D01*
X119229048Y-64555714D02*
X119229048Y-65222381D01*
X118990952Y-64174762D02*
X118752857Y-64889048D01*
X119371905Y-64889048D01*
X118031879Y-75081415D02*
X118031879Y-74081415D01*
X118269974Y-74081415D01*
X118412832Y-74129034D01*
X118508070Y-74224272D01*
X118555689Y-74319510D01*
X118603308Y-74509986D01*
X118603308Y-74652844D01*
X118555689Y-74843320D01*
X118508070Y-74938558D01*
X118412832Y-75033796D01*
X118269974Y-75081415D01*
X118031879Y-75081415D01*
X118984260Y-74795701D02*
X119460451Y-74795701D01*
X118889022Y-75081415D02*
X119222355Y-74081415D01*
X119555689Y-75081415D01*
X120412832Y-75081415D02*
X119841403Y-75081415D01*
X120127117Y-75081415D02*
X120127117Y-74081415D01*
X120031879Y-74224272D01*
X119936641Y-74319510D01*
X119841403Y-74367129D01*
X126690762Y-88082381D02*
X126690762Y-87082381D01*
X126928857Y-87082381D01*
X127071715Y-87130000D01*
X127166953Y-87225238D01*
X127214572Y-87320476D01*
X127262191Y-87510952D01*
X127262191Y-87653810D01*
X127214572Y-87844286D01*
X127166953Y-87939524D01*
X127071715Y-88034762D01*
X126928857Y-88082381D01*
X126690762Y-88082381D01*
X127643143Y-87796667D02*
X128119334Y-87796667D01*
X127547905Y-88082381D02*
X127881238Y-87082381D01*
X128214572Y-88082381D01*
X128500286Y-87177619D02*
X128547905Y-87130000D01*
X128643143Y-87082381D01*
X128881239Y-87082381D01*
X128976477Y-87130000D01*
X129024096Y-87177619D01*
X129071715Y-87272857D01*
X129071715Y-87368095D01*
X129024096Y-87510952D01*
X128452667Y-88082381D01*
X129071715Y-88082381D01*
X120373333Y-72302381D02*
X120373333Y-71302381D01*
X120611428Y-71302381D01*
X120754286Y-71350000D01*
X120849524Y-71445238D01*
X120897143Y-71540476D01*
X120944762Y-71730952D01*
X120944762Y-71873810D01*
X120897143Y-72064286D01*
X120849524Y-72159524D01*
X120754286Y-72254762D01*
X120611428Y-72302381D01*
X120373333Y-72302381D01*
X121325714Y-72016667D02*
X121801905Y-72016667D01*
X121230476Y-72302381D02*
X121563809Y-71302381D01*
X121897143Y-72302381D01*
X122135238Y-71302381D02*
X122754286Y-71302381D01*
X122420952Y-71683333D01*
X122563810Y-71683333D01*
X122659048Y-71730952D01*
X122706667Y-71778571D01*
X122754286Y-71873810D01*
X122754286Y-72111905D01*
X122706667Y-72207143D01*
X122659048Y-72254762D01*
X122563810Y-72302381D01*
X122278095Y-72302381D01*
X122182857Y-72254762D01*
X122135238Y-72207143D01*
X127811879Y-68302381D02*
X127811879Y-67302381D01*
X128049974Y-67302381D01*
X128192832Y-67350000D01*
X128288070Y-67445238D01*
X128335689Y-67540476D01*
X128383308Y-67730952D01*
X128383308Y-67873810D01*
X128335689Y-68064286D01*
X128288070Y-68159524D01*
X128192832Y-68254762D01*
X128049974Y-68302381D01*
X127811879Y-68302381D01*
X128764260Y-68016667D02*
X129240451Y-68016667D01*
X128669022Y-68302381D02*
X129002355Y-67302381D01*
X129335689Y-68302381D01*
X130145213Y-67302381D02*
X129669022Y-67302381D01*
X129621403Y-67778571D01*
X129669022Y-67730952D01*
X129764260Y-67683333D01*
X130002356Y-67683333D01*
X130097594Y-67730952D01*
X130145213Y-67778571D01*
X130192832Y-67873810D01*
X130192832Y-68111905D01*
X130145213Y-68207143D01*
X130097594Y-68254762D01*
X130002356Y-68302381D01*
X129764260Y-68302381D01*
X129669022Y-68254762D01*
X129621403Y-68207143D01*
X64946667Y-67522381D02*
X64946667Y-68236667D01*
X64899047Y-68379524D01*
X64803809Y-68474762D01*
X64660952Y-68522381D01*
X64565714Y-68522381D01*
X65946667Y-68522381D02*
X65375238Y-68522381D01*
X65660952Y-68522381D02*
X65660952Y-67522381D01*
X65565714Y-67665238D01*
X65470476Y-67760476D01*
X65375238Y-67808095D01*
X170926191Y-64047619D02*
X170830953Y-64000000D01*
X170735715Y-63904762D01*
X170592858Y-63761905D01*
X170497619Y-63714286D01*
X170402381Y-63714286D01*
X170450000Y-63952381D02*
X170354762Y-63904762D01*
X170259524Y-63809524D01*
X170211905Y-63619048D01*
X170211905Y-63285714D01*
X170259524Y-63095238D01*
X170354762Y-63000000D01*
X170450000Y-62952381D01*
X170640477Y-62952381D01*
X170735715Y-63000000D01*
X170830953Y-63095238D01*
X170878572Y-63285714D01*
X170878572Y-63619048D01*
X170830953Y-63809524D01*
X170735715Y-63904762D01*
X170640477Y-63952381D01*
X170450000Y-63952381D01*
X171259524Y-63666667D02*
X171735715Y-63666667D01*
X171164286Y-63952381D02*
X171497619Y-62952381D01*
X171830953Y-63952381D01*
X172688096Y-63952381D02*
X172116667Y-63952381D01*
X172402381Y-63952381D02*
X172402381Y-62952381D01*
X172307143Y-63095238D01*
X172211905Y-63190476D01*
X172116667Y-63238095D01*
X104497619Y-80533809D02*
X104450000Y-80629047D01*
X104354762Y-80724285D01*
X104211905Y-80867142D01*
X104164286Y-80962381D01*
X104164286Y-81057619D01*
X104402381Y-81010000D02*
X104354762Y-81105238D01*
X104259524Y-81200476D01*
X104069048Y-81248095D01*
X103735714Y-81248095D01*
X103545238Y-81200476D01*
X103450000Y-81105238D01*
X103402381Y-81010000D01*
X103402381Y-80819523D01*
X103450000Y-80724285D01*
X103545238Y-80629047D01*
X103735714Y-80581428D01*
X104069048Y-80581428D01*
X104259524Y-80629047D01*
X104354762Y-80724285D01*
X104402381Y-80819523D01*
X104402381Y-81010000D01*
X104116667Y-80200476D02*
X104116667Y-79724285D01*
X104402381Y-80295714D02*
X103402381Y-79962381D01*
X104402381Y-79629047D01*
X103497619Y-79343333D02*
X103450000Y-79295714D01*
X103402381Y-79200476D01*
X103402381Y-78962380D01*
X103450000Y-78867142D01*
X103497619Y-78819523D01*
X103592857Y-78771904D01*
X103688095Y-78771904D01*
X103830952Y-78819523D01*
X104402381Y-79390952D01*
X104402381Y-78771904D01*
X151487619Y-80533809D02*
X151440000Y-80629047D01*
X151344762Y-80724285D01*
X151201905Y-80867142D01*
X151154286Y-80962381D01*
X151154286Y-81057619D01*
X151392381Y-81010000D02*
X151344762Y-81105238D01*
X151249524Y-81200476D01*
X151059048Y-81248095D01*
X150725714Y-81248095D01*
X150535238Y-81200476D01*
X150440000Y-81105238D01*
X150392381Y-81010000D01*
X150392381Y-80819523D01*
X150440000Y-80724285D01*
X150535238Y-80629047D01*
X150725714Y-80581428D01*
X151059048Y-80581428D01*
X151249524Y-80629047D01*
X151344762Y-80724285D01*
X151392381Y-80819523D01*
X151392381Y-81010000D01*
X151106667Y-80200476D02*
X151106667Y-79724285D01*
X151392381Y-80295714D02*
X150392381Y-79962381D01*
X151392381Y-79629047D01*
X150392381Y-79390952D02*
X150392381Y-78771904D01*
X150773333Y-79105238D01*
X150773333Y-78962380D01*
X150820952Y-78867142D01*
X150868571Y-78819523D01*
X150963810Y-78771904D01*
X151201905Y-78771904D01*
X151297143Y-78819523D01*
X151344762Y-78867142D01*
X151392381Y-78962380D01*
X151392381Y-79248095D01*
X151344762Y-79343333D01*
X151297143Y-79390952D01*
X163306191Y-80367619D02*
X163210953Y-80320000D01*
X163115715Y-80224762D01*
X162972858Y-80081905D01*
X162877619Y-80034286D01*
X162782381Y-80034286D01*
X162830000Y-80272381D02*
X162734762Y-80224762D01*
X162639524Y-80129524D01*
X162591905Y-79939048D01*
X162591905Y-79605714D01*
X162639524Y-79415238D01*
X162734762Y-79320000D01*
X162830000Y-79272381D01*
X163020477Y-79272381D01*
X163115715Y-79320000D01*
X163210953Y-79415238D01*
X163258572Y-79605714D01*
X163258572Y-79939048D01*
X163210953Y-80129524D01*
X163115715Y-80224762D01*
X163020477Y-80272381D01*
X162830000Y-80272381D01*
X163639524Y-79986667D02*
X164115715Y-79986667D01*
X163544286Y-80272381D02*
X163877619Y-79272381D01*
X164210953Y-80272381D01*
X164972858Y-79605714D02*
X164972858Y-80272381D01*
X164734762Y-79224762D02*
X164496667Y-79939048D01*
X165115715Y-79939048D01*
X90083334Y-51252381D02*
X89750000Y-50776190D01*
X89511905Y-51252381D02*
X89511905Y-50252381D01*
X89892858Y-50252381D01*
X89988096Y-50300000D01*
X90035715Y-50347619D01*
X90083334Y-50442857D01*
X90083334Y-50585714D01*
X90035715Y-50680952D01*
X89988096Y-50728571D01*
X89892858Y-50776190D01*
X89511905Y-50776190D01*
X91035715Y-51252381D02*
X90464286Y-51252381D01*
X90750000Y-51252381D02*
X90750000Y-50252381D01*
X90654762Y-50395238D01*
X90559524Y-50490476D01*
X90464286Y-50538095D01*
X90083334Y-53792381D02*
X89750000Y-53316190D01*
X89511905Y-53792381D02*
X89511905Y-52792381D01*
X89892858Y-52792381D01*
X89988096Y-52840000D01*
X90035715Y-52887619D01*
X90083334Y-52982857D01*
X90083334Y-53125714D01*
X90035715Y-53220952D01*
X89988096Y-53268571D01*
X89892858Y-53316190D01*
X89511905Y-53316190D01*
X90464286Y-52887619D02*
X90511905Y-52840000D01*
X90607143Y-52792381D01*
X90845239Y-52792381D01*
X90940477Y-52840000D01*
X90988096Y-52887619D01*
X91035715Y-52982857D01*
X91035715Y-53078095D01*
X90988096Y-53220952D01*
X90416667Y-53792381D01*
X91035715Y-53792381D01*
X152131876Y-69032381D02*
X151798542Y-68556190D01*
X151560447Y-69032381D02*
X151560447Y-68032381D01*
X151941400Y-68032381D01*
X152036638Y-68080000D01*
X152084257Y-68127619D01*
X152131876Y-68222857D01*
X152131876Y-68365714D01*
X152084257Y-68460952D01*
X152036638Y-68508571D01*
X151941400Y-68556190D01*
X151560447Y-68556190D01*
X152512828Y-68746667D02*
X152989019Y-68746667D01*
X152417590Y-69032381D02*
X152750923Y-68032381D01*
X153084257Y-69032381D01*
X153941400Y-69032381D02*
X153369971Y-69032381D01*
X153655685Y-69032381D02*
X153655685Y-68032381D01*
X153560447Y-68175238D01*
X153465209Y-68270476D01*
X153369971Y-68318095D01*
X160694762Y-56332381D02*
X160361428Y-55856190D01*
X160123333Y-56332381D02*
X160123333Y-55332381D01*
X160504286Y-55332381D01*
X160599524Y-55380000D01*
X160647143Y-55427619D01*
X160694762Y-55522857D01*
X160694762Y-55665714D01*
X160647143Y-55760952D01*
X160599524Y-55808571D01*
X160504286Y-55856190D01*
X160123333Y-55856190D01*
X161075714Y-56046667D02*
X161551905Y-56046667D01*
X160980476Y-56332381D02*
X161313809Y-55332381D01*
X161647143Y-56332381D01*
X161932857Y-55427619D02*
X161980476Y-55380000D01*
X162075714Y-55332381D01*
X162313810Y-55332381D01*
X162409048Y-55380000D01*
X162456667Y-55427619D01*
X162504286Y-55522857D01*
X162504286Y-55618095D01*
X162456667Y-55760952D01*
X161885238Y-56332381D01*
X162504286Y-56332381D01*
X88082381Y-83145238D02*
X87606190Y-83478572D01*
X88082381Y-83716667D02*
X87082381Y-83716667D01*
X87082381Y-83335714D01*
X87130000Y-83240476D01*
X87177619Y-83192857D01*
X87272857Y-83145238D01*
X87415714Y-83145238D01*
X87510952Y-83192857D01*
X87558571Y-83240476D01*
X87606190Y-83335714D01*
X87606190Y-83716667D01*
X87796667Y-82764286D02*
X87796667Y-82288095D01*
X88082381Y-82859524D02*
X87082381Y-82526191D01*
X88082381Y-82192857D01*
X87082381Y-81954762D02*
X87082381Y-81335714D01*
X87463333Y-81669048D01*
X87463333Y-81526190D01*
X87510952Y-81430952D01*
X87558571Y-81383333D01*
X87653810Y-81335714D01*
X87891905Y-81335714D01*
X87987143Y-81383333D01*
X88034762Y-81430952D01*
X88082381Y-81526190D01*
X88082381Y-81811905D01*
X88034762Y-81907143D01*
X87987143Y-81954762D01*
X122372381Y-88225238D02*
X121896190Y-88558572D01*
X122372381Y-88796667D02*
X121372381Y-88796667D01*
X121372381Y-88415714D01*
X121420000Y-88320476D01*
X121467619Y-88272857D01*
X121562857Y-88225238D01*
X121705714Y-88225238D01*
X121800952Y-88272857D01*
X121848571Y-88320476D01*
X121896190Y-88415714D01*
X121896190Y-88796667D01*
X122086667Y-87844286D02*
X122086667Y-87368095D01*
X122372381Y-87939524D02*
X121372381Y-87606191D01*
X122372381Y-87272857D01*
X121705714Y-86510952D02*
X122372381Y-86510952D01*
X121324762Y-86749048D02*
X122039048Y-86987143D01*
X122039048Y-86368095D01*
X118603308Y-80461415D02*
X118269974Y-79985224D01*
X118031879Y-80461415D02*
X118031879Y-79461415D01*
X118412832Y-79461415D01*
X118508070Y-79509034D01*
X118555689Y-79556653D01*
X118603308Y-79651891D01*
X118603308Y-79794748D01*
X118555689Y-79889986D01*
X118508070Y-79937605D01*
X118412832Y-79985224D01*
X118031879Y-79985224D01*
X118984260Y-80175701D02*
X119460451Y-80175701D01*
X118889022Y-80461415D02*
X119222355Y-79461415D01*
X119555689Y-80461415D01*
X120365213Y-79461415D02*
X119889022Y-79461415D01*
X119841403Y-79937605D01*
X119889022Y-79889986D01*
X119984260Y-79842367D01*
X120222356Y-79842367D01*
X120317594Y-79889986D01*
X120365213Y-79937605D01*
X120412832Y-80032844D01*
X120412832Y-80270939D01*
X120365213Y-80366177D01*
X120317594Y-80413796D01*
X120222356Y-80461415D01*
X119984260Y-80461415D01*
X119889022Y-80413796D01*
X119841403Y-80366177D01*
X90622381Y-83145238D02*
X90146190Y-83478572D01*
X90622381Y-83716667D02*
X89622381Y-83716667D01*
X89622381Y-83335714D01*
X89670000Y-83240476D01*
X89717619Y-83192857D01*
X89812857Y-83145238D01*
X89955714Y-83145238D01*
X90050952Y-83192857D01*
X90098571Y-83240476D01*
X90146190Y-83335714D01*
X90146190Y-83716667D01*
X90336667Y-82764286D02*
X90336667Y-82288095D01*
X90622381Y-82859524D02*
X89622381Y-82526191D01*
X90622381Y-82192857D01*
X89622381Y-81430952D02*
X89622381Y-81621429D01*
X89670000Y-81716667D01*
X89717619Y-81764286D01*
X89860476Y-81859524D01*
X90050952Y-81907143D01*
X90431905Y-81907143D01*
X90527143Y-81859524D01*
X90574762Y-81811905D01*
X90622381Y-81716667D01*
X90622381Y-81526190D01*
X90574762Y-81430952D01*
X90527143Y-81383333D01*
X90431905Y-81335714D01*
X90193810Y-81335714D01*
X90098571Y-81383333D01*
X90050952Y-81430952D01*
X90003333Y-81526190D01*
X90003333Y-81716667D01*
X90050952Y-81811905D01*
X90098571Y-81859524D01*
X90193810Y-81907143D01*
X132834762Y-85542381D02*
X132501428Y-85066190D01*
X132263333Y-85542381D02*
X132263333Y-84542381D01*
X132644286Y-84542381D01*
X132739524Y-84590000D01*
X132787143Y-84637619D01*
X132834762Y-84732857D01*
X132834762Y-84875714D01*
X132787143Y-84970952D01*
X132739524Y-85018571D01*
X132644286Y-85066190D01*
X132263333Y-85066190D01*
X133215714Y-85256667D02*
X133691905Y-85256667D01*
X133120476Y-85542381D02*
X133453809Y-84542381D01*
X133787143Y-85542381D01*
X134025238Y-84542381D02*
X134691905Y-84542381D01*
X134263333Y-85542381D01*
X136564762Y-80462381D02*
X136231428Y-79986190D01*
X135993333Y-80462381D02*
X135993333Y-79462381D01*
X136374286Y-79462381D01*
X136469524Y-79510000D01*
X136517143Y-79557619D01*
X136564762Y-79652857D01*
X136564762Y-79795714D01*
X136517143Y-79890952D01*
X136469524Y-79938571D01*
X136374286Y-79986190D01*
X135993333Y-79986190D01*
X136945714Y-80176667D02*
X137421905Y-80176667D01*
X136850476Y-80462381D02*
X137183809Y-79462381D01*
X137517143Y-80462381D01*
X137993333Y-79890952D02*
X137898095Y-79843333D01*
X137850476Y-79795714D01*
X137802857Y-79700476D01*
X137802857Y-79652857D01*
X137850476Y-79557619D01*
X137898095Y-79510000D01*
X137993333Y-79462381D01*
X138183810Y-79462381D01*
X138279048Y-79510000D01*
X138326667Y-79557619D01*
X138374286Y-79652857D01*
X138374286Y-79700476D01*
X138326667Y-79795714D01*
X138279048Y-79843333D01*
X138183810Y-79890952D01*
X137993333Y-79890952D01*
X137898095Y-79938571D01*
X137850476Y-79986190D01*
X137802857Y-80081429D01*
X137802857Y-80271905D01*
X137850476Y-80367143D01*
X137898095Y-80414762D01*
X137993333Y-80462381D01*
X138183810Y-80462381D01*
X138279048Y-80414762D01*
X138326667Y-80367143D01*
X138374286Y-80271905D01*
X138374286Y-80081429D01*
X138326667Y-79986190D01*
X138279048Y-79938571D01*
X138183810Y-79890952D01*
X126182381Y-73461428D02*
X125706190Y-73794762D01*
X126182381Y-74032857D02*
X125182381Y-74032857D01*
X125182381Y-73651904D01*
X125230000Y-73556666D01*
X125277619Y-73509047D01*
X125372857Y-73461428D01*
X125515714Y-73461428D01*
X125610952Y-73509047D01*
X125658571Y-73556666D01*
X125706190Y-73651904D01*
X125706190Y-74032857D01*
X125896667Y-73080476D02*
X125896667Y-72604285D01*
X126182381Y-73175714D02*
X125182381Y-72842381D01*
X126182381Y-72509047D01*
X126182381Y-71651904D02*
X126182381Y-72223333D01*
X126182381Y-71937619D02*
X125182381Y-71937619D01*
X125325238Y-72032857D01*
X125420476Y-72128095D01*
X125468095Y-72223333D01*
X126182381Y-70699523D02*
X126182381Y-71270952D01*
X126182381Y-70985238D02*
X125182381Y-70985238D01*
X125325238Y-71080476D01*
X125420476Y-71175714D01*
X125468095Y-71270952D01*
X106518689Y-135173498D02*
X106185355Y-134697307D01*
X105947260Y-135173498D02*
X105947260Y-134173498D01*
X106328213Y-134173498D01*
X106423451Y-134221117D01*
X106471070Y-134268736D01*
X106518689Y-134363974D01*
X106518689Y-134506831D01*
X106471070Y-134602069D01*
X106423451Y-134649688D01*
X106328213Y-134697307D01*
X105947260Y-134697307D01*
X106899641Y-135125879D02*
X107042498Y-135173498D01*
X107280594Y-135173498D01*
X107375832Y-135125879D01*
X107423451Y-135078260D01*
X107471070Y-134983022D01*
X107471070Y-134887784D01*
X107423451Y-134792546D01*
X107375832Y-134744927D01*
X107280594Y-134697307D01*
X107090117Y-134649688D01*
X106994879Y-134602069D01*
X106947260Y-134554450D01*
X106899641Y-134459212D01*
X106899641Y-134363974D01*
X106947260Y-134268736D01*
X106994879Y-134221117D01*
X107090117Y-134173498D01*
X107328213Y-134173498D01*
X107471070Y-134221117D01*
X107852022Y-134887784D02*
X108328213Y-134887784D01*
X107756784Y-135173498D02*
X108090117Y-134173498D01*
X108423451Y-135173498D01*
X109280594Y-135173498D02*
X108709165Y-135173498D01*
X108994879Y-135173498D02*
X108994879Y-134173498D01*
X108899641Y-134316355D01*
X108804403Y-134411593D01*
X108709165Y-134459212D01*
X106518689Y-127553498D02*
X106185355Y-127077307D01*
X105947260Y-127553498D02*
X105947260Y-126553498D01*
X106328213Y-126553498D01*
X106423451Y-126601117D01*
X106471070Y-126648736D01*
X106518689Y-126743974D01*
X106518689Y-126886831D01*
X106471070Y-126982069D01*
X106423451Y-127029688D01*
X106328213Y-127077307D01*
X105947260Y-127077307D01*
X106899641Y-127505879D02*
X107042498Y-127553498D01*
X107280594Y-127553498D01*
X107375832Y-127505879D01*
X107423451Y-127458260D01*
X107471070Y-127363022D01*
X107471070Y-127267784D01*
X107423451Y-127172546D01*
X107375832Y-127124927D01*
X107280594Y-127077307D01*
X107090117Y-127029688D01*
X106994879Y-126982069D01*
X106947260Y-126934450D01*
X106899641Y-126839212D01*
X106899641Y-126743974D01*
X106947260Y-126648736D01*
X106994879Y-126601117D01*
X107090117Y-126553498D01*
X107328213Y-126553498D01*
X107471070Y-126601117D01*
X107852022Y-127267784D02*
X108328213Y-127267784D01*
X107756784Y-127553498D02*
X108090117Y-126553498D01*
X108423451Y-127553498D01*
X108709165Y-126648736D02*
X108756784Y-126601117D01*
X108852022Y-126553498D01*
X109090118Y-126553498D01*
X109185356Y-126601117D01*
X109232975Y-126648736D01*
X109280594Y-126743974D01*
X109280594Y-126839212D01*
X109232975Y-126982069D01*
X108661546Y-127553498D01*
X109280594Y-127553498D01*
X106518689Y-119933498D02*
X106185355Y-119457307D01*
X105947260Y-119933498D02*
X105947260Y-118933498D01*
X106328213Y-118933498D01*
X106423451Y-118981117D01*
X106471070Y-119028736D01*
X106518689Y-119123974D01*
X106518689Y-119266831D01*
X106471070Y-119362069D01*
X106423451Y-119409688D01*
X106328213Y-119457307D01*
X105947260Y-119457307D01*
X106899641Y-119885879D02*
X107042498Y-119933498D01*
X107280594Y-119933498D01*
X107375832Y-119885879D01*
X107423451Y-119838260D01*
X107471070Y-119743022D01*
X107471070Y-119647784D01*
X107423451Y-119552546D01*
X107375832Y-119504927D01*
X107280594Y-119457307D01*
X107090117Y-119409688D01*
X106994879Y-119362069D01*
X106947260Y-119314450D01*
X106899641Y-119219212D01*
X106899641Y-119123974D01*
X106947260Y-119028736D01*
X106994879Y-118981117D01*
X107090117Y-118933498D01*
X107328213Y-118933498D01*
X107471070Y-118981117D01*
X107852022Y-119647784D02*
X108328213Y-119647784D01*
X107756784Y-119933498D02*
X108090117Y-118933498D01*
X108423451Y-119933498D01*
X108661546Y-118933498D02*
X109280594Y-118933498D01*
X108947260Y-119314450D01*
X109090118Y-119314450D01*
X109185356Y-119362069D01*
X109232975Y-119409688D01*
X109280594Y-119504927D01*
X109280594Y-119743022D01*
X109232975Y-119838260D01*
X109185356Y-119885879D01*
X109090118Y-119933498D01*
X108804403Y-119933498D01*
X108709165Y-119885879D01*
X108661546Y-119838260D01*
X106518689Y-112313498D02*
X106185355Y-111837307D01*
X105947260Y-112313498D02*
X105947260Y-111313498D01*
X106328213Y-111313498D01*
X106423451Y-111361117D01*
X106471070Y-111408736D01*
X106518689Y-111503974D01*
X106518689Y-111646831D01*
X106471070Y-111742069D01*
X106423451Y-111789688D01*
X106328213Y-111837307D01*
X105947260Y-111837307D01*
X106899641Y-112265879D02*
X107042498Y-112313498D01*
X107280594Y-112313498D01*
X107375832Y-112265879D01*
X107423451Y-112218260D01*
X107471070Y-112123022D01*
X107471070Y-112027784D01*
X107423451Y-111932546D01*
X107375832Y-111884927D01*
X107280594Y-111837307D01*
X107090117Y-111789688D01*
X106994879Y-111742069D01*
X106947260Y-111694450D01*
X106899641Y-111599212D01*
X106899641Y-111503974D01*
X106947260Y-111408736D01*
X106994879Y-111361117D01*
X107090117Y-111313498D01*
X107328213Y-111313498D01*
X107471070Y-111361117D01*
X107852022Y-112027784D02*
X108328213Y-112027784D01*
X107756784Y-112313498D02*
X108090117Y-111313498D01*
X108423451Y-112313498D01*
X109185356Y-111646831D02*
X109185356Y-112313498D01*
X108947260Y-111265879D02*
X108709165Y-111980165D01*
X109328213Y-111980165D01*
X106518689Y-104693498D02*
X106185355Y-104217307D01*
X105947260Y-104693498D02*
X105947260Y-103693498D01*
X106328213Y-103693498D01*
X106423451Y-103741117D01*
X106471070Y-103788736D01*
X106518689Y-103883974D01*
X106518689Y-104026831D01*
X106471070Y-104122069D01*
X106423451Y-104169688D01*
X106328213Y-104217307D01*
X105947260Y-104217307D01*
X106899641Y-104645879D02*
X107042498Y-104693498D01*
X107280594Y-104693498D01*
X107375832Y-104645879D01*
X107423451Y-104598260D01*
X107471070Y-104503022D01*
X107471070Y-104407784D01*
X107423451Y-104312546D01*
X107375832Y-104264927D01*
X107280594Y-104217307D01*
X107090117Y-104169688D01*
X106994879Y-104122069D01*
X106947260Y-104074450D01*
X106899641Y-103979212D01*
X106899641Y-103883974D01*
X106947260Y-103788736D01*
X106994879Y-103741117D01*
X107090117Y-103693498D01*
X107328213Y-103693498D01*
X107471070Y-103741117D01*
X107852022Y-104407784D02*
X108328213Y-104407784D01*
X107756784Y-104693498D02*
X108090117Y-103693498D01*
X108423451Y-104693498D01*
X109232975Y-103693498D02*
X108756784Y-103693498D01*
X108709165Y-104169688D01*
X108756784Y-104122069D01*
X108852022Y-104074450D01*
X109090118Y-104074450D01*
X109185356Y-104122069D01*
X109232975Y-104169688D01*
X109280594Y-104264927D01*
X109280594Y-104503022D01*
X109232975Y-104598260D01*
X109185356Y-104645879D01*
X109090118Y-104693498D01*
X108852022Y-104693498D01*
X108756784Y-104645879D01*
X108709165Y-104598260D01*
X119218689Y-135173498D02*
X118885355Y-134697307D01*
X118647260Y-135173498D02*
X118647260Y-134173498D01*
X119028213Y-134173498D01*
X119123451Y-134221117D01*
X119171070Y-134268736D01*
X119218689Y-134363974D01*
X119218689Y-134506831D01*
X119171070Y-134602069D01*
X119123451Y-134649688D01*
X119028213Y-134697307D01*
X118647260Y-134697307D01*
X119599641Y-135125879D02*
X119742498Y-135173498D01*
X119980594Y-135173498D01*
X120075832Y-135125879D01*
X120123451Y-135078260D01*
X120171070Y-134983022D01*
X120171070Y-134887784D01*
X120123451Y-134792546D01*
X120075832Y-134744927D01*
X119980594Y-134697307D01*
X119790117Y-134649688D01*
X119694879Y-134602069D01*
X119647260Y-134554450D01*
X119599641Y-134459212D01*
X119599641Y-134363974D01*
X119647260Y-134268736D01*
X119694879Y-134221117D01*
X119790117Y-134173498D01*
X120028213Y-134173498D01*
X120171070Y-134221117D01*
X120552022Y-134887784D02*
X121028213Y-134887784D01*
X120456784Y-135173498D02*
X120790117Y-134173498D01*
X121123451Y-135173498D01*
X121885356Y-134173498D02*
X121694879Y-134173498D01*
X121599641Y-134221117D01*
X121552022Y-134268736D01*
X121456784Y-134411593D01*
X121409165Y-134602069D01*
X121409165Y-134983022D01*
X121456784Y-135078260D01*
X121504403Y-135125879D01*
X121599641Y-135173498D01*
X121790118Y-135173498D01*
X121885356Y-135125879D01*
X121932975Y-135078260D01*
X121980594Y-134983022D01*
X121980594Y-134744927D01*
X121932975Y-134649688D01*
X121885356Y-134602069D01*
X121790118Y-134554450D01*
X121599641Y-134554450D01*
X121504403Y-134602069D01*
X121456784Y-134649688D01*
X121409165Y-134744927D01*
X119218689Y-127553498D02*
X118885355Y-127077307D01*
X118647260Y-127553498D02*
X118647260Y-126553498D01*
X119028213Y-126553498D01*
X119123451Y-126601117D01*
X119171070Y-126648736D01*
X119218689Y-126743974D01*
X119218689Y-126886831D01*
X119171070Y-126982069D01*
X119123451Y-127029688D01*
X119028213Y-127077307D01*
X118647260Y-127077307D01*
X119599641Y-127505879D02*
X119742498Y-127553498D01*
X119980594Y-127553498D01*
X120075832Y-127505879D01*
X120123451Y-127458260D01*
X120171070Y-127363022D01*
X120171070Y-127267784D01*
X120123451Y-127172546D01*
X120075832Y-127124927D01*
X119980594Y-127077307D01*
X119790117Y-127029688D01*
X119694879Y-126982069D01*
X119647260Y-126934450D01*
X119599641Y-126839212D01*
X119599641Y-126743974D01*
X119647260Y-126648736D01*
X119694879Y-126601117D01*
X119790117Y-126553498D01*
X120028213Y-126553498D01*
X120171070Y-126601117D01*
X120552022Y-127267784D02*
X121028213Y-127267784D01*
X120456784Y-127553498D02*
X120790117Y-126553498D01*
X121123451Y-127553498D01*
X121361546Y-126553498D02*
X122028213Y-126553498D01*
X121599641Y-127553498D01*
X119218689Y-119933498D02*
X118885355Y-119457307D01*
X118647260Y-119933498D02*
X118647260Y-118933498D01*
X119028213Y-118933498D01*
X119123451Y-118981117D01*
X119171070Y-119028736D01*
X119218689Y-119123974D01*
X119218689Y-119266831D01*
X119171070Y-119362069D01*
X119123451Y-119409688D01*
X119028213Y-119457307D01*
X118647260Y-119457307D01*
X119599641Y-119885879D02*
X119742498Y-119933498D01*
X119980594Y-119933498D01*
X120075832Y-119885879D01*
X120123451Y-119838260D01*
X120171070Y-119743022D01*
X120171070Y-119647784D01*
X120123451Y-119552546D01*
X120075832Y-119504927D01*
X119980594Y-119457307D01*
X119790117Y-119409688D01*
X119694879Y-119362069D01*
X119647260Y-119314450D01*
X119599641Y-119219212D01*
X119599641Y-119123974D01*
X119647260Y-119028736D01*
X119694879Y-118981117D01*
X119790117Y-118933498D01*
X120028213Y-118933498D01*
X120171070Y-118981117D01*
X120552022Y-119647784D02*
X121028213Y-119647784D01*
X120456784Y-119933498D02*
X120790117Y-118933498D01*
X121123451Y-119933498D01*
X121599641Y-119362069D02*
X121504403Y-119314450D01*
X121456784Y-119266831D01*
X121409165Y-119171593D01*
X121409165Y-119123974D01*
X121456784Y-119028736D01*
X121504403Y-118981117D01*
X121599641Y-118933498D01*
X121790118Y-118933498D01*
X121885356Y-118981117D01*
X121932975Y-119028736D01*
X121980594Y-119123974D01*
X121980594Y-119171593D01*
X121932975Y-119266831D01*
X121885356Y-119314450D01*
X121790118Y-119362069D01*
X121599641Y-119362069D01*
X121504403Y-119409688D01*
X121456784Y-119457307D01*
X121409165Y-119552546D01*
X121409165Y-119743022D01*
X121456784Y-119838260D01*
X121504403Y-119885879D01*
X121599641Y-119933498D01*
X121790118Y-119933498D01*
X121885356Y-119885879D01*
X121932975Y-119838260D01*
X121980594Y-119743022D01*
X121980594Y-119552546D01*
X121932975Y-119457307D01*
X121885356Y-119409688D01*
X121790118Y-119362069D01*
X119218689Y-112313498D02*
X118885355Y-111837307D01*
X118647260Y-112313498D02*
X118647260Y-111313498D01*
X119028213Y-111313498D01*
X119123451Y-111361117D01*
X119171070Y-111408736D01*
X119218689Y-111503974D01*
X119218689Y-111646831D01*
X119171070Y-111742069D01*
X119123451Y-111789688D01*
X119028213Y-111837307D01*
X118647260Y-111837307D01*
X119599641Y-112265879D02*
X119742498Y-112313498D01*
X119980594Y-112313498D01*
X120075832Y-112265879D01*
X120123451Y-112218260D01*
X120171070Y-112123022D01*
X120171070Y-112027784D01*
X120123451Y-111932546D01*
X120075832Y-111884927D01*
X119980594Y-111837307D01*
X119790117Y-111789688D01*
X119694879Y-111742069D01*
X119647260Y-111694450D01*
X119599641Y-111599212D01*
X119599641Y-111503974D01*
X119647260Y-111408736D01*
X119694879Y-111361117D01*
X119790117Y-111313498D01*
X120028213Y-111313498D01*
X120171070Y-111361117D01*
X120552022Y-112027784D02*
X121028213Y-112027784D01*
X120456784Y-112313498D02*
X120790117Y-111313498D01*
X121123451Y-112313498D01*
X121504403Y-112313498D02*
X121694879Y-112313498D01*
X121790118Y-112265879D01*
X121837737Y-112218260D01*
X121932975Y-112075403D01*
X121980594Y-111884927D01*
X121980594Y-111503974D01*
X121932975Y-111408736D01*
X121885356Y-111361117D01*
X121790118Y-111313498D01*
X121599641Y-111313498D01*
X121504403Y-111361117D01*
X121456784Y-111408736D01*
X121409165Y-111503974D01*
X121409165Y-111742069D01*
X121456784Y-111837307D01*
X121504403Y-111884927D01*
X121599641Y-111932546D01*
X121790118Y-111932546D01*
X121885356Y-111884927D01*
X121932975Y-111837307D01*
X121980594Y-111742069D01*
X118742498Y-104693498D02*
X118409164Y-104217307D01*
X118171069Y-104693498D02*
X118171069Y-103693498D01*
X118552022Y-103693498D01*
X118647260Y-103741117D01*
X118694879Y-103788736D01*
X118742498Y-103883974D01*
X118742498Y-104026831D01*
X118694879Y-104122069D01*
X118647260Y-104169688D01*
X118552022Y-104217307D01*
X118171069Y-104217307D01*
X119123450Y-104645879D02*
X119266307Y-104693498D01*
X119504403Y-104693498D01*
X119599641Y-104645879D01*
X119647260Y-104598260D01*
X119694879Y-104503022D01*
X119694879Y-104407784D01*
X119647260Y-104312546D01*
X119599641Y-104264927D01*
X119504403Y-104217307D01*
X119313926Y-104169688D01*
X119218688Y-104122069D01*
X119171069Y-104074450D01*
X119123450Y-103979212D01*
X119123450Y-103883974D01*
X119171069Y-103788736D01*
X119218688Y-103741117D01*
X119313926Y-103693498D01*
X119552022Y-103693498D01*
X119694879Y-103741117D01*
X120075831Y-104407784D02*
X120552022Y-104407784D01*
X119980593Y-104693498D02*
X120313926Y-103693498D01*
X120647260Y-104693498D01*
X121504403Y-104693498D02*
X120932974Y-104693498D01*
X121218688Y-104693498D02*
X121218688Y-103693498D01*
X121123450Y-103836355D01*
X121028212Y-103931593D01*
X120932974Y-103979212D01*
X122123450Y-103693498D02*
X122218689Y-103693498D01*
X122313927Y-103741117D01*
X122361546Y-103788736D01*
X122409165Y-103883974D01*
X122456784Y-104074450D01*
X122456784Y-104312546D01*
X122409165Y-104503022D01*
X122361546Y-104598260D01*
X122313927Y-104645879D01*
X122218689Y-104693498D01*
X122123450Y-104693498D01*
X122028212Y-104645879D01*
X121980593Y-104598260D01*
X121932974Y-104503022D01*
X121885355Y-104312546D01*
X121885355Y-104074450D01*
X121932974Y-103883974D01*
X121980593Y-103788736D01*
X122028212Y-103741117D01*
X122123450Y-103693498D01*
X132712498Y-135173498D02*
X132379164Y-134697307D01*
X132141069Y-135173498D02*
X132141069Y-134173498D01*
X132522022Y-134173498D01*
X132617260Y-134221117D01*
X132664879Y-134268736D01*
X132712498Y-134363974D01*
X132712498Y-134506831D01*
X132664879Y-134602069D01*
X132617260Y-134649688D01*
X132522022Y-134697307D01*
X132141069Y-134697307D01*
X133093450Y-135125879D02*
X133236307Y-135173498D01*
X133474403Y-135173498D01*
X133569641Y-135125879D01*
X133617260Y-135078260D01*
X133664879Y-134983022D01*
X133664879Y-134887784D01*
X133617260Y-134792546D01*
X133569641Y-134744927D01*
X133474403Y-134697307D01*
X133283926Y-134649688D01*
X133188688Y-134602069D01*
X133141069Y-134554450D01*
X133093450Y-134459212D01*
X133093450Y-134363974D01*
X133141069Y-134268736D01*
X133188688Y-134221117D01*
X133283926Y-134173498D01*
X133522022Y-134173498D01*
X133664879Y-134221117D01*
X134045831Y-134887784D02*
X134522022Y-134887784D01*
X133950593Y-135173498D02*
X134283926Y-134173498D01*
X134617260Y-135173498D01*
X135474403Y-135173498D02*
X134902974Y-135173498D01*
X135188688Y-135173498D02*
X135188688Y-134173498D01*
X135093450Y-134316355D01*
X134998212Y-134411593D01*
X134902974Y-134459212D01*
X136426784Y-135173498D02*
X135855355Y-135173498D01*
X136141069Y-135173498D02*
X136141069Y-134173498D01*
X136045831Y-134316355D01*
X135950593Y-134411593D01*
X135855355Y-134459212D01*
X132712498Y-127553498D02*
X132379164Y-127077307D01*
X132141069Y-127553498D02*
X132141069Y-126553498D01*
X132522022Y-126553498D01*
X132617260Y-126601117D01*
X132664879Y-126648736D01*
X132712498Y-126743974D01*
X132712498Y-126886831D01*
X132664879Y-126982069D01*
X132617260Y-127029688D01*
X132522022Y-127077307D01*
X132141069Y-127077307D01*
X133093450Y-127505879D02*
X133236307Y-127553498D01*
X133474403Y-127553498D01*
X133569641Y-127505879D01*
X133617260Y-127458260D01*
X133664879Y-127363022D01*
X133664879Y-127267784D01*
X133617260Y-127172546D01*
X133569641Y-127124927D01*
X133474403Y-127077307D01*
X133283926Y-127029688D01*
X133188688Y-126982069D01*
X133141069Y-126934450D01*
X133093450Y-126839212D01*
X133093450Y-126743974D01*
X133141069Y-126648736D01*
X133188688Y-126601117D01*
X133283926Y-126553498D01*
X133522022Y-126553498D01*
X133664879Y-126601117D01*
X134045831Y-127267784D02*
X134522022Y-127267784D01*
X133950593Y-127553498D02*
X134283926Y-126553498D01*
X134617260Y-127553498D01*
X135474403Y-127553498D02*
X134902974Y-127553498D01*
X135188688Y-127553498D02*
X135188688Y-126553498D01*
X135093450Y-126696355D01*
X134998212Y-126791593D01*
X134902974Y-126839212D01*
X135855355Y-126648736D02*
X135902974Y-126601117D01*
X135998212Y-126553498D01*
X136236308Y-126553498D01*
X136331546Y-126601117D01*
X136379165Y-126648736D01*
X136426784Y-126743974D01*
X136426784Y-126839212D01*
X136379165Y-126982069D01*
X135807736Y-127553498D01*
X136426784Y-127553498D01*
X132712498Y-119933498D02*
X132379164Y-119457307D01*
X132141069Y-119933498D02*
X132141069Y-118933498D01*
X132522022Y-118933498D01*
X132617260Y-118981117D01*
X132664879Y-119028736D01*
X132712498Y-119123974D01*
X132712498Y-119266831D01*
X132664879Y-119362069D01*
X132617260Y-119409688D01*
X132522022Y-119457307D01*
X132141069Y-119457307D01*
X133093450Y-119885879D02*
X133236307Y-119933498D01*
X133474403Y-119933498D01*
X133569641Y-119885879D01*
X133617260Y-119838260D01*
X133664879Y-119743022D01*
X133664879Y-119647784D01*
X133617260Y-119552546D01*
X133569641Y-119504927D01*
X133474403Y-119457307D01*
X133283926Y-119409688D01*
X133188688Y-119362069D01*
X133141069Y-119314450D01*
X133093450Y-119219212D01*
X133093450Y-119123974D01*
X133141069Y-119028736D01*
X133188688Y-118981117D01*
X133283926Y-118933498D01*
X133522022Y-118933498D01*
X133664879Y-118981117D01*
X134045831Y-119647784D02*
X134522022Y-119647784D01*
X133950593Y-119933498D02*
X134283926Y-118933498D01*
X134617260Y-119933498D01*
X135474403Y-119933498D02*
X134902974Y-119933498D01*
X135188688Y-119933498D02*
X135188688Y-118933498D01*
X135093450Y-119076355D01*
X134998212Y-119171593D01*
X134902974Y-119219212D01*
X135807736Y-118933498D02*
X136426784Y-118933498D01*
X136093450Y-119314450D01*
X136236308Y-119314450D01*
X136331546Y-119362069D01*
X136379165Y-119409688D01*
X136426784Y-119504927D01*
X136426784Y-119743022D01*
X136379165Y-119838260D01*
X136331546Y-119885879D01*
X136236308Y-119933498D01*
X135950593Y-119933498D01*
X135855355Y-119885879D01*
X135807736Y-119838260D01*
X132712498Y-112313498D02*
X132379164Y-111837307D01*
X132141069Y-112313498D02*
X132141069Y-111313498D01*
X132522022Y-111313498D01*
X132617260Y-111361117D01*
X132664879Y-111408736D01*
X132712498Y-111503974D01*
X132712498Y-111646831D01*
X132664879Y-111742069D01*
X132617260Y-111789688D01*
X132522022Y-111837307D01*
X132141069Y-111837307D01*
X133093450Y-112265879D02*
X133236307Y-112313498D01*
X133474403Y-112313498D01*
X133569641Y-112265879D01*
X133617260Y-112218260D01*
X133664879Y-112123022D01*
X133664879Y-112027784D01*
X133617260Y-111932546D01*
X133569641Y-111884927D01*
X133474403Y-111837307D01*
X133283926Y-111789688D01*
X133188688Y-111742069D01*
X133141069Y-111694450D01*
X133093450Y-111599212D01*
X133093450Y-111503974D01*
X133141069Y-111408736D01*
X133188688Y-111361117D01*
X133283926Y-111313498D01*
X133522022Y-111313498D01*
X133664879Y-111361117D01*
X134045831Y-112027784D02*
X134522022Y-112027784D01*
X133950593Y-112313498D02*
X134283926Y-111313498D01*
X134617260Y-112313498D01*
X135474403Y-112313498D02*
X134902974Y-112313498D01*
X135188688Y-112313498D02*
X135188688Y-111313498D01*
X135093450Y-111456355D01*
X134998212Y-111551593D01*
X134902974Y-111599212D01*
X136331546Y-111646831D02*
X136331546Y-112313498D01*
X136093450Y-111265879D02*
X135855355Y-111980165D01*
X136474403Y-111980165D01*
X132712498Y-104693498D02*
X132379164Y-104217307D01*
X132141069Y-104693498D02*
X132141069Y-103693498D01*
X132522022Y-103693498D01*
X132617260Y-103741117D01*
X132664879Y-103788736D01*
X132712498Y-103883974D01*
X132712498Y-104026831D01*
X132664879Y-104122069D01*
X132617260Y-104169688D01*
X132522022Y-104217307D01*
X132141069Y-104217307D01*
X133093450Y-104645879D02*
X133236307Y-104693498D01*
X133474403Y-104693498D01*
X133569641Y-104645879D01*
X133617260Y-104598260D01*
X133664879Y-104503022D01*
X133664879Y-104407784D01*
X133617260Y-104312546D01*
X133569641Y-104264927D01*
X133474403Y-104217307D01*
X133283926Y-104169688D01*
X133188688Y-104122069D01*
X133141069Y-104074450D01*
X133093450Y-103979212D01*
X133093450Y-103883974D01*
X133141069Y-103788736D01*
X133188688Y-103741117D01*
X133283926Y-103693498D01*
X133522022Y-103693498D01*
X133664879Y-103741117D01*
X134045831Y-104407784D02*
X134522022Y-104407784D01*
X133950593Y-104693498D02*
X134283926Y-103693498D01*
X134617260Y-104693498D01*
X135474403Y-104693498D02*
X134902974Y-104693498D01*
X135188688Y-104693498D02*
X135188688Y-103693498D01*
X135093450Y-103836355D01*
X134998212Y-103931593D01*
X134902974Y-103979212D01*
X136379165Y-103693498D02*
X135902974Y-103693498D01*
X135855355Y-104169688D01*
X135902974Y-104122069D01*
X135998212Y-104074450D01*
X136236308Y-104074450D01*
X136331546Y-104122069D01*
X136379165Y-104169688D01*
X136426784Y-104264927D01*
X136426784Y-104503022D01*
X136379165Y-104598260D01*
X136331546Y-104645879D01*
X136236308Y-104693498D01*
X135998212Y-104693498D01*
X135902974Y-104645879D01*
X135855355Y-104598260D01*
X145412498Y-135173498D02*
X145079164Y-134697307D01*
X144841069Y-135173498D02*
X144841069Y-134173498D01*
X145222022Y-134173498D01*
X145317260Y-134221117D01*
X145364879Y-134268736D01*
X145412498Y-134363974D01*
X145412498Y-134506831D01*
X145364879Y-134602069D01*
X145317260Y-134649688D01*
X145222022Y-134697307D01*
X144841069Y-134697307D01*
X145793450Y-135125879D02*
X145936307Y-135173498D01*
X146174403Y-135173498D01*
X146269641Y-135125879D01*
X146317260Y-135078260D01*
X146364879Y-134983022D01*
X146364879Y-134887784D01*
X146317260Y-134792546D01*
X146269641Y-134744927D01*
X146174403Y-134697307D01*
X145983926Y-134649688D01*
X145888688Y-134602069D01*
X145841069Y-134554450D01*
X145793450Y-134459212D01*
X145793450Y-134363974D01*
X145841069Y-134268736D01*
X145888688Y-134221117D01*
X145983926Y-134173498D01*
X146222022Y-134173498D01*
X146364879Y-134221117D01*
X146745831Y-134887784D02*
X147222022Y-134887784D01*
X146650593Y-135173498D02*
X146983926Y-134173498D01*
X147317260Y-135173498D01*
X148174403Y-135173498D02*
X147602974Y-135173498D01*
X147888688Y-135173498D02*
X147888688Y-134173498D01*
X147793450Y-134316355D01*
X147698212Y-134411593D01*
X147602974Y-134459212D01*
X149031546Y-134173498D02*
X148841069Y-134173498D01*
X148745831Y-134221117D01*
X148698212Y-134268736D01*
X148602974Y-134411593D01*
X148555355Y-134602069D01*
X148555355Y-134983022D01*
X148602974Y-135078260D01*
X148650593Y-135125879D01*
X148745831Y-135173498D01*
X148936308Y-135173498D01*
X149031546Y-135125879D01*
X149079165Y-135078260D01*
X149126784Y-134983022D01*
X149126784Y-134744927D01*
X149079165Y-134649688D01*
X149031546Y-134602069D01*
X148936308Y-134554450D01*
X148745831Y-134554450D01*
X148650593Y-134602069D01*
X148602974Y-134649688D01*
X148555355Y-134744927D01*
X145412498Y-127553498D02*
X145079164Y-127077307D01*
X144841069Y-127553498D02*
X144841069Y-126553498D01*
X145222022Y-126553498D01*
X145317260Y-126601117D01*
X145364879Y-126648736D01*
X145412498Y-126743974D01*
X145412498Y-126886831D01*
X145364879Y-126982069D01*
X145317260Y-127029688D01*
X145222022Y-127077307D01*
X144841069Y-127077307D01*
X145793450Y-127505879D02*
X145936307Y-127553498D01*
X146174403Y-127553498D01*
X146269641Y-127505879D01*
X146317260Y-127458260D01*
X146364879Y-127363022D01*
X146364879Y-127267784D01*
X146317260Y-127172546D01*
X146269641Y-127124927D01*
X146174403Y-127077307D01*
X145983926Y-127029688D01*
X145888688Y-126982069D01*
X145841069Y-126934450D01*
X145793450Y-126839212D01*
X145793450Y-126743974D01*
X145841069Y-126648736D01*
X145888688Y-126601117D01*
X145983926Y-126553498D01*
X146222022Y-126553498D01*
X146364879Y-126601117D01*
X146745831Y-127267784D02*
X147222022Y-127267784D01*
X146650593Y-127553498D02*
X146983926Y-126553498D01*
X147317260Y-127553498D01*
X148174403Y-127553498D02*
X147602974Y-127553498D01*
X147888688Y-127553498D02*
X147888688Y-126553498D01*
X147793450Y-126696355D01*
X147698212Y-126791593D01*
X147602974Y-126839212D01*
X148507736Y-126553498D02*
X149174403Y-126553498D01*
X148745831Y-127553498D01*
X145412498Y-119933498D02*
X145079164Y-119457307D01*
X144841069Y-119933498D02*
X144841069Y-118933498D01*
X145222022Y-118933498D01*
X145317260Y-118981117D01*
X145364879Y-119028736D01*
X145412498Y-119123974D01*
X145412498Y-119266831D01*
X145364879Y-119362069D01*
X145317260Y-119409688D01*
X145222022Y-119457307D01*
X144841069Y-119457307D01*
X145793450Y-119885879D02*
X145936307Y-119933498D01*
X146174403Y-119933498D01*
X146269641Y-119885879D01*
X146317260Y-119838260D01*
X146364879Y-119743022D01*
X146364879Y-119647784D01*
X146317260Y-119552546D01*
X146269641Y-119504927D01*
X146174403Y-119457307D01*
X145983926Y-119409688D01*
X145888688Y-119362069D01*
X145841069Y-119314450D01*
X145793450Y-119219212D01*
X145793450Y-119123974D01*
X145841069Y-119028736D01*
X145888688Y-118981117D01*
X145983926Y-118933498D01*
X146222022Y-118933498D01*
X146364879Y-118981117D01*
X146745831Y-119647784D02*
X147222022Y-119647784D01*
X146650593Y-119933498D02*
X146983926Y-118933498D01*
X147317260Y-119933498D01*
X148174403Y-119933498D02*
X147602974Y-119933498D01*
X147888688Y-119933498D02*
X147888688Y-118933498D01*
X147793450Y-119076355D01*
X147698212Y-119171593D01*
X147602974Y-119219212D01*
X148745831Y-119362069D02*
X148650593Y-119314450D01*
X148602974Y-119266831D01*
X148555355Y-119171593D01*
X148555355Y-119123974D01*
X148602974Y-119028736D01*
X148650593Y-118981117D01*
X148745831Y-118933498D01*
X148936308Y-118933498D01*
X149031546Y-118981117D01*
X149079165Y-119028736D01*
X149126784Y-119123974D01*
X149126784Y-119171593D01*
X149079165Y-119266831D01*
X149031546Y-119314450D01*
X148936308Y-119362069D01*
X148745831Y-119362069D01*
X148650593Y-119409688D01*
X148602974Y-119457307D01*
X148555355Y-119552546D01*
X148555355Y-119743022D01*
X148602974Y-119838260D01*
X148650593Y-119885879D01*
X148745831Y-119933498D01*
X148936308Y-119933498D01*
X149031546Y-119885879D01*
X149079165Y-119838260D01*
X149126784Y-119743022D01*
X149126784Y-119552546D01*
X149079165Y-119457307D01*
X149031546Y-119409688D01*
X148936308Y-119362069D01*
X145412498Y-112313498D02*
X145079164Y-111837307D01*
X144841069Y-112313498D02*
X144841069Y-111313498D01*
X145222022Y-111313498D01*
X145317260Y-111361117D01*
X145364879Y-111408736D01*
X145412498Y-111503974D01*
X145412498Y-111646831D01*
X145364879Y-111742069D01*
X145317260Y-111789688D01*
X145222022Y-111837307D01*
X144841069Y-111837307D01*
X145793450Y-112265879D02*
X145936307Y-112313498D01*
X146174403Y-112313498D01*
X146269641Y-112265879D01*
X146317260Y-112218260D01*
X146364879Y-112123022D01*
X146364879Y-112027784D01*
X146317260Y-111932546D01*
X146269641Y-111884927D01*
X146174403Y-111837307D01*
X145983926Y-111789688D01*
X145888688Y-111742069D01*
X145841069Y-111694450D01*
X145793450Y-111599212D01*
X145793450Y-111503974D01*
X145841069Y-111408736D01*
X145888688Y-111361117D01*
X145983926Y-111313498D01*
X146222022Y-111313498D01*
X146364879Y-111361117D01*
X146745831Y-112027784D02*
X147222022Y-112027784D01*
X146650593Y-112313498D02*
X146983926Y-111313498D01*
X147317260Y-112313498D01*
X148174403Y-112313498D02*
X147602974Y-112313498D01*
X147888688Y-112313498D02*
X147888688Y-111313498D01*
X147793450Y-111456355D01*
X147698212Y-111551593D01*
X147602974Y-111599212D01*
X148650593Y-112313498D02*
X148841069Y-112313498D01*
X148936308Y-112265879D01*
X148983927Y-112218260D01*
X149079165Y-112075403D01*
X149126784Y-111884927D01*
X149126784Y-111503974D01*
X149079165Y-111408736D01*
X149031546Y-111361117D01*
X148936308Y-111313498D01*
X148745831Y-111313498D01*
X148650593Y-111361117D01*
X148602974Y-111408736D01*
X148555355Y-111503974D01*
X148555355Y-111742069D01*
X148602974Y-111837307D01*
X148650593Y-111884927D01*
X148745831Y-111932546D01*
X148936308Y-111932546D01*
X149031546Y-111884927D01*
X149079165Y-111837307D01*
X149126784Y-111742069D01*
X145412498Y-104693498D02*
X145079164Y-104217307D01*
X144841069Y-104693498D02*
X144841069Y-103693498D01*
X145222022Y-103693498D01*
X145317260Y-103741117D01*
X145364879Y-103788736D01*
X145412498Y-103883974D01*
X145412498Y-104026831D01*
X145364879Y-104122069D01*
X145317260Y-104169688D01*
X145222022Y-104217307D01*
X144841069Y-104217307D01*
X145793450Y-104645879D02*
X145936307Y-104693498D01*
X146174403Y-104693498D01*
X146269641Y-104645879D01*
X146317260Y-104598260D01*
X146364879Y-104503022D01*
X146364879Y-104407784D01*
X146317260Y-104312546D01*
X146269641Y-104264927D01*
X146174403Y-104217307D01*
X145983926Y-104169688D01*
X145888688Y-104122069D01*
X145841069Y-104074450D01*
X145793450Y-103979212D01*
X145793450Y-103883974D01*
X145841069Y-103788736D01*
X145888688Y-103741117D01*
X145983926Y-103693498D01*
X146222022Y-103693498D01*
X146364879Y-103741117D01*
X146745831Y-104407784D02*
X147222022Y-104407784D01*
X146650593Y-104693498D02*
X146983926Y-103693498D01*
X147317260Y-104693498D01*
X147602974Y-103788736D02*
X147650593Y-103741117D01*
X147745831Y-103693498D01*
X147983927Y-103693498D01*
X148079165Y-103741117D01*
X148126784Y-103788736D01*
X148174403Y-103883974D01*
X148174403Y-103979212D01*
X148126784Y-104122069D01*
X147555355Y-104693498D01*
X148174403Y-104693498D01*
X148793450Y-103693498D02*
X148888689Y-103693498D01*
X148983927Y-103741117D01*
X149031546Y-103788736D01*
X149079165Y-103883974D01*
X149126784Y-104074450D01*
X149126784Y-104312546D01*
X149079165Y-104503022D01*
X149031546Y-104598260D01*
X148983927Y-104645879D01*
X148888689Y-104693498D01*
X148793450Y-104693498D01*
X148698212Y-104645879D01*
X148650593Y-104598260D01*
X148602974Y-104503022D01*
X148555355Y-104312546D01*
X148555355Y-104074450D01*
X148602974Y-103883974D01*
X148650593Y-103788736D01*
X148698212Y-103741117D01*
X148793450Y-103693498D01*
X168989524Y-57872381D02*
X168989524Y-58681905D01*
X169037143Y-58777143D01*
X169084762Y-58824762D01*
X169180000Y-58872381D01*
X169370477Y-58872381D01*
X169465715Y-58824762D01*
X169513334Y-58777143D01*
X169560953Y-58681905D01*
X169560953Y-57872381D01*
X169989524Y-58586667D02*
X170465715Y-58586667D01*
X169894286Y-58872381D02*
X170227619Y-57872381D01*
X170560953Y-58872381D01*
X171418096Y-58872381D02*
X170846667Y-58872381D01*
X171132381Y-58872381D02*
X171132381Y-57872381D01*
X171037143Y-58015238D01*
X170941905Y-58110476D01*
X170846667Y-58158095D01*
X125628070Y-79891415D02*
X125628070Y-80700939D01*
X125675689Y-80796177D01*
X125723308Y-80843796D01*
X125818546Y-80891415D01*
X126009023Y-80891415D01*
X126104261Y-80843796D01*
X126151880Y-80796177D01*
X126199499Y-80700939D01*
X126199499Y-79891415D01*
X126628070Y-80605701D02*
X127104261Y-80605701D01*
X126532832Y-80891415D02*
X126866165Y-79891415D01*
X127199499Y-80891415D01*
X127485213Y-79986653D02*
X127532832Y-79939034D01*
X127628070Y-79891415D01*
X127866166Y-79891415D01*
X127961404Y-79939034D01*
X128009023Y-79986653D01*
X128056642Y-80081891D01*
X128056642Y-80177129D01*
X128009023Y-80319986D01*
X127437594Y-80891415D01*
X128056642Y-80891415D01*
X155912381Y-112950476D02*
X156721905Y-112950476D01*
X156817143Y-112902857D01*
X156864762Y-112855238D01*
X156912381Y-112760000D01*
X156912381Y-112569523D01*
X156864762Y-112474285D01*
X156817143Y-112426666D01*
X156721905Y-112379047D01*
X155912381Y-112379047D01*
X156626667Y-111950476D02*
X156626667Y-111474285D01*
X156912381Y-112045714D02*
X155912381Y-111712381D01*
X156912381Y-111379047D01*
X155912381Y-111140952D02*
X155912381Y-110521904D01*
X156293333Y-110855238D01*
X156293333Y-110712380D01*
X156340952Y-110617142D01*
X156388571Y-110569523D01*
X156483810Y-110521904D01*
X156721905Y-110521904D01*
X156817143Y-110569523D01*
X156864762Y-110617142D01*
X156912381Y-110712380D01*
X156912381Y-110998095D01*
X156864762Y-111093333D01*
X156817143Y-111140952D01*
X89872381Y-78660476D02*
X90681905Y-78660476D01*
X90777143Y-78612857D01*
X90824762Y-78565238D01*
X90872381Y-78470000D01*
X90872381Y-78279523D01*
X90824762Y-78184285D01*
X90777143Y-78136666D01*
X90681905Y-78089047D01*
X89872381Y-78089047D01*
X90586667Y-77660476D02*
X90586667Y-77184285D01*
X90872381Y-77755714D02*
X89872381Y-77422381D01*
X90872381Y-77089047D01*
X90205714Y-76327142D02*
X90872381Y-76327142D01*
X89824762Y-76565238D02*
X90539048Y-76803333D01*
X90539048Y-76184285D01*
X157952381Y-82470476D02*
X158761905Y-82470476D01*
X158857143Y-82422857D01*
X158904762Y-82375238D01*
X158952381Y-82280000D01*
X158952381Y-82089523D01*
X158904762Y-81994285D01*
X158857143Y-81946666D01*
X158761905Y-81899047D01*
X157952381Y-81899047D01*
X158666667Y-81470476D02*
X158666667Y-80994285D01*
X158952381Y-81565714D02*
X157952381Y-81232381D01*
X158952381Y-80899047D01*
X157952381Y-80089523D02*
X157952381Y-80565714D01*
X158428571Y-80613333D01*
X158380952Y-80565714D01*
X158333333Y-80470476D01*
X158333333Y-80232380D01*
X158380952Y-80137142D01*
X158428571Y-80089523D01*
X158523810Y-80041904D01*
X158761905Y-80041904D01*
X158857143Y-80089523D01*
X158904762Y-80137142D01*
X158952381Y-80232380D01*
X158952381Y-80470476D01*
X158904762Y-80565714D01*
X158857143Y-80613333D01*
X84641813Y-53586481D02*
X84641813Y-54396005D01*
X84689432Y-54491243D01*
X84737051Y-54538862D01*
X84832289Y-54586481D01*
X85022766Y-54586481D01*
X85118004Y-54538862D01*
X85165623Y-54491243D01*
X85213242Y-54396005D01*
X85213242Y-53586481D01*
X86213242Y-54586481D02*
X85641813Y-54586481D01*
X85927527Y-54586481D02*
X85927527Y-53586481D01*
X85832289Y-53729338D01*
X85737051Y-53824576D01*
X85641813Y-53872195D01*
X165028571Y-113355238D02*
X165076190Y-113212381D01*
X165123810Y-113164762D01*
X165219048Y-113117143D01*
X165361905Y-113117143D01*
X165457143Y-113164762D01*
X165504762Y-113212381D01*
X165552381Y-113307619D01*
X165552381Y-113688572D01*
X164552381Y-113688572D01*
X164552381Y-113355238D01*
X164600000Y-113260000D01*
X164647619Y-113212381D01*
X164742857Y-113164762D01*
X164838095Y-113164762D01*
X164933333Y-113212381D01*
X164980952Y-113260000D01*
X165028571Y-113355238D01*
X165028571Y-113688572D01*
X165266667Y-112736191D02*
X165266667Y-112260000D01*
X165552381Y-112831429D02*
X164552381Y-112498096D01*
X165552381Y-112164762D01*
X164552381Y-111974286D02*
X164552381Y-111402857D01*
X165552381Y-111688572D02*
X164552381Y-111688572D01*
X164552381Y-111212381D02*
X164552381Y-110640952D01*
X165552381Y-110926667D02*
X164552381Y-110926667D01*
X165552381Y-109783809D02*
X165552381Y-110355238D01*
X165552381Y-110069524D02*
X164552381Y-110069524D01*
X164695238Y-110164762D01*
X164790476Y-110260000D01*
X164838095Y-110355238D01*
X119578572Y-53792381D02*
X119245238Y-53316190D01*
X119007143Y-53792381D02*
X119007143Y-52792381D01*
X119388096Y-52792381D01*
X119483334Y-52840000D01*
X119530953Y-52887619D01*
X119578572Y-52982857D01*
X119578572Y-53125714D01*
X119530953Y-53220952D01*
X119483334Y-53268571D01*
X119388096Y-53316190D01*
X119007143Y-53316190D01*
X119959524Y-53506667D02*
X120435715Y-53506667D01*
X119864286Y-53792381D02*
X120197619Y-52792381D01*
X120530953Y-53792381D01*
X121388096Y-53792381D02*
X120816667Y-53792381D01*
X121102381Y-53792381D02*
X121102381Y-52792381D01*
X121007143Y-52935238D01*
X120911905Y-53030476D01*
X120816667Y-53078095D01*
X122007143Y-52792381D02*
X122102382Y-52792381D01*
X122197620Y-52840000D01*
X122245239Y-52887619D01*
X122292858Y-52982857D01*
X122340477Y-53173333D01*
X122340477Y-53411429D01*
X122292858Y-53601905D01*
X122245239Y-53697143D01*
X122197620Y-53744762D01*
X122102382Y-53792381D01*
X122007143Y-53792381D01*
X121911905Y-53744762D01*
X121864286Y-53697143D01*
X121816667Y-53601905D01*
X121769048Y-53411429D01*
X121769048Y-53173333D01*
X121816667Y-52982857D01*
X121864286Y-52887619D01*
X121911905Y-52840000D01*
X122007143Y-52792381D01*
X128944762Y-53792381D02*
X128611428Y-53316190D01*
X128373333Y-53792381D02*
X128373333Y-52792381D01*
X128754286Y-52792381D01*
X128849524Y-52840000D01*
X128897143Y-52887619D01*
X128944762Y-52982857D01*
X128944762Y-53125714D01*
X128897143Y-53220952D01*
X128849524Y-53268571D01*
X128754286Y-53316190D01*
X128373333Y-53316190D01*
X129325714Y-53506667D02*
X129801905Y-53506667D01*
X129230476Y-53792381D02*
X129563809Y-52792381D01*
X129897143Y-53792381D01*
X130278095Y-53792381D02*
X130468571Y-53792381D01*
X130563810Y-53744762D01*
X130611429Y-53697143D01*
X130706667Y-53554286D01*
X130754286Y-53363810D01*
X130754286Y-52982857D01*
X130706667Y-52887619D01*
X130659048Y-52840000D01*
X130563810Y-52792381D01*
X130373333Y-52792381D01*
X130278095Y-52840000D01*
X130230476Y-52887619D01*
X130182857Y-52982857D01*
X130182857Y-53220952D01*
X130230476Y-53316190D01*
X130278095Y-53363810D01*
X130373333Y-53411429D01*
X130563810Y-53411429D01*
X130659048Y-53363810D01*
X130706667Y-53316190D01*
X130754286Y-53220952D01*
X85542381Y-82716666D02*
X85066190Y-83050000D01*
X85542381Y-83288095D02*
X84542381Y-83288095D01*
X84542381Y-82907142D01*
X84590000Y-82811904D01*
X84637619Y-82764285D01*
X84732857Y-82716666D01*
X84875714Y-82716666D01*
X84970952Y-82764285D01*
X85018571Y-82811904D01*
X85066190Y-82907142D01*
X85066190Y-83288095D01*
X84542381Y-82383333D02*
X84542381Y-81764285D01*
X84923333Y-82097619D01*
X84923333Y-81954761D01*
X84970952Y-81859523D01*
X85018571Y-81811904D01*
X85113810Y-81764285D01*
X85351905Y-81764285D01*
X85447143Y-81811904D01*
X85494762Y-81859523D01*
X85542381Y-81954761D01*
X85542381Y-82240476D01*
X85494762Y-82335714D01*
X85447143Y-82383333D01*
X83002381Y-82716666D02*
X82526190Y-83050000D01*
X83002381Y-83288095D02*
X82002381Y-83288095D01*
X82002381Y-82907142D01*
X82050000Y-82811904D01*
X82097619Y-82764285D01*
X82192857Y-82716666D01*
X82335714Y-82716666D01*
X82430952Y-82764285D01*
X82478571Y-82811904D01*
X82526190Y-82907142D01*
X82526190Y-83288095D01*
X82335714Y-81859523D02*
X83002381Y-81859523D01*
X81954762Y-82097619D02*
X82669048Y-82335714D01*
X82669048Y-81716666D01*
X80462381Y-82716666D02*
X79986190Y-83050000D01*
X80462381Y-83288095D02*
X79462381Y-83288095D01*
X79462381Y-82907142D01*
X79510000Y-82811904D01*
X79557619Y-82764285D01*
X79652857Y-82716666D01*
X79795714Y-82716666D01*
X79890952Y-82764285D01*
X79938571Y-82811904D01*
X79986190Y-82907142D01*
X79986190Y-83288095D01*
X79462381Y-81811904D02*
X79462381Y-82288095D01*
X79938571Y-82335714D01*
X79890952Y-82288095D01*
X79843333Y-82192857D01*
X79843333Y-81954761D01*
X79890952Y-81859523D01*
X79938571Y-81811904D01*
X80033810Y-81764285D01*
X80271905Y-81764285D01*
X80367143Y-81811904D01*
X80414762Y-81859523D01*
X80462381Y-81954761D01*
X80462381Y-82192857D01*
X80414762Y-82288095D01*
X80367143Y-82335714D01*
X77922381Y-82556666D02*
X77446190Y-82890000D01*
X77922381Y-83128095D02*
X76922381Y-83128095D01*
X76922381Y-82747142D01*
X76970000Y-82651904D01*
X77017619Y-82604285D01*
X77112857Y-82556666D01*
X77255714Y-82556666D01*
X77350952Y-82604285D01*
X77398571Y-82651904D01*
X77446190Y-82747142D01*
X77446190Y-83128095D01*
X76922381Y-81699523D02*
X76922381Y-81890000D01*
X76970000Y-81985238D01*
X77017619Y-82032857D01*
X77160476Y-82128095D01*
X77350952Y-82175714D01*
X77731905Y-82175714D01*
X77827143Y-82128095D01*
X77874762Y-82080476D01*
X77922381Y-81985238D01*
X77922381Y-81794761D01*
X77874762Y-81699523D01*
X77827143Y-81651904D01*
X77731905Y-81604285D01*
X77493810Y-81604285D01*
X77398571Y-81651904D01*
X77350952Y-81699523D01*
X77303333Y-81794761D01*
X77303333Y-81985238D01*
X77350952Y-82080476D01*
X77398571Y-82128095D01*
X77493810Y-82175714D01*
X179522381Y-87046666D02*
X179046190Y-87380000D01*
X179522381Y-87618095D02*
X178522381Y-87618095D01*
X178522381Y-87237142D01*
X178570000Y-87141904D01*
X178617619Y-87094285D01*
X178712857Y-87046666D01*
X178855714Y-87046666D01*
X178950952Y-87094285D01*
X178998571Y-87141904D01*
X179046190Y-87237142D01*
X179046190Y-87618095D01*
X178998571Y-86284761D02*
X179046190Y-86141904D01*
X179093810Y-86094285D01*
X179189048Y-86046666D01*
X179331905Y-86046666D01*
X179427143Y-86094285D01*
X179474762Y-86141904D01*
X179522381Y-86237142D01*
X179522381Y-86618095D01*
X178522381Y-86618095D01*
X178522381Y-86284761D01*
X178570000Y-86189523D01*
X178617619Y-86141904D01*
X178712857Y-86094285D01*
X178808095Y-86094285D01*
X178903333Y-86141904D01*
X178950952Y-86189523D01*
X178998571Y-86284761D01*
X178998571Y-86618095D01*
X178522381Y-85713333D02*
X178522381Y-85094285D01*
X178903333Y-85427619D01*
X178903333Y-85284761D01*
X178950952Y-85189523D01*
X178998571Y-85141904D01*
X179093810Y-85094285D01*
X179331905Y-85094285D01*
X179427143Y-85141904D01*
X179474762Y-85189523D01*
X179522381Y-85284761D01*
X179522381Y-85570476D01*
X179474762Y-85665714D01*
X179427143Y-85713333D01*
X182062381Y-87026666D02*
X181586190Y-87360000D01*
X182062381Y-87598095D02*
X181062381Y-87598095D01*
X181062381Y-87217142D01*
X181110000Y-87121904D01*
X181157619Y-87074285D01*
X181252857Y-87026666D01*
X181395714Y-87026666D01*
X181490952Y-87074285D01*
X181538571Y-87121904D01*
X181586190Y-87217142D01*
X181586190Y-87598095D01*
X181538571Y-86264761D02*
X181586190Y-86121904D01*
X181633810Y-86074285D01*
X181729048Y-86026666D01*
X181871905Y-86026666D01*
X181967143Y-86074285D01*
X182014762Y-86121904D01*
X182062381Y-86217142D01*
X182062381Y-86598095D01*
X181062381Y-86598095D01*
X181062381Y-86264761D01*
X181110000Y-86169523D01*
X181157619Y-86121904D01*
X181252857Y-86074285D01*
X181348095Y-86074285D01*
X181443333Y-86121904D01*
X181490952Y-86169523D01*
X181538571Y-86264761D01*
X181538571Y-86598095D01*
X181062381Y-85169523D02*
X181062381Y-85360000D01*
X181110000Y-85455238D01*
X181157619Y-85502857D01*
X181300476Y-85598095D01*
X181490952Y-85645714D01*
X181871905Y-85645714D01*
X181967143Y-85598095D01*
X182014762Y-85550476D01*
X182062381Y-85455238D01*
X182062381Y-85264761D01*
X182014762Y-85169523D01*
X181967143Y-85121904D01*
X181871905Y-85074285D01*
X181633810Y-85074285D01*
X181538571Y-85121904D01*
X181490952Y-85169523D01*
X181443333Y-85264761D01*
X181443333Y-85455238D01*
X181490952Y-85550476D01*
X181538571Y-85598095D01*
X181633810Y-85645714D01*
X57523857Y-102942856D02*
X56952429Y-103342856D01*
X57523857Y-103628571D02*
X56323857Y-103628571D01*
X56323857Y-103171428D01*
X56381000Y-103057142D01*
X56438143Y-102999999D01*
X56552429Y-102942856D01*
X56723857Y-102942856D01*
X56838143Y-102999999D01*
X56895286Y-103057142D01*
X56952429Y-103171428D01*
X56952429Y-103628571D01*
X56895286Y-102428571D02*
X56895286Y-102028571D01*
X57523857Y-101857142D02*
X57523857Y-102428571D01*
X56323857Y-102428571D01*
X56323857Y-101857142D01*
X56381000Y-100714285D02*
X56323857Y-100828571D01*
X56323857Y-101000000D01*
X56381000Y-101171428D01*
X56495286Y-101285714D01*
X56609571Y-101342857D01*
X56838143Y-101400000D01*
X57009571Y-101400000D01*
X57238143Y-101342857D01*
X57352429Y-101285714D01*
X57466714Y-101171428D01*
X57523857Y-101000000D01*
X57523857Y-100885714D01*
X57466714Y-100714285D01*
X57409571Y-100657142D01*
X57009571Y-100657142D01*
X57009571Y-100885714D01*
X57523857Y-99514285D02*
X57523857Y-100200000D01*
X57523857Y-99857142D02*
X56323857Y-99857142D01*
X56495286Y-99971428D01*
X56609571Y-100085714D01*
X56666714Y-100200000D01*
X61896667Y-49744381D02*
X61896667Y-50458667D01*
X61849047Y-50601524D01*
X61753809Y-50696762D01*
X61610952Y-50744381D01*
X61515714Y-50744381D01*
X62277619Y-49744381D02*
X62896667Y-49744381D01*
X62563333Y-50125333D01*
X62706191Y-50125333D01*
X62801429Y-50172952D01*
X62849048Y-50220571D01*
X62896667Y-50315810D01*
X62896667Y-50553905D01*
X62849048Y-50649143D01*
X62801429Y-50696762D01*
X62706191Y-50744381D01*
X62420476Y-50744381D01*
X62325238Y-50696762D01*
X62277619Y-50649143D01*
M02*
