M48
;DRILL file {KiCad 4.0.7} date 12/04/17 20:18:33
;FORMAT={-:-/ absolute / inch / decimal}
FMAT,2
INCH,TZ
T1C0.016
T2C0.031
T3C0.036
T4C0.039
T5C0.040
T6C0.047
T7C0.065
T8C0.106
T9C0.120
%
G90
G05
M72
T1
X2.7986Y-2.6967
X2.9818Y-2.1501
X3.0802Y-2.843
X3.0805Y-2.7
X3.1467Y-2.1842
X3.15Y-2.1
X4.1872Y-2.2111
X4.2593Y-2.1401
X4.4653Y-3.0367
X4.8484Y-1.9016
X4.908Y-2.5939
X4.944Y-3.0718
X4.9929Y-2.9478
X5.2Y-1.9
X5.3822Y-3.0504
X6.1Y-1.9
X6.1Y-2.05
X6.1Y-2.2
X6.25Y-2.4
X6.25Y-2.7
X6.3755Y-2.8167
X6.55Y-2.85
X7.Y-3.05
X8.1127Y-3.0463
X8.5Y-2.6
X8.5158Y-3.0705
X8.5947Y-2.9062
X8.9765Y-3.0589
X9.85Y-2.4
X9.95Y-2.8
X10.15Y-2.85
T2
X2.3453Y-3.6626
X2.3453Y-4.3374
X3.7Y-3.05
X3.7Y-3.15
X3.7Y-3.25
X3.9Y-3.6626
X3.9Y-4.3374
X6.1Y-3.1
X6.1Y-3.2
X6.1Y-3.3
X6.3Y-4.3
X6.3Y-4.4
X6.3Y-4.5
X7.3Y-3.05
X7.3Y-3.15
X7.3Y-3.25
X9.7Y-3.1
X9.7Y-3.2
X9.7Y-3.3
X9.9Y-4.3
X9.9Y-4.4
X9.9Y-4.5
T3
X2.7Y-1.65
X2.7Y-1.75
X2.8Y-1.65
X2.8Y-1.75
X2.9Y-1.65
X2.9Y-1.75
X3.Y-1.65
X3.Y-1.75
X3.1Y-1.65
X3.1Y-1.75
X3.2Y-1.65
X3.2Y-1.75
X3.3Y-1.65
X3.3Y-1.75
X3.4Y-1.65
X3.4Y-1.75
T4
X3.95Y-3.05
X3.95Y-3.15
X3.95Y-3.25
X5.8Y-3.05
X5.8Y-3.15
X5.8Y-3.25
X6.35Y-3.
X6.3574Y-2.5307
X6.45Y-3.
X6.4574Y-2.5307
X6.55Y-3.
X6.5574Y-2.5307
X7.55Y-3.05
X7.55Y-3.15
X7.55Y-3.25
X9.4Y-3.05
X9.4Y-3.15
X9.4Y-3.25
X9.95Y-3.
X9.9574Y-2.5307
X10.05Y-3.
X10.0574Y-2.5307
X10.15Y-3.
X10.1574Y-2.5307
T6
X4.0858Y-3.9441
X4.0858Y-4.2441
X4.0858Y-4.5441
X4.0858Y-4.8441
X4.0858Y-5.1441
X4.3858Y-3.9441
X4.3858Y-4.2441
X4.3858Y-4.5441
X4.3858Y-4.8441
X4.3858Y-5.1441
X4.5858Y-3.9441
X4.5858Y-4.2441
X4.5858Y-4.5441
X4.5858Y-4.8441
X4.5858Y-5.1441
X4.6516Y-2.2531
X4.75Y-2.45
X4.8484Y-2.2531
X4.8858Y-3.9441
X4.8858Y-4.2441
X4.8858Y-4.5441
X4.8858Y-4.8441
X4.8858Y-5.1441
X5.0016Y-2.2531
X5.1Y-2.45
X5.1358Y-3.9441
X5.1358Y-4.2441
X5.1358Y-4.5441
X5.1358Y-4.8441
X5.1358Y-5.1441
X5.1984Y-2.2531
X5.4358Y-3.9441
X5.4358Y-4.2441
X5.4358Y-4.5441
X5.4358Y-4.8441
X5.4358Y-5.1441
X5.6358Y-3.9441
X5.6358Y-4.2441
X5.6358Y-4.5441
X5.6358Y-4.8441
X5.6358Y-5.1441
X5.9358Y-3.9441
X5.9358Y-4.2441
X5.9358Y-4.5441
X5.9358Y-4.8441
X5.9358Y-5.1441
X7.6858Y-3.9441
X7.6858Y-4.2441
X7.6858Y-4.5441
X7.6858Y-4.8441
X7.6858Y-5.1441
X7.9858Y-3.9441
X7.9858Y-4.2441
X7.9858Y-4.5441
X7.9858Y-4.8441
X7.9858Y-5.1441
X8.1858Y-3.9441
X8.1858Y-4.2441
X8.1858Y-4.5441
X8.1858Y-4.8441
X8.1858Y-5.1441
X8.2516Y-2.2531
X8.35Y-2.45
X8.4484Y-2.2531
X8.4858Y-3.9441
X8.4858Y-4.2441
X8.4858Y-4.5441
X8.4858Y-4.8441
X8.4858Y-5.1441
X8.6016Y-2.2531
X8.7Y-2.45
X8.7358Y-3.9441
X8.7358Y-4.2441
X8.7358Y-4.5441
X8.7358Y-4.8441
X8.7358Y-5.1441
X8.7984Y-2.2531
X9.0358Y-3.9441
X9.0358Y-4.2441
X9.0358Y-4.5441
X9.0358Y-4.8441
X9.0358Y-5.1441
X9.2358Y-3.9441
X9.2358Y-4.2441
X9.2358Y-4.5441
X9.2358Y-4.8441
X9.2358Y-5.1441
X9.5358Y-3.9441
X9.5358Y-4.2441
X9.5358Y-4.5441
X9.5358Y-4.8441
X9.5358Y-5.1441
T7
X6.35Y-3.5
X6.35Y-5.3
X6.45Y-3.2
X6.45Y-5.6
X6.55Y-3.5
X6.55Y-5.3
X9.95Y-3.5
X9.95Y-5.3
X10.05Y-3.2
X10.05Y-5.6
X10.15Y-3.5
X10.15Y-5.3
T8
X2.35Y-1.7
X3.75Y-1.7
T9
X2.45Y-2.1
T5
X2.5598Y-2.8701G85X2.5598Y-2.9299
G05
X2.6201Y-3.1G85X2.6799Y-3.1
G05
X2.8Y-2.8701G85X2.8Y-2.9299
G05
T0
M30
