M48
INCH,TZ
T1C0.016
T2C0.031
T3C0.036
T4C0.039
T5C0.040
T6C0.047
T7C0.065
T8C0.106
T9C0.122
%
G90
G05
T1
X27986Y-26967
X29818Y-21501
X30802Y-28430
X30805Y-27000
X31467Y-21842
X31500Y-21000
X41872Y-22111
X42593Y-21401
X44653Y-30367
X48484Y-19016
X49080Y-25939
X49440Y-30718
X49929Y-29478
X52000Y-19000
X53822Y-30504
X61000Y-19000
X61000Y-20500
X61000Y-22000
X62500Y-24000
X62500Y-27000
X63755Y-28167
X65500Y-28500
X70000Y-30500
X81127Y-30463
X85000Y-26000
X85158Y-30705
X85947Y-29062
X89765Y-30589
X98500Y-24000
X99500Y-28000
X101500Y-28500
T2
X23453Y-36626
X23453Y-43374
X37000Y-30500
X37000Y-31500
X37000Y-32500
X39000Y-36626
X39000Y-43374
X61000Y-31000
X61000Y-32000
X61000Y-33000
X63000Y-43000
X63000Y-44000
X63000Y-45000
X73000Y-30500
X73000Y-31500
X73000Y-32500
X97000Y-31000
X97000Y-32000
X97000Y-33000
X99000Y-43000
X99000Y-44000
X99000Y-45000
T3
X24500Y-21000
X31000Y-16500
X31000Y-17500
X32000Y-16500
X32000Y-17500
X33000Y-16500
X33000Y-17500
X34000Y-16500
X34000Y-17500
X35000Y-16500
X35000Y-17500
X36000Y-16500
X36000Y-17500
X37000Y-16500
X37000Y-17500
X38000Y-16500
X38000Y-17500
T4
X39500Y-30500
X39500Y-31500
X39500Y-32500
X58000Y-30500
X58000Y-31500
X58000Y-32500
X63500Y-30000
X63574Y-25307
X64500Y-30000
X64574Y-25307
X65500Y-30000
X65574Y-25307
X75500Y-30500
X75500Y-31500
X75500Y-32500
X94000Y-30500
X94000Y-31500
X94000Y-32500
X99500Y-30000
X99574Y-25307
X100500Y-30000
X100574Y-25307
X101500Y-30000
X101574Y-25307
T6
X40858Y-39441
X40858Y-42441
X40858Y-45441
X40858Y-48441
X40858Y-51441
X43858Y-39441
X43858Y-42441
X43858Y-45441
X43858Y-48441
X43858Y-51441
X45858Y-39441
X45858Y-42441
X45858Y-45441
X45858Y-48441
X45858Y-51441
X46516Y-22531
X47500Y-24500
X48484Y-22531
X48858Y-39441
X48858Y-42441
X48858Y-45441
X48858Y-48441
X48858Y-51441
X50016Y-22531
X51000Y-24500
X51358Y-39441
X51358Y-42441
X51358Y-45441
X51358Y-48441
X51358Y-51441
X51984Y-22531
X54358Y-39441
X54358Y-42441
X54358Y-45441
X54358Y-48441
X54358Y-51441
X56358Y-39441
X56358Y-42441
X56358Y-45441
X56358Y-48441
X56358Y-51441
X59358Y-39441
X59358Y-42441
X59358Y-45441
X59358Y-48441
X59358Y-51441
X76858Y-39441
X76858Y-42441
X76858Y-45441
X76858Y-48441
X76858Y-51441
X79858Y-39441
X79858Y-42441
X79858Y-45441
X79858Y-48441
X79858Y-51441
X81858Y-39441
X81858Y-42441
X81858Y-45441
X81858Y-48441
X81858Y-51441
X82516Y-22531
X83500Y-24500
X84484Y-22531
X84858Y-39441
X84858Y-42441
X84858Y-45441
X84858Y-48441
X84858Y-51441
X86016Y-22531
X87000Y-24500
X87358Y-39441
X87358Y-42441
X87358Y-45441
X87358Y-48441
X87358Y-51441
X87984Y-22531
X90358Y-39441
X90358Y-42441
X90358Y-45441
X90358Y-48441
X90358Y-51441
X92358Y-39441
X92358Y-42441
X92358Y-45441
X92358Y-48441
X92358Y-51441
X95358Y-39441
X95358Y-42441
X95358Y-45441
X95358Y-48441
X95358Y-51441
T7
X63500Y-35000
X63500Y-53000
X64500Y-32000
X64500Y-56000
X65500Y-35000
X65500Y-53000
X99500Y-35000
X99500Y-53000
X100500Y-32000
X100500Y-56000
X101500Y-35000
X101500Y-53000
T8
X27500Y-17000
X41500Y-17000
T9
X24000Y-17000
X24000Y-56000
X102500Y-17000
X102500Y-56000
T5
X25598Y-28701G85X25598Y-29299
G05
X26201Y-31000G85X26799Y-31000
G05
X28000Y-28701G85X28000Y-29299
G05
T0
M30
