M48
METRIC,TZ
T1C0.400
T2C0.800
T3C0.910
T4C1.000
T5C1.200
T6C1.651
T7C1.800
T8C2.690
T9C3.100
%
G90
G05
T1
X74930Y-69850
X75739Y-54613
X78238Y-72212
X79927Y-55478
X80010Y-53340
X106354Y-56162
X108186Y-54358
X113420Y-77132
X123150Y-48300
X124663Y-65885
X125576Y-78024
X126819Y-74874
X132080Y-48260
X136707Y-77479
X154940Y-48260
X154940Y-52070
X154940Y-55880
X158750Y-60960
X158750Y-68580
X161938Y-71544
X166370Y-72390
X177800Y-77470
X206061Y-77377
X215900Y-66040
X216301Y-77990
X218306Y-73818
X228004Y-77696
X250190Y-60960
X252730Y-71120
X257810Y-72390
T2
X59570Y-93030
X59570Y-110170
X93980Y-77470
X93980Y-80010
X93980Y-82550
X99060Y-93030
X99060Y-110170
X154940Y-78740
X154940Y-81280
X154940Y-83820
X160020Y-109220
X160020Y-111760
X160020Y-114300
X185420Y-77470
X185420Y-80010
X185420Y-82550
X246380Y-78740
X246380Y-81280
X246380Y-83820
X251460Y-109220
X251460Y-111760
X251460Y-114300
T3
X62230Y-53340
X78740Y-41910
X78740Y-44450
X81280Y-41910
X81280Y-44450
X83820Y-41910
X83820Y-44450
X86360Y-41910
X86360Y-44450
X88900Y-41910
X88900Y-44450
X91440Y-41910
X91440Y-44450
X93980Y-41910
X93980Y-44450
X96520Y-41910
X96520Y-44450
T4
X100330Y-77470
X100330Y-80010
X100330Y-82550
X147320Y-77470
X147320Y-80010
X147320Y-82550
X161290Y-76200
X161477Y-64279
X163830Y-76200
X164017Y-64279
X166370Y-76200
X166557Y-64279
X191770Y-77470
X191770Y-80010
X191770Y-82550
X238760Y-77470
X238760Y-80010
X238760Y-82550
X252730Y-76200
X252917Y-64279
X255270Y-76200
X255457Y-64279
X257810Y-76200
X257997Y-64279
T5
X103780Y-100181
X103780Y-107801
X103780Y-115421
X103780Y-123041
X103780Y-130661
X111400Y-100181
X111400Y-107801
X111400Y-115421
X111400Y-123041
X111400Y-130661
X116480Y-100181
X116480Y-107801
X116480Y-115421
X116480Y-123041
X116480Y-130661
X118150Y-57230
X120650Y-62230
X123150Y-57230
X124100Y-100181
X124100Y-107801
X124100Y-115421
X124100Y-123041
X124100Y-130661
X127040Y-57230
X129540Y-62230
X130450Y-100181
X130450Y-107801
X130450Y-115421
X130450Y-123041
X130450Y-130661
X132040Y-57230
X138070Y-100181
X138070Y-107801
X138070Y-115421
X138070Y-123041
X138070Y-130661
X143150Y-100181
X143150Y-107801
X143150Y-115421
X143150Y-123041
X143150Y-130661
X150770Y-100181
X150770Y-107801
X150770Y-115421
X150770Y-123041
X150770Y-130661
X195220Y-100181
X195220Y-107801
X195220Y-115421
X195220Y-123041
X195220Y-130661
X202840Y-100181
X202840Y-107801
X202840Y-115421
X202840Y-123041
X202840Y-130661
X207920Y-100181
X207920Y-107801
X207920Y-115421
X207920Y-123041
X207920Y-130661
X209590Y-57230
X212090Y-62230
X214590Y-57230
X215540Y-100181
X215540Y-107801
X215540Y-115421
X215540Y-123041
X215540Y-130661
X218480Y-57230
X220980Y-62230
X221890Y-100181
X221890Y-107801
X221890Y-115421
X221890Y-123041
X221890Y-130661
X223480Y-57230
X229510Y-100181
X229510Y-107801
X229510Y-115421
X229510Y-123041
X229510Y-130661
X234590Y-100181
X234590Y-107801
X234590Y-115421
X234590Y-123041
X234590Y-130661
X242210Y-100181
X242210Y-107801
X242210Y-115421
X242210Y-123041
X242210Y-130661
T6
X161290Y-88900
X161290Y-134620
X163830Y-81280
X163830Y-142240
X166370Y-88900
X166370Y-134620
X252730Y-88900
X252730Y-134620
X255270Y-81280
X255270Y-142240
X257810Y-88900
X257810Y-134620
T7
X62230Y-74930
X66730Y-74930
T8
X69850Y-43180
X105410Y-43180
T9
X60960Y-43180
X60960Y-142240
X260350Y-43180
X260350Y-142240
T0
M30
